<ttFont>
    <TTGlyph name=".notdef" xMin="130" yMin="-435" xMax="1371" yMax="1540">
      <contour>
        <pt x="130" y="1540" on="1"/>
        <pt x="1371" y="1540" on="1"/>
        <pt x="1371" y="-435" on="1"/>
        <pt x="130" y="-435" on="1"/>
      </contour>
      <contour>
        <pt x="842" y="552" on="1"/>
        <pt x="1185" y="-246" on="1"/>
        <pt x="1185" y="1351" on="1"/>
      </contour>
      <contour>
        <pt x="658" y="552" on="1"/>
        <pt x="316" y="1351" on="1"/>
        <pt x="316" y="-246" on="1"/>
      </contour>
      <contour>
        <pt x="750" y="338" on="1"/>
        <pt x="491" y="-266" on="1"/>
        <pt x="1010" y="-266" on="1"/>
      </contour>
      <contour>
        <pt x="750" y="766" on="1"/>
        <pt x="1010" y="1371" on="1"/>
        <pt x="491" y="1371" on="1"/>
      </contour>
    </TTGlyph>
    <TTGlyph name="A" xMin="-26" yMin="0" xMax="1292" yMax="1353">
      <contour>
        <pt x="-26" y="118" on="1"/>
        <pt x="74" y="146" on="1"/>
        <pt x="507" y="1353" on="1"/>
        <pt x="770" y="1353" on="1"/>
        <pt x="1193" y="146" on="1"/>
        <pt x="1292" y="118" on="1"/>
        <pt x="1272" y="0" on="1"/>
        <pt x="778" y="0" on="1"/>
        <pt x="758" y="118" on="1"/>
        <pt x="890" y="146" on="1"/>
        <pt x="808" y="386" on="1"/>
        <pt x="355" y="386" on="1"/>
        <pt x="271" y="146" on="1"/>
        <pt x="403" y="118" on="1"/>
        <pt x="383" y="0" on="1"/>
        <pt x="-6" y="0" on="1"/>
      </contour>
      <contour>
        <pt x="406" y="535" on="1"/>
        <pt x="758" y="535" on="1"/>
        <pt x="592" y="1023" on="1"/>
        <pt x="576" y="1023" on="1"/>
      </contour>
    </TTGlyph>
    <TTGlyph name="AE" xMin="-34" yMin="0" xMax="1712" yMax="1353">
      <contour>
        <pt x="-34" y="118" on="1"/>
        <pt x="91" y="149" on="1"/>
        <pt x="736" y="1353" on="1"/>
        <pt x="1658" y="1353" on="1"/>
        <pt x="1682" y="1033" on="1"/>
        <pt x="1559" y="1011" on="1"/>
        <pt x="1476" y="1204" on="1"/>
        <pt x="1094" y="1204" on="1"/>
        <pt x="1094" y="782" on="1"/>
        <pt x="1381" y="782" on="1"/>
        <pt x="1415" y="914" on="1"/>
        <pt x="1534" y="894" on="1"/>
        <pt x="1534" y="520" on="1"/>
        <pt x="1415" y="500" on="1"/>
        <pt x="1381" y="633" on="1"/>
        <pt x="1094" y="633" on="1"/>
        <pt x="1094" y="149" on="1"/>
        <pt x="1505" y="149" on="1"/>
        <pt x="1588" y="342" on="1"/>
        <pt x="1712" y="319" on="1"/>
        <pt x="1688" y="0" on="1"/>
        <pt x="651" y="0" on="1"/>
        <pt x="631" y="118" on="1"/>
        <pt x="794" y="152" on="1"/>
        <pt x="794" y="386" on="1"/>
        <pt x="412" y="386" on="1"/>
        <pt x="285" y="143" on="1"/>
        <pt x="402" y="118" on="1"/>
        <pt x="382" y="0" on="1"/>
        <pt x="-14" y="0" on="1"/>
      </contour>
      <contour>
        <pt x="794" y="535" on="1"/>
        <pt x="794" y="1114" on="1"/>
        <pt x="490" y="535" on="1"/>
      </contour>
    </TTGlyph>
    <TTGlyph name="AEacute" xMin="-34" yMin="0" xMax="1712" yMax="1784">
      <component glyphName="AE" x="0" y="0" flags="0x204"/>
      <component glyphName="acute.case" x="871" y="0" flags="0x4"/>
    </TTGlyph>
    <TTGlyph name="Aacute" xMin="-26" yMin="0" xMax="1292" yMax="1784">
      <component glyphName="A" x="0" y="0" flags="0x204"/>
      <component glyphName="acute.case" x="420" y="0" flags="0x4"/>
    </TTGlyph>
    <TTGlyph name="Abreve" xMin="-26" yMin="0" xMax="1292" yMax="1759">
      <component glyphName="A" x="0" y="0" flags="0x204"/>
      <component glyphName="breve.case" x="375" y="0" flags="0x4"/>
    </TTGlyph>
    <TTGlyph name="Acircumflex" xMin="-26" yMin="0" xMax="1292" yMax="1794">
      <component glyphName="A" x="0" y="0" flags="0x204"/>
      <component glyphName="circumflex.case" x="365" y="0" flags="0x4"/>
    </TTGlyph>
    <TTGlyph name="Adieresis" xMin="-26" yMin="0" xMax="1292" yMax="1728">
      <component glyphName="A" x="0" y="0" flags="0x204"/>
      <component glyphName="dieresis.case" x="366" y="0" flags="0x4"/>
    </TTGlyph>
    <TTGlyph name="Agrave" xMin="-26" yMin="0" xMax="1292" yMax="1784">
      <component glyphName="A" x="0" y="0" flags="0x204"/>
      <component glyphName="grave.case" x="197" y="0" flags="0x4"/>
    </TTGlyph>
    <TTGlyph name="Amacron" xMin="-26" yMin="0" xMax="1292" yMax="1690">
      <component glyphName="A" x="0" y="0" flags="0x204"/>
      <component glyphName="macron.case" x="366" y="0" flags="0x4"/>
    </TTGlyph>
    <TTGlyph name="Aogonek" xMin="-26" yMin="-457" xMax="1292" yMax="1353">
      <contour>
        <pt x="940" y="0" on="1"/>
        <pt x="902" y="-30" on="0"/>
        <pt x="842" y="-102" on="0"/>
        <pt x="800" y="-175" on="0"/>
        <pt x="778" y="-245" on="0"/>
        <pt x="778" y="-275" on="1"/>
        <pt x="778" y="-310" on="0"/>
        <pt x="806" y="-337" on="0"/>
        <pt x="837" y="-337" on="1"/>
        <pt x="863" y="-337" on="0"/>
        <pt x="919" y="-312" on="0"/>
        <pt x="942" y="-297" on="1"/>
        <pt x="969" y="-279" on="0"/>
        <pt x="995" y="-257" on="1"/>
        <pt x="995" y="-370" on="1"/>
        <pt x="966" y="-395" on="0"/>
        <pt x="930" y="-414" on="1"/>
        <pt x="898" y="-431" on="0"/>
        <pt x="811" y="-457" on="0"/>
        <pt x="756" y="-457" on="1"/>
        <pt x="675" y="-457" on="0"/>
        <pt x="587" y="-399" on="0"/>
        <pt x="587" y="-324" on="1"/>
        <pt x="587" y="-260" on="0"/>
        <pt x="642" y="-141" on="0"/>
        <pt x="738" y="-31" on="0"/>
        <pt x="802" y="19" on="1"/>
        <pt x="852" y="58" on="0"/>
        <pt x="907" y="95" on="1"/>
        <pt x="808" y="386" on="1"/>
        <pt x="355" y="386" on="1"/>
        <pt x="271" y="146" on="1"/>
        <pt x="403" y="118" on="1"/>
        <pt x="383" y="0" on="1"/>
        <pt x="-6" y="0" on="1"/>
        <pt x="-26" y="118" on="1"/>
        <pt x="74" y="146" on="1"/>
        <pt x="507" y="1353" on="1"/>
        <pt x="770" y="1353" on="1"/>
        <pt x="1193" y="146" on="1"/>
        <pt x="1292" y="118" on="1"/>
        <pt x="1272" y="0" on="1"/>
      </contour>
      <contour>
        <pt x="406" y="535" on="1"/>
        <pt x="758" y="535" on="1"/>
        <pt x="592" y="1023" on="1"/>
        <pt x="576" y="1023" on="1"/>
      </contour>
    </TTGlyph>
    <TTGlyph name="Aring" xMin="-26" yMin="0" xMax="1292" yMax="1799">
      <component glyphName="A" x="0" y="0" flags="0x204"/>
      <component glyphName="ring.case" x="370" y="0" flags="0x4"/>
    </TTGlyph>
    <TTGlyph name="Aringacute" xMin="-26" yMin="0" xMax="1292" yMax="2163">
      <component glyphName="A" x="0" y="0" flags="0x204"/>
      <component glyphName="ring.case" x="365" y="0" flags="0x4"/>
      <component glyphName="acute.case" x="429" y="379" flags="0x4"/>
    </TTGlyph>
    <TTGlyph name="Atilde" xMin="-26" yMin="0" xMax="1292" yMax="1777">
      <component glyphName="A" x="0" y="0" flags="0x204"/>
      <component glyphName="tilde.case" x="369" y="0" flags="0x4"/>
    </TTGlyph>
    <TTGlyph name="B" xMin="70" yMin="0" xMax="1168" yMax="1353">
      <contour>
        <pt x="213" y="1201" on="1"/>
        <pt x="70" y="1235" on="1"/>
        <pt x="90" y="1353" on="1"/>
        <pt x="659" y="1353" on="1"/>
        <pt x="871" y="1353" on="0"/>
        <pt x="1110" y="1192" on="0"/>
        <pt x="1110" y="1041" on="1"/>
        <pt x="1110" y="938" on="0"/>
        <pt x="982" y="769" on="0"/>
        <pt x="874" y="720" on="1"/>
        <pt x="876" y="704" on="1"/>
        <pt x="1011" y="681" on="0"/>
        <pt x="1168" y="523" on="0"/>
        <pt x="1168" y="403" on="1"/>
        <pt x="1168" y="222" on="0"/>
        <pt x="909" y="0" on="0"/>
        <pt x="697" y="0" on="1"/>
        <pt x="90" y="0" on="1"/>
        <pt x="70" y="118" on="1"/>
        <pt x="213" y="152" on="1"/>
      </contour>
      <contour>
        <pt x="513" y="628" on="1"/>
        <pt x="513" y="149" on="1"/>
        <pt x="600" y="149" on="1"/>
        <pt x="660" y="149" on="0"/>
        <pt x="781" y="159" on="0"/>
        <pt x="838" y="174" on="1"/>
        <pt x="851" y="215" on="0"/>
        <pt x="868" y="333" on="0"/>
        <pt x="868" y="392" on="1"/>
        <pt x="868" y="505" on="0"/>
        <pt x="732" y="628" on="0"/>
        <pt x="617" y="628" on="1"/>
      </contour>
      <contour>
        <pt x="513" y="1204" on="1"/>
        <pt x="513" y="777" on="1"/>
        <pt x="594" y="777" on="1"/>
        <pt x="638" y="777" on="0"/>
        <pt x="733" y="791" on="0"/>
        <pt x="776" y="804" on="1"/>
        <pt x="790" y="841" on="0"/>
        <pt x="810" y="950" on="0"/>
        <pt x="810" y="1003" on="1"/>
        <pt x="810" y="1112" on="0"/>
        <pt x="701" y="1204" on="0"/>
        <pt x="578" y="1204" on="1"/>
      </contour>
    </TTGlyph>
    <TTGlyph name="C" xMin="70" yMin="-22" xMax="1122" yMax="1375">
      <contour>
        <pt x="70" y="604" on="1"/>
        <pt x="70" y="983" on="0"/>
        <pt x="404" y="1375" on="0"/>
        <pt x="735" y="1375" on="1"/>
        <pt x="826" y="1375" on="0"/>
        <pt x="1017" y="1345" on="0"/>
        <pt x="1098" y="1316" on="1"/>
        <pt x="1119" y="1026" on="1"/>
        <pt x="964" y="1004" on="1"/>
        <pt x="879" y="1203" on="1"/>
        <pt x="847" y="1214" on="0"/>
        <pt x="754" y="1226" on="0"/>
        <pt x="708" y="1226" on="1"/>
        <pt x="633" y="1226" on="0"/>
        <pt x="482" y="1182" on="0"/>
        <pt x="429" y="1148" on="1"/>
        <pt x="404" y="1056" on="0"/>
        <pt x="370" y="812" on="0"/>
        <pt x="370" y="683" on="1"/>
        <pt x="370" y="550" on="1"/>
        <pt x="370" y="342" on="0"/>
        <pt x="567" y="127" on="0"/>
        <pt x="761" y="127" on="1"/>
        <pt x="846" y="127" on="0"/>
        <pt x="1037" y="183" on="0"/>
        <pt x="1122" y="231" on="1"/>
        <pt x="1122" y="105" on="1"/>
        <pt x="1033" y="47" on="0"/>
        <pt x="798" y="-22" on="0"/>
        <pt x="676" y="-22" on="1"/>
        <pt x="377" y="-22" on="0"/>
        <pt x="70" y="252" on="0"/>
        <pt x="70" y="515" on="1"/>
      </contour>
    </TTGlyph>
    <TTGlyph name="Cacute" xMin="70" yMin="-22" xMax="1122" yMax="1784">
      <component glyphName="C" x="0" y="0" flags="0x204"/>
      <component glyphName="acute.case" x="494" y="0" flags="0x4"/>
    </TTGlyph>
    <TTGlyph name="Ccaron" xMin="70" yMin="-22" xMax="1122" yMax="1794">
      <component glyphName="C" x="0" y="0" flags="0x204"/>
      <component glyphName="caron.case" x="431" y="0" flags="0x4"/>
    </TTGlyph>
    <TTGlyph name="Ccedilla" xMin="70" yMin="-457" xMax="1122" yMax="1375">
      <contour>
        <pt x="70" y="604" on="1"/>
        <pt x="70" y="983" on="0"/>
        <pt x="404" y="1375" on="0"/>
        <pt x="735" y="1375" on="1"/>
        <pt x="826" y="1375" on="0"/>
        <pt x="1017" y="1345" on="0"/>
        <pt x="1098" y="1316" on="1"/>
        <pt x="1119" y="1026" on="1"/>
        <pt x="964" y="1004" on="1"/>
        <pt x="879" y="1203" on="1"/>
        <pt x="847" y="1214" on="0"/>
        <pt x="754" y="1226" on="0"/>
        <pt x="708" y="1226" on="1"/>
        <pt x="633" y="1226" on="0"/>
        <pt x="482" y="1182" on="0"/>
        <pt x="429" y="1148" on="1"/>
        <pt x="404" y="1056" on="0"/>
        <pt x="370" y="812" on="0"/>
        <pt x="370" y="683" on="1"/>
        <pt x="370" y="550" on="1"/>
        <pt x="370" y="342" on="0"/>
        <pt x="567" y="127" on="0"/>
        <pt x="761" y="127" on="1"/>
        <pt x="846" y="127" on="0"/>
        <pt x="1037" y="183" on="0"/>
        <pt x="1122" y="231" on="1"/>
        <pt x="1122" y="105" on="1"/>
        <pt x="1033" y="47" on="0"/>
        <pt x="915" y="12" on="1"/>
        <pt x="827" y="-13" on="0"/>
        <pt x="736" y="-20" on="1"/>
        <pt x="707" y="-95" on="1"/>
        <pt x="754" y="-104" on="0"/>
        <pt x="830" y="-132" on="0"/>
        <pt x="883" y="-175" on="0"/>
        <pt x="912" y="-234" on="0"/>
        <pt x="912" y="-275" on="1"/>
        <pt x="912" y="-315" on="0"/>
        <pt x="877" y="-382" on="0"/>
        <pt x="812" y="-430" on="0"/>
        <pt x="720" y="-457" on="0"/>
        <pt x="664" y="-457" on="1"/>
        <pt x="618" y="-457" on="0"/>
        <pt x="542" y="-443" on="0"/>
        <pt x="514" y="-434" on="1"/>
        <pt x="481" y="-423" on="0"/>
        <pt x="454" y="-410" on="1"/>
        <pt x="454" y="-297" on="1"/>
        <pt x="482" y="-308" on="0"/>
        <pt x="513" y="-317" on="1"/>
        <pt x="539" y="-325" on="0"/>
        <pt x="603" y="-337" on="0"/>
        <pt x="635" y="-337" on="1"/>
        <pt x="672" y="-337" on="0"/>
        <pt x="693" y="-334" on="1"/>
        <pt x="704" y="-332" on="0"/>
        <pt x="714" y="-330" on="1"/>
        <pt x="715" y="-323" on="0"/>
        <pt x="717" y="-315" on="1"/>
        <pt x="719" y="-308" on="0"/>
        <pt x="721" y="-293" on="0"/>
        <pt x="721" y="-285" on="1"/>
        <pt x="721" y="-268" on="0"/>
        <pt x="707" y="-241" on="0"/>
        <pt x="673" y="-220" on="0"/>
        <pt x="617" y="-203" on="0"/>
        <pt x="574" y="-196" on="1"/>
        <pt x="528" y="-124" on="1"/>
        <pt x="567" y="-17" on="1"/>
        <pt x="347" y="4" on="0"/>
        <pt x="223" y="115" on="1"/>
        <pt x="70" y="252" on="0"/>
        <pt x="70" y="515" on="1"/>
      </contour>
    </TTGlyph>
    <TTGlyph name="Ccircumflex" xMin="70" yMin="-22" xMax="1122" yMax="1794">
      <component glyphName="C" x="0" y="0" flags="0x204"/>
      <component glyphName="circumflex.case" x="439" y="0" flags="0x4"/>
    </TTGlyph>
    <TTGlyph name="Cdotaccent" xMin="70" yMin="-22" xMax="1122" yMax="1751">
      <component glyphName="C" x="0" y="0" flags="0x204"/>
      <component glyphName="dotaccent.case" x="454" y="0" flags="0x4"/>
    </TTGlyph>
    <TTGlyph name="D" xMin="70" yMin="0" xMax="1348" yMax="1353">
      <contour>
        <pt x="213" y="1201" on="1"/>
        <pt x="70" y="1235" on="1"/>
        <pt x="90" y="1353" on="1"/>
        <pt x="708" y="1353" on="1"/>
        <pt x="1025" y="1353" on="0"/>
        <pt x="1348" y="1051" on="0"/>
        <pt x="1348" y="765" on="1"/>
        <pt x="1348" y="687" on="1"/>
        <pt x="1348" y="370" on="0"/>
        <pt x="1007" y="0" on="0"/>
        <pt x="718" y="0" on="1"/>
        <pt x="90" y="0" on="1"/>
        <pt x="70" y="118" on="1"/>
        <pt x="213" y="152" on="1"/>
      </contour>
      <contour>
        <pt x="513" y="1204" on="1"/>
        <pt x="513" y="149" on="1"/>
        <pt x="674" y="149" on="1"/>
        <pt x="733" y="149" on="0"/>
        <pt x="861" y="165" on="0"/>
        <pt x="912" y="178" on="1"/>
        <pt x="964" y="250" on="0"/>
        <pt x="1048" y="494" on="0"/>
        <pt x="1048" y="622" on="1"/>
        <pt x="1048" y="716" on="1"/>
        <pt x="1048" y="964" on="0"/>
        <pt x="848" y="1204" on="0"/>
        <pt x="641" y="1204" on="1"/>
      </contour>
    </TTGlyph>
    <TTGlyph name="Dcaron" xMin="70" yMin="0" xMax="1348" yMax="1794">
      <component glyphName="D" x="0" y="0" flags="0x204"/>
      <component glyphName="caron.case" x="335" y="0" flags="0x4"/>
    </TTGlyph>
    <TTGlyph name="Dcroat" xMin="50" yMin="0" xMax="1348" yMax="1353">
      <contour>
        <pt x="50" y="778" on="1"/>
        <pt x="213" y="778" on="1"/>
        <pt x="213" y="1201" on="1"/>
        <pt x="70" y="1235" on="1"/>
        <pt x="90" y="1353" on="1"/>
        <pt x="708" y="1353" on="1"/>
        <pt x="1025" y="1353" on="0"/>
        <pt x="1348" y="1051" on="0"/>
        <pt x="1348" y="765" on="1"/>
        <pt x="1348" y="687" on="1"/>
        <pt x="1348" y="370" on="0"/>
        <pt x="1007" y="0" on="0"/>
        <pt x="718" y="0" on="1"/>
        <pt x="90" y="0" on="1"/>
        <pt x="70" y="118" on="1"/>
        <pt x="213" y="152" on="1"/>
        <pt x="213" y="609" on="1"/>
        <pt x="50" y="609" on="1"/>
      </contour>
      <contour>
        <pt x="513" y="1204" on="1"/>
        <pt x="513" y="778" on="1"/>
        <pt x="753" y="778" on="1"/>
        <pt x="753" y="609" on="1"/>
        <pt x="513" y="609" on="1"/>
        <pt x="513" y="149" on="1"/>
        <pt x="674" y="149" on="1"/>
        <pt x="733" y="149" on="0"/>
        <pt x="861" y="165" on="0"/>
        <pt x="912" y="178" on="1"/>
        <pt x="964" y="250" on="0"/>
        <pt x="1048" y="494" on="0"/>
        <pt x="1048" y="622" on="1"/>
        <pt x="1048" y="716" on="1"/>
        <pt x="1048" y="964" on="0"/>
        <pt x="848" y="1204" on="0"/>
        <pt x="641" y="1204" on="1"/>
      </contour>
    </TTGlyph>
    <TTGlyph name="Ddotaccent" xMin="70" yMin="0" xMax="1348" yMax="1751">
      <component glyphName="D" x="0" y="0" flags="0x204"/>
      <component glyphName="dotaccent.case" x="358" y="0" flags="0x4"/>
    </TTGlyph>
    <TTGlyph name="E" xMin="70" yMin="0" xMax="1131" yMax="1353">
      <contour>
        <pt x="513" y="633" on="1"/>
        <pt x="513" y="149" on="1"/>
        <pt x="914" y="149" on="1"/>
        <pt x="997" y="342" on="1"/>
        <pt x="1131" y="319" on="1"/>
        <pt x="1107" y="0" on="1"/>
        <pt x="90" y="0" on="1"/>
        <pt x="70" y="118" on="1"/>
        <pt x="213" y="152" on="1"/>
        <pt x="213" y="1201" on="1"/>
        <pt x="70" y="1235" on="1"/>
        <pt x="90" y="1353" on="1"/>
        <pt x="1077" y="1353" on="1"/>
        <pt x="1101" y="1033" on="1"/>
        <pt x="968" y="1011" on="1"/>
        <pt x="885" y="1204" on="1"/>
        <pt x="513" y="1204" on="1"/>
        <pt x="513" y="782" on="1"/>
        <pt x="800" y="782" on="1"/>
        <pt x="834" y="894" on="1"/>
        <pt x="953" y="874" on="1"/>
        <pt x="953" y="540" on="1"/>
        <pt x="834" y="520" on="1"/>
        <pt x="800" y="633" on="1"/>
      </contour>
    </TTGlyph>
    <TTGlyph name="Eacute" xMin="70" yMin="0" xMax="1131" yMax="1784">
      <component glyphName="E" x="0" y="0" flags="0x204"/>
      <component glyphName="acute.case" x="375" y="0" flags="0x4"/>
    </TTGlyph>
    <TTGlyph name="Ebreve" xMin="70" yMin="0" xMax="1131" yMax="1759">
      <component glyphName="E" x="0" y="0" flags="0x204"/>
      <component glyphName="breve.case" x="330" y="0" flags="0x4"/>
    </TTGlyph>
    <TTGlyph name="Ecaron" xMin="70" yMin="0" xMax="1131" yMax="1794">
      <component glyphName="E" x="0" y="0" flags="0x204"/>
      <component glyphName="caron.case" x="312" y="0" flags="0x4"/>
    </TTGlyph>
    <TTGlyph name="Ecircumflex" xMin="70" yMin="0" xMax="1131" yMax="1794">
      <component glyphName="E" x="0" y="0" flags="0x204"/>
      <component glyphName="circumflex.case" x="320" y="0" flags="0x4"/>
    </TTGlyph>
    <TTGlyph name="Edieresis" xMin="70" yMin="0" xMax="1131" yMax="1728">
      <component glyphName="E" x="0" y="0" flags="0x204"/>
      <component glyphName="dieresis.case" x="321" y="0" flags="0x4"/>
    </TTGlyph>
    <TTGlyph name="Edotaccent" xMin="70" yMin="0" xMax="1131" yMax="1751">
      <component glyphName="E" x="0" y="0" flags="0x204"/>
      <component glyphName="dotaccent.case" x="335" y="0" flags="0x4"/>
    </TTGlyph>
    <TTGlyph name="Egrave" xMin="70" yMin="0" xMax="1131" yMax="1784">
      <component glyphName="E" x="0" y="0" flags="0x204"/>
      <component glyphName="grave.case" x="152" y="0" flags="0x4"/>
    </TTGlyph>
    <TTGlyph name="Emacron" xMin="70" yMin="0" xMax="1131" yMax="1690">
      <component glyphName="E" x="0" y="0" flags="0x204"/>
      <component glyphName="macron.case" x="321" y="0" flags="0x4"/>
    </TTGlyph>
    <TTGlyph name="Eng" xMin="68" yMin="-448" xMax="1559" yMax="1353">
      <contour>
        <pt x="211" y="1201" on="1"/>
        <pt x="68" y="1235" on="1"/>
        <pt x="88" y="1353" on="1"/>
        <pt x="608" y="1353" on="1"/>
        <pt x="1200" y="252" on="1"/>
        <pt x="1216" y="252" on="1"/>
        <pt x="1216" y="1201" on="1"/>
        <pt x="1072" y="1235" on="1"/>
        <pt x="1092" y="1353" on="1"/>
        <pt x="1539" y="1353" on="1"/>
        <pt x="1559" y="1235" on="1"/>
        <pt x="1417" y="1201" on="1"/>
        <pt x="1417" y="0" on="1"/>
        <pt x="1417" y="-137" on="0"/>
        <pt x="1366" y="-311" on="0"/>
        <pt x="1272" y="-410" on="0"/>
        <pt x="1138" y="-448" on="0"/>
        <pt x="1055" y="-448" on="1"/>
        <pt x="988" y="-448" on="0"/>
        <pt x="878" y="-431" on="0"/>
        <pt x="837" y="-420" on="1"/>
        <pt x="789" y="-408" on="0"/>
        <pt x="751" y="-391" on="1"/>
        <pt x="787" y="-240" on="1"/>
        <pt x="850" y="-258" on="0"/>
        <pt x="916" y="-271" on="1"/>
        <pt x="972" y="-282" on="0"/>
        <pt x="1105" y="-301" on="0"/>
        <pt x="1166" y="-301" on="1"/>
        <pt x="1180" y="-278" on="0"/>
        <pt x="1191" y="-245" on="1"/>
        <pt x="1200" y="-216" on="0"/>
        <pt x="1216" y="-127" on="0"/>
        <pt x="1216" y="-64" on="1"/>
        <pt x="1216" y="0" on="1"/>
        <pt x="1018" y="0" on="1"/>
        <pt x="427" y="1100" on="1"/>
        <pt x="411" y="1100" on="1"/>
        <pt x="411" y="152" on="1"/>
        <pt x="573" y="118" on="1"/>
        <pt x="553" y="0" on="1"/>
        <pt x="88" y="0" on="1"/>
        <pt x="68" y="118" on="1"/>
        <pt x="211" y="152" on="1"/>
      </contour>
    </TTGlyph>
    <TTGlyph name="Eogonek" xMin="70" yMin="-457" xMax="1162" yMax="1353">
      <contour>
        <pt x="1107" y="0" on="1"/>
        <pt x="1069" y="-30" on="0"/>
        <pt x="1009" y="-102" on="0"/>
        <pt x="967" y="-175" on="0"/>
        <pt x="945" y="-245" on="0"/>
        <pt x="945" y="-275" on="1"/>
        <pt x="945" y="-310" on="0"/>
        <pt x="973" y="-337" on="0"/>
        <pt x="1004" y="-337" on="1"/>
        <pt x="1030" y="-337" on="0"/>
        <pt x="1086" y="-312" on="0"/>
        <pt x="1109" y="-297" on="1"/>
        <pt x="1136" y="-279" on="0"/>
        <pt x="1162" y="-257" on="1"/>
        <pt x="1162" y="-370" on="1"/>
        <pt x="1133" y="-395" on="0"/>
        <pt x="1097" y="-414" on="1"/>
        <pt x="1065" y="-431" on="0"/>
        <pt x="978" y="-457" on="0"/>
        <pt x="923" y="-457" on="1"/>
        <pt x="842" y="-457" on="0"/>
        <pt x="754" y="-399" on="0"/>
        <pt x="754" y="-324" on="1"/>
        <pt x="754" y="-260" on="0"/>
        <pt x="809" y="-141" on="0"/>
        <pt x="857" y="-86" on="1"/>
        <pt x="895" y="-41" on="0"/>
        <pt x="945" y="0" on="1"/>
        <pt x="90" y="0" on="1"/>
        <pt x="70" y="118" on="1"/>
        <pt x="213" y="152" on="1"/>
        <pt x="213" y="1201" on="1"/>
        <pt x="70" y="1235" on="1"/>
        <pt x="90" y="1353" on="1"/>
        <pt x="1077" y="1353" on="1"/>
        <pt x="1101" y="1033" on="1"/>
        <pt x="968" y="1011" on="1"/>
        <pt x="885" y="1204" on="1"/>
        <pt x="513" y="1204" on="1"/>
        <pt x="513" y="782" on="1"/>
        <pt x="800" y="782" on="1"/>
        <pt x="834" y="894" on="1"/>
        <pt x="953" y="874" on="1"/>
        <pt x="953" y="540" on="1"/>
        <pt x="834" y="520" on="1"/>
        <pt x="800" y="633" on="1"/>
        <pt x="513" y="633" on="1"/>
        <pt x="513" y="149" on="1"/>
        <pt x="914" y="149" on="1"/>
        <pt x="997" y="342" on="1"/>
        <pt x="1131" y="319" on="1"/>
      </contour>
    </TTGlyph>
    <TTGlyph name="Eth" xMin="50" yMin="0" xMax="1348" yMax="1353">
      <contour>
        <pt x="50" y="778" on="1"/>
        <pt x="213" y="778" on="1"/>
        <pt x="213" y="1201" on="1"/>
        <pt x="70" y="1235" on="1"/>
        <pt x="90" y="1353" on="1"/>
        <pt x="708" y="1353" on="1"/>
        <pt x="1025" y="1353" on="0"/>
        <pt x="1348" y="1051" on="0"/>
        <pt x="1348" y="765" on="1"/>
        <pt x="1348" y="687" on="1"/>
        <pt x="1348" y="370" on="0"/>
        <pt x="1007" y="0" on="0"/>
        <pt x="718" y="0" on="1"/>
        <pt x="90" y="0" on="1"/>
        <pt x="70" y="118" on="1"/>
        <pt x="213" y="152" on="1"/>
        <pt x="213" y="609" on="1"/>
        <pt x="50" y="609" on="1"/>
      </contour>
      <contour>
        <pt x="513" y="1204" on="1"/>
        <pt x="513" y="778" on="1"/>
        <pt x="753" y="778" on="1"/>
        <pt x="753" y="609" on="1"/>
        <pt x="513" y="609" on="1"/>
        <pt x="513" y="149" on="1"/>
        <pt x="674" y="149" on="1"/>
        <pt x="733" y="149" on="0"/>
        <pt x="861" y="165" on="0"/>
        <pt x="912" y="178" on="1"/>
        <pt x="964" y="250" on="0"/>
        <pt x="1048" y="494" on="0"/>
        <pt x="1048" y="622" on="1"/>
        <pt x="1048" y="716" on="1"/>
        <pt x="1048" y="964" on="0"/>
        <pt x="848" y="1204" on="0"/>
        <pt x="641" y="1204" on="1"/>
      </contour>
    </TTGlyph>
    <TTGlyph name="Euro" xMin="30" yMin="-22" xMax="1225" yMax="1375">
      <contour>
        <pt x="58" y="833" on="1"/>
        <pt x="181" y="833" on="1"/>
        <pt x="227" y="1100" on="0"/>
        <pt x="550" y="1375" on="0"/>
        <pt x="828" y="1375" on="1"/>
        <pt x="916" y="1375" on="0"/>
        <pt x="1056" y="1350" on="0"/>
        <pt x="1107" y="1335" on="1"/>
        <pt x="1166" y="1317" on="0"/>
        <pt x="1211" y="1295" on="1"/>
        <pt x="1211" y="968" on="1"/>
        <pt x="1051" y="968" on="1"/>
        <pt x="1003" y="1205" on="1"/>
        <pt x="982" y="1211" on="0"/>
        <pt x="953" y="1215" on="1"/>
        <pt x="927" y="1219" on="0"/>
        <pt x="852" y="1226" on="0"/>
        <pt x="801" y="1226" on="1"/>
        <pt x="740" y="1226" on="0"/>
        <pt x="638" y="1201" on="0"/>
        <pt x="601" y="1187" on="1"/>
        <pt x="557" y="1169" on="0"/>
        <pt x="522" y="1148" on="1"/>
        <pt x="511" y="1110" on="0"/>
        <pt x="501" y="1062" on="1"/>
        <pt x="493" y="1020" on="0"/>
        <pt x="474" y="905" on="0"/>
        <pt x="469" y="833" on="1"/>
        <pt x="1018" y="833" on="1"/>
        <pt x="990" y="713" on="1"/>
        <pt x="463" y="713" on="1"/>
        <pt x="463" y="683" on="1"/>
        <pt x="463" y="593" on="1"/>
        <pt x="962" y="593" on="1"/>
        <pt x="934" y="473" on="1"/>
        <pt x="467" y="473" on="1"/>
        <pt x="477" y="378" on="0"/>
        <pt x="544" y="247" on="0"/>
        <pt x="643" y="164" on="0"/>
        <pt x="768" y="127" on="0"/>
        <pt x="836" y="127" on="1"/>
        <pt x="914" y="127" on="0"/>
        <pt x="1055" y="159" on="0"/>
        <pt x="1109" y="179" on="1"/>
        <pt x="1171" y="202" on="0"/>
        <pt x="1225" y="231" on="1"/>
        <pt x="1225" y="105" on="1"/>
        <pt x="1168" y="69" on="0"/>
        <pt x="1096" y="41" on="1"/>
        <pt x="1034" y="17" on="0"/>
        <pt x="863" y="-22" on="0"/>
        <pt x="758" y="-22" on="1"/>
        <pt x="644" y="-22" on="0"/>
        <pt x="435" y="26" on="0"/>
        <pt x="273" y="140" on="0"/>
        <pt x="171" y="330" on="0"/>
        <pt x="164" y="473" on="1"/>
        <pt x="30" y="473" on="1"/>
        <pt x="58" y="593" on="1"/>
        <pt x="163" y="593" on="1"/>
        <pt x="163" y="604" on="1"/>
        <pt x="163" y="660" on="0"/>
        <pt x="166" y="713" on="1"/>
        <pt x="30" y="713" on="1"/>
      </contour>
    </TTGlyph>
    <TTGlyph name="F" xMin="68" yMin="0" xMax="1039" yMax="1353">
      <contour>
        <pt x="511" y="633" on="1"/>
        <pt x="511" y="152" on="1"/>
        <pt x="713" y="118" on="1"/>
        <pt x="693" y="0" on="1"/>
        <pt x="88" y="0" on="1"/>
        <pt x="68" y="118" on="1"/>
        <pt x="211" y="152" on="1"/>
        <pt x="211" y="1201" on="1"/>
        <pt x="68" y="1235" on="1"/>
        <pt x="88" y="1353" on="1"/>
        <pt x="1015" y="1353" on="1"/>
        <pt x="1039" y="1033" on="1"/>
        <pt x="916" y="1011" on="1"/>
        <pt x="833" y="1204" on="1"/>
        <pt x="511" y="1204" on="1"/>
        <pt x="511" y="782" on="1"/>
        <pt x="761" y="782" on="1"/>
        <pt x="795" y="894" on="1"/>
        <pt x="913" y="874" on="1"/>
        <pt x="913" y="540" on="1"/>
        <pt x="795" y="520" on="1"/>
        <pt x="761" y="633" on="1"/>
      </contour>
    </TTGlyph>
    <TTGlyph name="G" xMin="74" yMin="-22" xMax="1296" yMax="1375">
      <contour>
        <pt x="1154" y="105" on="1"/>
        <pt x="1057" y="46" on="0"/>
        <pt x="819" y="-21" on="0"/>
        <pt x="675" y="-22" on="1"/>
        <pt x="385" y="-22" on="0"/>
        <pt x="74" y="246" on="0"/>
        <pt x="74" y="505" on="1"/>
        <pt x="74" y="594" on="1"/>
        <pt x="74" y="974" on="0"/>
        <pt x="423" y="1375" on="0"/>
        <pt x="746" y="1375" on="1"/>
        <pt x="849" y="1375" on="0"/>
        <pt x="1053" y="1346" on="0"/>
        <pt x="1139" y="1318" on="1"/>
        <pt x="1160" y="1028" on="1"/>
        <pt x="1005" y="1006" on="1"/>
        <pt x="921" y="1203" on="1"/>
        <pt x="875" y="1215" on="0"/>
        <pt x="772" y="1226" on="0"/>
        <pt x="723" y="1226" on="1"/>
        <pt x="647" y="1226" on="0"/>
        <pt x="498" y="1184" on="0"/>
        <pt x="433" y="1148" on="1"/>
        <pt x="407" y="1053" on="0"/>
        <pt x="374" y="812" on="0"/>
        <pt x="374" y="683" on="1"/>
        <pt x="374" y="550" on="1"/>
        <pt x="374" y="347" on="0"/>
        <pt x="577" y="127" on="0"/>
        <pt x="737" y="127" on="1"/>
        <pt x="765" y="127" on="0"/>
        <pt x="825" y="133" on="0"/>
        <pt x="854" y="139" on="1"/>
        <pt x="854" y="494" on="1"/>
        <pt x="711" y="528" on="1"/>
        <pt x="731" y="646" on="1"/>
        <pt x="1276" y="646" on="1"/>
        <pt x="1296" y="528" on="1"/>
        <pt x="1154" y="494" on="1"/>
      </contour>
    </TTGlyph>
    <TTGlyph name="Gacute" xMin="74" yMin="-22" xMax="1296" yMax="1784">
      <component glyphName="G" x="0" y="0" flags="0x204"/>
      <component glyphName="acute.case" x="520" y="0" flags="0x4"/>
    </TTGlyph>
    <TTGlyph name="Gbreve" xMin="74" yMin="-22" xMax="1296" yMax="1759">
      <component glyphName="G" x="0" y="0" flags="0x204"/>
      <component glyphName="breve.case" x="475" y="0" flags="0x4"/>
    </TTGlyph>
    <TTGlyph name="Gcaron" xMin="74" yMin="-22" xMax="1296" yMax="1794">
      <component glyphName="G" x="0" y="0" flags="0x204"/>
      <component glyphName="caron.case" x="457" y="0" flags="0x4"/>
    </TTGlyph>
    <TTGlyph name="Gcircumflex" xMin="74" yMin="-22" xMax="1296" yMax="1794">
      <component glyphName="G" x="0" y="0" flags="0x204"/>
      <component glyphName="circumflex.case" x="465" y="0" flags="0x4"/>
    </TTGlyph>
    <TTGlyph name="Gcommaaccent" xMin="74" yMin="-511" xMax="1296" yMax="1375">
      <component glyphName="G" x="0" y="0" flags="0x204"/>
      <component glyphName="uni0326" x="1058" y="0" flags="0x4"/>
    </TTGlyph>
    <TTGlyph name="Gdotaccent" xMin="74" yMin="-22" xMax="1296" yMax="1751">
      <component glyphName="G" x="0" y="0" flags="0x204"/>
      <component glyphName="dotaccent.case" x="480" y="0" flags="0x4"/>
    </TTGlyph>
    <TTGlyph name="H" xMin="66" yMin="0" xMax="1477" yMax="1353">
      <contour>
        <pt x="209" y="1201" on="1"/>
        <pt x="66" y="1235" on="1"/>
        <pt x="86" y="1353" on="1"/>
        <pt x="631" y="1353" on="1"/>
        <pt x="651" y="1235" on="1"/>
        <pt x="509" y="1201" on="1"/>
        <pt x="509" y="788" on="1"/>
        <pt x="1033" y="788" on="1"/>
        <pt x="1033" y="1201" on="1"/>
        <pt x="891" y="1235" on="1"/>
        <pt x="911" y="1353" on="1"/>
        <pt x="1457" y="1353" on="1"/>
        <pt x="1477" y="1235" on="1"/>
        <pt x="1333" y="1201" on="1"/>
        <pt x="1333" y="152" on="1"/>
        <pt x="1477" y="118" on="1"/>
        <pt x="1457" y="0" on="1"/>
        <pt x="911" y="0" on="1"/>
        <pt x="891" y="118" on="1"/>
        <pt x="1033" y="152" on="1"/>
        <pt x="1033" y="639" on="1"/>
        <pt x="509" y="639" on="1"/>
        <pt x="509" y="152" on="1"/>
        <pt x="651" y="118" on="1"/>
        <pt x="631" y="0" on="1"/>
        <pt x="86" y="0" on="1"/>
        <pt x="66" y="118" on="1"/>
        <pt x="209" y="152" on="1"/>
      </contour>
    </TTGlyph>
    <TTGlyph name="Hbar" xMin="58" yMin="0" xMax="1499" yMax="1353">
      <contour>
        <pt x="58" y="1085" on="1"/>
        <pt x="209" y="1085" on="1"/>
        <pt x="209" y="1201" on="1"/>
        <pt x="66" y="1235" on="1"/>
        <pt x="86" y="1353" on="1"/>
        <pt x="631" y="1353" on="1"/>
        <pt x="651" y="1235" on="1"/>
        <pt x="509" y="1201" on="1"/>
        <pt x="509" y="1085" on="1"/>
        <pt x="1033" y="1085" on="1"/>
        <pt x="1033" y="1201" on="1"/>
        <pt x="891" y="1235" on="1"/>
        <pt x="911" y="1353" on="1"/>
        <pt x="1457" y="1353" on="1"/>
        <pt x="1477" y="1235" on="1"/>
        <pt x="1333" y="1201" on="1"/>
        <pt x="1333" y="1085" on="1"/>
        <pt x="1499" y="1085" on="1"/>
        <pt x="1499" y="945" on="1"/>
        <pt x="1333" y="945" on="1"/>
        <pt x="1333" y="152" on="1"/>
        <pt x="1477" y="118" on="1"/>
        <pt x="1457" y="0" on="1"/>
        <pt x="911" y="0" on="1"/>
        <pt x="891" y="118" on="1"/>
        <pt x="1033" y="152" on="1"/>
        <pt x="1033" y="639" on="1"/>
        <pt x="509" y="639" on="1"/>
        <pt x="509" y="152" on="1"/>
        <pt x="651" y="118" on="1"/>
        <pt x="631" y="0" on="1"/>
        <pt x="86" y="0" on="1"/>
        <pt x="66" y="118" on="1"/>
        <pt x="209" y="152" on="1"/>
        <pt x="209" y="945" on="1"/>
        <pt x="58" y="945" on="1"/>
      </contour>
      <contour>
        <pt x="1033" y="788" on="1"/>
        <pt x="1033" y="945" on="1"/>
        <pt x="509" y="945" on="1"/>
        <pt x="509" y="788" on="1"/>
      </contour>
    </TTGlyph>
    <TTGlyph name="Hcircumflex" xMin="66" yMin="0" xMax="1477" yMax="1794">
      <component glyphName="H" x="0" y="0" flags="0x204"/>
      <component glyphName="circumflex.case" x="509" y="0" flags="0x4"/>
    </TTGlyph>
    <TTGlyph name="I" xMin="68" yMin="0" xMax="653" yMax="1353">
      <contour>
        <pt x="211" y="1201" on="1"/>
        <pt x="68" y="1235" on="1"/>
        <pt x="88" y="1353" on="1"/>
        <pt x="633" y="1353" on="1"/>
        <pt x="653" y="1235" on="1"/>
        <pt x="511" y="1201" on="1"/>
        <pt x="511" y="152" on="1"/>
        <pt x="653" y="118" on="1"/>
        <pt x="633" y="0" on="1"/>
        <pt x="88" y="0" on="1"/>
        <pt x="68" y="118" on="1"/>
        <pt x="211" y="152" on="1"/>
      </contour>
    </TTGlyph>
    <TTGlyph name="IJ" xMin="68" yMin="-22" xMax="1598" yMax="1353">
      <component glyphName="I" x="0" y="0" flags="0x4"/>
      <component glyphName="J" x="717" y="0" flags="0x4"/>
    </TTGlyph>
    <TTGlyph name="Iacute" xMin="68" yMin="0" xMax="756" yMax="1784">
      <component glyphName="I" x="0" y="0" flags="0x204"/>
      <component glyphName="acute.case" x="136" y="0" flags="0x4"/>
    </TTGlyph>
    <TTGlyph name="Ibreve" xMin="10" yMin="0" xMax="722" yMax="1759">
      <component glyphName="I" x="0" y="0" flags="0x204"/>
      <component glyphName="breve.case" x="91" y="0" flags="0x4"/>
    </TTGlyph>
    <TTGlyph name="Icircumflex" xMin="-7" yMin="0" xMax="732" yMax="1794">
      <component glyphName="I" x="0" y="0" flags="0x204"/>
      <component glyphName="circumflex.case" x="81" y="0" flags="0x4"/>
    </TTGlyph>
    <TTGlyph name="Idieresis" xMin="-41" yMin="0" xMax="756" yMax="1728">
      <component glyphName="I" x="0" y="0" flags="0x204"/>
      <component glyphName="dieresis.case" x="82" y="0" flags="0x4"/>
    </TTGlyph>
    <TTGlyph name="Idotaccent" xMin="68" yMin="0" xMax="653" yMax="1751">
      <component glyphName="I" x="0" y="0" flags="0x204"/>
      <component glyphName="dotaccent.case" x="96" y="0" flags="0x4"/>
    </TTGlyph>
    <TTGlyph name="Igrave" xMin="-46" yMin="0" xMax="653" yMax="1784">
      <component glyphName="I" x="0" y="0" flags="0x204"/>
      <component glyphName="grave.case" x="-86" y="0" flags="0x4"/>
    </TTGlyph>
    <TTGlyph name="Imacron" xMin="-59" yMin="0" xMax="771" yMax="1690">
      <component glyphName="I" x="0" y="0" flags="0x204"/>
      <component glyphName="macron.case" x="82" y="0" flags="0x4"/>
    </TTGlyph>
    <TTGlyph name="Iogonek" xMin="59" yMin="-457" xMax="653" yMax="1353">
      <contour>
        <pt x="412" y="0" on="1"/>
        <pt x="374" y="-30" on="0"/>
        <pt x="314" y="-102" on="0"/>
        <pt x="272" y="-175" on="0"/>
        <pt x="250" y="-245" on="0"/>
        <pt x="250" y="-275" on="1"/>
        <pt x="250" y="-310" on="0"/>
        <pt x="278" y="-337" on="0"/>
        <pt x="309" y="-337" on="1"/>
        <pt x="335" y="-337" on="0"/>
        <pt x="391" y="-312" on="0"/>
        <pt x="414" y="-297" on="1"/>
        <pt x="441" y="-279" on="0"/>
        <pt x="467" y="-257" on="1"/>
        <pt x="467" y="-370" on="1"/>
        <pt x="438" y="-395" on="0"/>
        <pt x="402" y="-414" on="1"/>
        <pt x="370" y="-431" on="0"/>
        <pt x="283" y="-457" on="0"/>
        <pt x="228" y="-457" on="1"/>
        <pt x="147" y="-457" on="0"/>
        <pt x="59" y="-399" on="0"/>
        <pt x="59" y="-324" on="1"/>
        <pt x="59" y="-260" on="0"/>
        <pt x="114" y="-141" on="0"/>
        <pt x="162" y="-86" on="1"/>
        <pt x="200" y="-41" on="0"/>
        <pt x="250" y="0" on="1"/>
        <pt x="88" y="0" on="1"/>
        <pt x="68" y="118" on="1"/>
        <pt x="211" y="152" on="1"/>
        <pt x="211" y="1201" on="1"/>
        <pt x="68" y="1235" on="1"/>
        <pt x="88" y="1353" on="1"/>
        <pt x="633" y="1353" on="1"/>
        <pt x="653" y="1235" on="1"/>
        <pt x="511" y="1201" on="1"/>
        <pt x="511" y="152" on="1"/>
        <pt x="653" y="118" on="1"/>
        <pt x="633" y="0" on="1"/>
      </contour>
    </TTGlyph>
    <TTGlyph name="Itilde" xMin="-117" yMin="0" xMax="824" yMax="1777">
      <component glyphName="I" x="0" y="0" flags="0x204"/>
      <component glyphName="tilde.case" x="85" y="0" flags="0x4"/>
    </TTGlyph>
    <TTGlyph name="J" xMin="22" yMin="-22" xMax="881" yMax="1353">
      <contour>
        <pt x="739" y="336" on="1"/>
        <pt x="739" y="161" on="0"/>
        <pt x="536" y="-22" on="0"/>
        <pt x="327" y="-22" on="1"/>
        <pt x="254" y="-22" on="0"/>
        <pt x="100" y="9" on="0"/>
        <pt x="43" y="31" on="1"/>
        <pt x="22" y="311" on="1"/>
        <pt x="175" y="333" on="1"/>
        <pt x="259" y="137" on="1"/>
        <pt x="295" y="126" on="0"/>
        <pt x="336" y="126" on="1"/>
        <pt x="360" y="126" on="0"/>
        <pt x="406" y="134" on="0"/>
        <pt x="418" y="139" on="1"/>
        <pt x="426" y="168" on="0"/>
        <pt x="439" y="295" on="0"/>
        <pt x="439" y="369" on="1"/>
        <pt x="439" y="1201" on="1"/>
        <pt x="246" y="1235" on="1"/>
        <pt x="266" y="1353" on="1"/>
        <pt x="861" y="1353" on="1"/>
        <pt x="881" y="1235" on="1"/>
        <pt x="739" y="1201" on="1"/>
      </contour>
    </TTGlyph>
    <TTGlyph name="Jcircumflex" xMin="22" yMin="-22" xMax="959" yMax="1794">
      <component glyphName="J" x="0" y="0" flags="0x204"/>
      <component glyphName="circumflex.case" x="308" y="0" flags="0x4"/>
    </TTGlyph>
    <TTGlyph name="K" xMin="64" yMin="0" xMax="1424" yMax="1353">
      <contour>
        <pt x="64" y="118" on="1"/>
        <pt x="207" y="152" on="1"/>
        <pt x="207" y="1201" on="1"/>
        <pt x="64" y="1235" on="1"/>
        <pt x="84" y="1353" on="1"/>
        <pt x="629" y="1353" on="1"/>
        <pt x="649" y="1235" on="1"/>
        <pt x="507" y="1201" on="1"/>
        <pt x="507" y="734" on="1"/>
        <pt x="521" y="728" on="1"/>
        <pt x="1024" y="1214" on="1"/>
        <pt x="915" y="1234" on="1"/>
        <pt x="935" y="1353" on="1"/>
        <pt x="1383" y="1353" on="1"/>
        <pt x="1403" y="1235" on="1"/>
        <pt x="1262" y="1199" on="1"/>
        <pt x="865" y="821" on="1"/>
        <pt x="1307" y="147" on="1"/>
        <pt x="1424" y="118" on="1"/>
        <pt x="1404" y="0" on="1"/>
        <pt x="1060" y="0" on="1"/>
        <pt x="656" y="622" on="1"/>
        <pt x="507" y="480" on="1"/>
        <pt x="507" y="152" on="1"/>
        <pt x="649" y="118" on="1"/>
        <pt x="629" y="0" on="1"/>
        <pt x="84" y="0" on="1"/>
      </contour>
    </TTGlyph>
    <TTGlyph name="Kcommaaccent" xMin="64" yMin="-511" xMax="1424" yMax="1353">
      <component glyphName="K" x="0" y="0" flags="0x204"/>
      <component glyphName="uni0326" x="1089" y="0" flags="0x4"/>
    </TTGlyph>
    <TTGlyph name="L" xMin="68" yMin="0" xMax="1014" yMax="1353">
      <contour>
        <pt x="211" y="1201" on="1"/>
        <pt x="68" y="1235" on="1"/>
        <pt x="88" y="1353" on="1"/>
        <pt x="633" y="1353" on="1"/>
        <pt x="653" y="1235" on="1"/>
        <pt x="511" y="1201" on="1"/>
        <pt x="511" y="149" on="1"/>
        <pt x="777" y="149" on="1"/>
        <pt x="860" y="342" on="1"/>
        <pt x="1014" y="320" on="1"/>
        <pt x="989" y="0" on="1"/>
        <pt x="88" y="0" on="1"/>
        <pt x="68" y="118" on="1"/>
        <pt x="211" y="152" on="1"/>
      </contour>
    </TTGlyph>
    <TTGlyph name="Lacute" xMin="68" yMin="0" xMax="1014" yMax="1784">
      <component glyphName="L" x="0" y="0" flags="0x204"/>
      <component glyphName="acute.case" x="140" y="0" flags="0x4"/>
    </TTGlyph>
    <TTGlyph name="Lcaron" xMin="68" yMin="0" xMax="1014" yMax="1540">
      <component glyphName="L" x="0" y="0" flags="0x204"/>
      <component glyphName="caron.alt" x="691" y="0" flags="0x4"/>
    </TTGlyph>
    <TTGlyph name="Lcommaaccent" xMin="68" yMin="-511" xMax="1014" yMax="1353">
      <component glyphName="L" x="0" y="0" flags="0x204"/>
      <component glyphName="uni0326" x="907" y="0" flags="0x4"/>
    </TTGlyph>
    <TTGlyph name="Ldot" xMin="68" yMin="0" xMax="1076" yMax="1353">
      <component glyphName="L" x="0" y="0" flags="0x4"/>
      <component glyphName="periodcentered" x="644" y="0" flags="0x4"/>
    </TTGlyph>
    <TTGlyph name="Lslash" xMin="68" yMin="0" xMax="1014" yMax="1353">
      <contour>
        <pt x="71" y="559" on="1"/>
        <pt x="211" y="640" on="1"/>
        <pt x="211" y="1201" on="1"/>
        <pt x="68" y="1235" on="1"/>
        <pt x="88" y="1353" on="1"/>
        <pt x="633" y="1353" on="1"/>
        <pt x="653" y="1235" on="1"/>
        <pt x="511" y="1201" on="1"/>
        <pt x="511" y="813" on="1"/>
        <pt x="800" y="981" on="1"/>
        <pt x="800" y="823" on="1"/>
        <pt x="511" y="655" on="1"/>
        <pt x="511" y="149" on="1"/>
        <pt x="777" y="149" on="1"/>
        <pt x="860" y="342" on="1"/>
        <pt x="1014" y="320" on="1"/>
        <pt x="989" y="0" on="1"/>
        <pt x="88" y="0" on="1"/>
        <pt x="68" y="118" on="1"/>
        <pt x="211" y="152" on="1"/>
        <pt x="211" y="481" on="1"/>
        <pt x="71" y="400" on="1"/>
      </contour>
    </TTGlyph>
    <TTGlyph name="M" xMin="64" yMin="0" xMax="1947" yMax="1353">
      <contour>
        <pt x="207" y="1201" on="1"/>
        <pt x="64" y="1235" on="1"/>
        <pt x="84" y="1353" on="1"/>
        <pt x="628" y="1353" on="1"/>
        <pt x="999" y="372" on="1"/>
        <pt x="1015" y="372" on="1"/>
        <pt x="1372" y="1353" on="1"/>
        <pt x="1927" y="1353" on="1"/>
        <pt x="1947" y="1235" on="1"/>
        <pt x="1805" y="1201" on="1"/>
        <pt x="1805" y="152" on="1"/>
        <pt x="1947" y="118" on="1"/>
        <pt x="1927" y="0" on="1"/>
        <pt x="1382" y="0" on="1"/>
        <pt x="1362" y="118" on="1"/>
        <pt x="1505" y="152" on="1"/>
        <pt x="1505" y="1135" on="1"/>
        <pt x="1489" y="1135" on="1"/>
        <pt x="1065" y="0" on="1"/>
        <pt x="860" y="0" on="1"/>
        <pt x="423" y="1135" on="1"/>
        <pt x="407" y="1135" on="1"/>
        <pt x="407" y="152" on="1"/>
        <pt x="549" y="118" on="1"/>
        <pt x="529" y="0" on="1"/>
        <pt x="84" y="0" on="1"/>
        <pt x="64" y="118" on="1"/>
        <pt x="207" y="152" on="1"/>
      </contour>
    </TTGlyph>
    <TTGlyph name="N" xMin="68" yMin="0" xMax="1559" yMax="1353">
      <contour>
        <pt x="211" y="1201" on="1"/>
        <pt x="68" y="1235" on="1"/>
        <pt x="88" y="1353" on="1"/>
        <pt x="608" y="1353" on="1"/>
        <pt x="1200" y="252" on="1"/>
        <pt x="1216" y="252" on="1"/>
        <pt x="1216" y="1201" on="1"/>
        <pt x="1072" y="1235" on="1"/>
        <pt x="1092" y="1353" on="1"/>
        <pt x="1539" y="1353" on="1"/>
        <pt x="1559" y="1235" on="1"/>
        <pt x="1417" y="1201" on="1"/>
        <pt x="1417" y="0" on="1"/>
        <pt x="1018" y="0" on="1"/>
        <pt x="427" y="1100" on="1"/>
        <pt x="411" y="1100" on="1"/>
        <pt x="411" y="152" on="1"/>
        <pt x="573" y="118" on="1"/>
        <pt x="553" y="0" on="1"/>
        <pt x="88" y="0" on="1"/>
        <pt x="68" y="118" on="1"/>
        <pt x="211" y="152" on="1"/>
      </contour>
    </TTGlyph>
    <TTGlyph name="Nacute" xMin="68" yMin="0" xMax="1559" yMax="1784">
      <component glyphName="N" x="0" y="0" flags="0x204"/>
      <component glyphName="acute.case" x="609" y="0" flags="0x4"/>
    </TTGlyph>
    <TTGlyph name="Ncaron" xMin="68" yMin="0" xMax="1559" yMax="1794">
      <component glyphName="N" x="0" y="0" flags="0x204"/>
      <component glyphName="caron.case" x="546" y="0" flags="0x4"/>
    </TTGlyph>
    <TTGlyph name="Ncommaaccent" xMin="68" yMin="-511" xMax="1559" yMax="1353">
      <component glyphName="N" x="0" y="0" flags="0x204"/>
      <component glyphName="uni0326" x="1167" y="0" flags="0x4"/>
    </TTGlyph>
    <TTGlyph name="Ntilde" xMin="68" yMin="0" xMax="1559" yMax="1777">
      <component glyphName="N" x="0" y="0" flags="0x204"/>
      <component glyphName="tilde.case" x="558" y="0" flags="0x4"/>
    </TTGlyph>
    <TTGlyph name="O" xMin="86" yMin="-22" xMax="1347" yMax="1375">
      <contour>
        <pt x="695" y="-22" on="1"/>
        <pt x="392" y="-22" on="0"/>
        <pt x="86" y="252" on="0"/>
        <pt x="86" y="525" on="1"/>
        <pt x="86" y="604" on="1"/>
        <pt x="86" y="998" on="0"/>
        <pt x="418" y="1375" on="0"/>
        <pt x="734" y="1375" on="1"/>
        <pt x="1036" y="1375" on="0"/>
        <pt x="1347" y="1101" on="0"/>
        <pt x="1347" y="827" on="1"/>
        <pt x="1347" y="749" on="1"/>
        <pt x="1347" y="364" on="0"/>
        <pt x="1021" y="-22" on="0"/>
      </contour>
      <contour>
        <pt x="1047" y="783" on="1"/>
        <pt x="1047" y="1000" on="0"/>
        <pt x="870" y="1226" on="0"/>
        <pt x="697" y="1226" on="1"/>
        <pt x="622" y="1226" on="0"/>
        <pt x="487" y="1186" on="0"/>
        <pt x="445" y="1158" on="1"/>
        <pt x="427" y="1094" on="0"/>
        <pt x="386" y="836" on="0"/>
        <pt x="386" y="703" on="1"/>
        <pt x="386" y="570" on="1"/>
        <pt x="386" y="361" on="0"/>
        <pt x="581" y="127" on="0"/>
        <pt x="737" y="127" on="1"/>
        <pt x="817" y="127" on="0"/>
        <pt x="956" y="171" on="0"/>
        <pt x="989" y="196" on="1"/>
        <pt x="1010" y="271" on="0"/>
        <pt x="1047" y="528" on="0"/>
        <pt x="1047" y="650" on="1"/>
      </contour>
    </TTGlyph>
    <TTGlyph name="OE" xMin="86" yMin="-22" xMax="1867" yMax="1375">
      <contour>
        <pt x="1249" y="633" on="1"/>
        <pt x="1249" y="149" on="1"/>
        <pt x="1660" y="149" on="1"/>
        <pt x="1743" y="342" on="1"/>
        <pt x="1867" y="319" on="1"/>
        <pt x="1843" y="0" on="1"/>
        <pt x="949" y="0" on="1"/>
        <pt x="895" y="-11" on="0"/>
        <pt x="776" y="-22" on="0"/>
        <pt x="707" y="-22" on="1"/>
        <pt x="86" y="-22" on="0"/>
        <pt x="86" y="525" on="1"/>
        <pt x="86" y="604" on="1"/>
        <pt x="86" y="792" on="0"/>
        <pt x="164" y="1080" on="0"/>
        <pt x="322" y="1275" on="0"/>
        <pt x="563" y="1375" on="0"/>
        <pt x="727" y="1375" on="1"/>
        <pt x="789" y="1375" on="0"/>
        <pt x="898" y="1364" on="0"/>
        <pt x="949" y="1353" on="1"/>
        <pt x="1813" y="1353" on="1"/>
        <pt x="1837" y="1033" on="1"/>
        <pt x="1714" y="1011" on="1"/>
        <pt x="1631" y="1204" on="1"/>
        <pt x="1249" y="1204" on="1"/>
        <pt x="1249" y="782" on="1"/>
        <pt x="1536" y="782" on="1"/>
        <pt x="1570" y="914" on="1"/>
        <pt x="1689" y="894" on="1"/>
        <pt x="1689" y="520" on="1"/>
        <pt x="1570" y="500" on="1"/>
        <pt x="1536" y="633" on="1"/>
      </contour>
      <contour>
        <pt x="697" y="1226" on="1"/>
        <pt x="642" y="1226" on="0"/>
        <pt x="550" y="1205" on="0"/>
        <pt x="516" y="1192" on="1"/>
        <pt x="476" y="1177" on="0"/>
        <pt x="445" y="1158" on="1"/>
        <pt x="428" y="1096" on="0"/>
        <pt x="415" y="1024" on="1"/>
        <pt x="404" y="961" on="0"/>
        <pt x="386" y="797" on="0"/>
        <pt x="386" y="703" on="1"/>
        <pt x="386" y="570" on="1"/>
        <pt x="386" y="455" on="0"/>
        <pt x="443" y="288" on="0"/>
        <pt x="540" y="179" on="0"/>
        <pt x="667" y="127" on="0"/>
        <pt x="737" y="127" on="1"/>
        <pt x="806" y="127" on="0"/>
        <pt x="916" y="148" on="0"/>
        <pt x="949" y="158" on="1"/>
        <pt x="949" y="1186" on="1"/>
        <pt x="851" y="1226" on="0"/>
      </contour>
    </TTGlyph>
    <TTGlyph name="Oacute" xMin="86" yMin="-22" xMax="1347" yMax="1784">
      <component glyphName="O" x="0" y="0" flags="0x204"/>
      <component glyphName="acute.case" x="487" y="0" flags="0x4"/>
    </TTGlyph>
    <TTGlyph name="Obreve" xMin="86" yMin="-22" xMax="1347" yMax="1759">
      <component glyphName="O" x="0" y="0" flags="0x204"/>
      <component glyphName="breve.case" x="442" y="0" flags="0x4"/>
    </TTGlyph>
    <TTGlyph name="Ocircumflex" xMin="86" yMin="-22" xMax="1347" yMax="1794">
      <component glyphName="O" x="0" y="0" flags="0x204"/>
      <component glyphName="circumflex.case" x="432" y="0" flags="0x4"/>
    </TTGlyph>
    <TTGlyph name="Odieresis" xMin="86" yMin="-22" xMax="1347" yMax="1728">
      <component glyphName="O" x="0" y="0" flags="0x204"/>
      <component glyphName="dieresis.case" x="433" y="0" flags="0x4"/>
    </TTGlyph>
    <TTGlyph name="Ograve" xMin="86" yMin="-22" xMax="1347" yMax="1784">
      <component glyphName="O" x="0" y="0" flags="0x204"/>
      <component glyphName="grave.case" x="264" y="0" flags="0x4"/>
    </TTGlyph>
    <TTGlyph name="Ohorn" xMin="86" yMin="-22" xMax="1640" yMax="1589">
      <contour>
        <pt x="1553" y="1589" on="1"/>
        <pt x="1601" y="1529" on="0"/>
        <pt x="1640" y="1421" on="0"/>
        <pt x="1640" y="1376" on="1"/>
        <pt x="1640" y="1314" on="0"/>
        <pt x="1592" y="1211" on="0"/>
        <pt x="1481" y="1120" on="0"/>
        <pt x="1388" y="1078" on="1"/>
        <pt x="1354" y="1063" on="0"/>
        <pt x="1315" y="1047" on="1"/>
        <pt x="1347" y="951" on="0"/>
        <pt x="1347" y="827" on="1"/>
        <pt x="1347" y="749" on="1"/>
        <pt x="1347" y="364" on="0"/>
        <pt x="1021" y="-22" on="0"/>
        <pt x="695" y="-22" on="1"/>
        <pt x="392" y="-22" on="0"/>
        <pt x="86" y="252" on="0"/>
        <pt x="86" y="525" on="1"/>
        <pt x="86" y="604" on="1"/>
        <pt x="86" y="998" on="0"/>
        <pt x="418" y="1375" on="0"/>
        <pt x="734" y="1375" on="1"/>
        <pt x="1036" y="1375" on="0"/>
        <pt x="1191" y="1238" on="1"/>
        <pt x="1230" y="1204" on="0"/>
        <pt x="1259" y="1161" on="1"/>
        <pt x="1269" y="1167" on="0"/>
        <pt x="1279" y="1172" on="1"/>
        <pt x="1327" y="1197" on="0"/>
        <pt x="1385" y="1248" on="0"/>
        <pt x="1410" y="1304" on="0"/>
        <pt x="1410" y="1340" on="1"/>
        <pt x="1410" y="1373" on="0"/>
        <pt x="1389" y="1429" on="0"/>
        <pt x="1376" y="1449" on="1"/>
        <pt x="1361" y="1473" on="0"/>
        <pt x="1343" y="1492" on="1"/>
        <pt x="1343" y="1532" on="1"/>
      </contour>
      <contour>
        <pt x="1047" y="783" on="1"/>
        <pt x="1047" y="1000" on="0"/>
        <pt x="870" y="1226" on="0"/>
        <pt x="697" y="1226" on="1"/>
        <pt x="622" y="1226" on="0"/>
        <pt x="487" y="1186" on="0"/>
        <pt x="445" y="1158" on="1"/>
        <pt x="427" y="1094" on="0"/>
        <pt x="386" y="836" on="0"/>
        <pt x="386" y="703" on="1"/>
        <pt x="386" y="570" on="1"/>
        <pt x="386" y="361" on="0"/>
        <pt x="581" y="127" on="0"/>
        <pt x="737" y="127" on="1"/>
        <pt x="817" y="127" on="0"/>
        <pt x="956" y="171" on="0"/>
        <pt x="989" y="196" on="1"/>
        <pt x="1010" y="271" on="0"/>
        <pt x="1047" y="528" on="0"/>
        <pt x="1047" y="650" on="1"/>
      </contour>
    </TTGlyph>
    <TTGlyph name="Ohungarumlaut" xMin="86" yMin="-22" xMax="1393" yMax="1784">
      <component glyphName="O" x="0" y="0" flags="0x204"/>
      <component glyphName="hungarumlaut.case" x="570" y="0" flags="0x4"/>
    </TTGlyph>
    <TTGlyph name="Omacron" xMin="86" yMin="-22" xMax="1347" yMax="1690">
      <component glyphName="O" x="0" y="0" flags="0x204"/>
      <component glyphName="macron.case" x="433" y="0" flags="0x4"/>
    </TTGlyph>
    <TTGlyph name="Oslash" xMin="86" yMin="-230" xMax="1347" yMax="1540">
      <contour>
        <pt x="695" y="-22" on="1"/>
        <pt x="648" y="-22" on="0"/>
        <pt x="606" y="-19" on="1"/>
        <pt x="540" y="-230" on="1"/>
        <pt x="345" y="-230" on="1"/>
        <pt x="345" y="-210" on="1"/>
        <pt x="416" y="17" on="1"/>
        <pt x="251" y="71" on="0"/>
        <pt x="86" y="324" on="0"/>
        <pt x="86" y="525" on="1"/>
        <pt x="86" y="604" on="1"/>
        <pt x="86" y="792" on="0"/>
        <pt x="164" y="1080" on="0"/>
        <pt x="324" y="1275" on="0"/>
        <pt x="568" y="1375" on="0"/>
        <pt x="734" y="1375" on="1"/>
        <pt x="762" y="1375" on="0"/>
        <pt x="814" y="1372" on="0"/>
        <pt x="840" y="1370" on="1"/>
        <pt x="893" y="1540" on="1"/>
        <pt x="1088" y="1540" on="1"/>
        <pt x="1088" y="1520" on="1"/>
        <pt x="1029" y="1331" on="1"/>
        <pt x="1187" y="1275" on="0"/>
        <pt x="1347" y="1025" on="0"/>
        <pt x="1347" y="827" on="1"/>
        <pt x="1347" y="749" on="1"/>
        <pt x="1347" y="560" on="0"/>
        <pt x="1268" y="272" on="0"/>
        <pt x="1107" y="77" on="0"/>
        <pt x="861" y="-22" on="0"/>
      </contour>
      <contour>
        <pt x="697" y="1226" on="1"/>
        <pt x="637" y="1226" on="0"/>
        <pt x="544" y="1205" on="0"/>
        <pt x="512" y="1192" on="1"/>
        <pt x="474" y="1177" on="0"/>
        <pt x="445" y="1158" on="1"/>
        <pt x="428" y="1096" on="0"/>
        <pt x="415" y="1024" on="1"/>
        <pt x="404" y="961" on="0"/>
        <pt x="386" y="797" on="0"/>
        <pt x="386" y="703" on="1"/>
        <pt x="386" y="570" on="1"/>
        <pt x="386" y="458" on="0"/>
        <pt x="440" y="294" on="0"/>
        <pt x="486" y="240" on="1"/>
        <pt x="791" y="1216" on="1"/>
        <pt x="768" y="1221" on="0"/>
        <pt x="721" y="1226" on="0"/>
      </contour>
      <contour>
        <pt x="1047" y="783" on="1"/>
        <pt x="1047" y="898" on="0"/>
        <pt x="1001" y="1059" on="0"/>
        <pt x="960" y="1111" on="1"/>
        <pt x="654" y="136" on="1"/>
        <pt x="694" y="127" on="0"/>
        <pt x="737" y="127" on="1"/>
        <pt x="796" y="127" on="0"/>
        <pt x="888" y="148" on="0"/>
        <pt x="921" y="161" on="1"/>
        <pt x="959" y="176" on="0"/>
        <pt x="989" y="196" on="1"/>
        <pt x="1005" y="259" on="0"/>
        <pt x="1018" y="332" on="1"/>
        <pt x="1029" y="395" on="0"/>
        <pt x="1047" y="558" on="0"/>
        <pt x="1047" y="650" on="1"/>
      </contour>
    </TTGlyph>
    <TTGlyph name="Oslashacute" xMin="86" yMin="-230" xMax="1347" yMax="1784">
      <component glyphName="Oslash" x="0" y="0" flags="0x204"/>
      <component glyphName="acute.case" x="531" y="0" flags="0x4"/>
    </TTGlyph>
    <TTGlyph name="Otilde" xMin="86" yMin="-22" xMax="1347" yMax="1777">
      <component glyphName="O" x="0" y="0" flags="0x204"/>
      <component glyphName="tilde.case" x="436" y="0" flags="0x4"/>
    </TTGlyph>
    <TTGlyph name="P" xMin="70" yMin="0" xMax="1158" yMax="1353">
      <contour>
        <pt x="213" y="1201" on="1"/>
        <pt x="70" y="1235" on="1"/>
        <pt x="90" y="1353" on="1"/>
        <pt x="665" y="1353" on="1"/>
        <pt x="911" y="1353" on="0"/>
        <pt x="1158" y="1173" on="0"/>
        <pt x="1158" y="997" on="1"/>
        <pt x="1158" y="808" on="0"/>
        <pt x="893" y="591" on="0"/>
        <pt x="686" y="591" on="1"/>
        <pt x="513" y="591" on="1"/>
        <pt x="513" y="152" on="1"/>
        <pt x="725" y="118" on="1"/>
        <pt x="705" y="0" on="1"/>
        <pt x="90" y="0" on="1"/>
        <pt x="70" y="118" on="1"/>
        <pt x="213" y="152" on="1"/>
      </contour>
      <contour>
        <pt x="513" y="1204" on="1"/>
        <pt x="513" y="740" on="1"/>
        <pt x="623" y="740" on="1"/>
        <pt x="681" y="740" on="0"/>
        <pt x="794" y="757" on="0"/>
        <pt x="826" y="768" on="1"/>
        <pt x="839" y="807" on="0"/>
        <pt x="854" y="917" on="0"/>
        <pt x="854" y="968" on="1"/>
        <pt x="854" y="1088" on="0"/>
        <pt x="721" y="1204" on="0"/>
        <pt x="593" y="1204" on="1"/>
      </contour>
    </TTGlyph>
    <TTGlyph name="Q" xMin="74" yMin="-194" xMax="1390" yMax="1375">
      <contour>
        <pt x="683" y="-22" on="1"/>
        <pt x="381" y="-22" on="0"/>
        <pt x="74" y="253" on="0"/>
        <pt x="74" y="525" on="1"/>
        <pt x="74" y="604" on="1"/>
        <pt x="74" y="990" on="0"/>
        <pt x="399" y="1375" on="0"/>
        <pt x="722" y="1375" on="1"/>
        <pt x="1024" y="1375" on="0"/>
        <pt x="1335" y="1101" on="0"/>
        <pt x="1335" y="827" on="1"/>
        <pt x="1335" y="749" on="1"/>
        <pt x="1335" y="517" on="0"/>
        <pt x="1218" y="193" on="0"/>
        <pt x="1097" y="99" on="1"/>
        <pt x="1144" y="10" on="0"/>
        <pt x="1221" y="-45" on="0"/>
        <pt x="1271" y="-45" on="1"/>
        <pt x="1295" y="-45" on="0"/>
        <pt x="1366" y="-30" on="0"/>
        <pt x="1390" y="-20" on="1"/>
        <pt x="1390" y="-140" on="1"/>
        <pt x="1351" y="-163" on="0"/>
        <pt x="1226" y="-194" on="0"/>
        <pt x="1163" y="-194" on="1"/>
        <pt x="1057" y="-194" on="0"/>
        <pt x="911" y="-108" on="0"/>
        <pt x="863" y="-11" on="1"/>
        <pt x="860" y="-5" on="1"/>
        <pt x="777" y="-22" on="0"/>
      </contour>
      <contour>
        <pt x="1035" y="783" on="1"/>
        <pt x="1035" y="1005" on="0"/>
        <pt x="856" y="1226" on="0"/>
        <pt x="685" y="1226" on="1"/>
        <pt x="613" y="1226" on="0"/>
        <pt x="477" y="1187" on="0"/>
        <pt x="433" y="1158" on="1"/>
        <pt x="411" y="1077" on="0"/>
        <pt x="374" y="820" on="0"/>
        <pt x="374" y="703" on="1"/>
        <pt x="374" y="570" on="1"/>
        <pt x="374" y="545" on="0"/>
        <pt x="376" y="499" on="0"/>
        <pt x="379" y="478" on="1"/>
        <pt x="407" y="533" on="0"/>
        <pt x="527" y="595" on="0"/>
        <pt x="600" y="595" on="1"/>
        <pt x="728" y="595" on="0"/>
        <pt x="917" y="466" on="0"/>
        <pt x="988" y="323" on="1"/>
        <pt x="1000" y="298" on="1"/>
        <pt x="1012" y="362" on="0"/>
        <pt x="1035" y="551" on="0"/>
        <pt x="1035" y="650" on="1"/>
      </contour>
      <contour>
        <pt x="433" y="353" on="1"/>
        <pt x="433" y="327" on="0"/>
        <pt x="443" y="283" on="0"/>
        <pt x="457" y="262" on="1"/>
        <pt x="507" y="193" on="0"/>
        <pt x="648" y="127" on="0"/>
        <pt x="725" y="127" on="1"/>
        <pt x="743" y="127" on="0"/>
        <pt x="777" y="129" on="0"/>
        <pt x="793" y="131" on="1"/>
        <pt x="749" y="223" on="1"/>
        <pt x="695" y="334" on="0"/>
        <pt x="589" y="446" on="0"/>
        <pt x="530" y="446" on="1"/>
        <pt x="482" y="446" on="0"/>
        <pt x="433" y="390" on="0"/>
      </contour>
    </TTGlyph>
    <TTGlyph name="R" xMin="70" yMin="0" xMax="1265" yMax="1353">
      <contour>
        <pt x="213" y="1201" on="1"/>
        <pt x="70" y="1235" on="1"/>
        <pt x="90" y="1353" on="1"/>
        <pt x="649" y="1353" on="1"/>
        <pt x="874" y="1353" on="0"/>
        <pt x="1120" y="1168" on="0"/>
        <pt x="1120" y="987" on="1"/>
        <pt x="1120" y="867" on="0"/>
        <pt x="1006" y="696" on="0"/>
        <pt x="896" y="644" on="1"/>
        <pt x="890" y="625" on="1"/>
        <pt x="1142" y="153" on="1"/>
        <pt x="1265" y="118" on="1"/>
        <pt x="1245" y="0" on="1"/>
        <pt x="936" y="0" on="1"/>
        <pt x="626" y="591" on="1"/>
        <pt x="513" y="591" on="1"/>
        <pt x="513" y="152" on="1"/>
        <pt x="655" y="118" on="1"/>
        <pt x="635" y="0" on="1"/>
        <pt x="90" y="0" on="1"/>
        <pt x="70" y="118" on="1"/>
        <pt x="213" y="152" on="1"/>
      </contour>
      <contour>
        <pt x="513" y="1204" on="1"/>
        <pt x="513" y="740" on="1"/>
        <pt x="586" y="740" on="1"/>
        <pt x="656" y="740" on="0"/>
        <pt x="760" y="754" on="0"/>
        <pt x="790" y="767" on="1"/>
        <pt x="802" y="808" on="0"/>
        <pt x="816" y="915" on="0"/>
        <pt x="816" y="969" on="1"/>
        <pt x="816" y="1105" on="0"/>
        <pt x="692" y="1204" on="0"/>
        <pt x="564" y="1204" on="1"/>
      </contour>
    </TTGlyph>
    <TTGlyph name="Racute" xMin="70" yMin="0" xMax="1265" yMax="1784">
      <component glyphName="R" x="0" y="0" flags="0x204"/>
      <component glyphName="acute.case" x="338" y="0" flags="0x4"/>
    </TTGlyph>
    <TTGlyph name="Rcaron" xMin="70" yMin="0" xMax="1265" yMax="1794">
      <component glyphName="R" x="0" y="0" flags="0x204"/>
      <component glyphName="caron.case" x="275" y="0" flags="0x4"/>
    </TTGlyph>
    <TTGlyph name="Rcommaaccent" xMin="70" yMin="-511" xMax="1265" yMax="1353">
      <component glyphName="R" x="0" y="0" flags="0x204"/>
      <component glyphName="uni0326" x="1051" y="0" flags="0x4"/>
    </TTGlyph>
    <TTGlyph name="S" xMin="79" yMin="-22" xMax="1070" yMax="1375">
      <contour>
        <pt x="664" y="813" on="1"/>
        <pt x="895" y="683" on="0"/>
        <pt x="1070" y="486" on="0"/>
        <pt x="1070" y="345" on="1"/>
        <pt x="1070" y="170" on="0"/>
        <pt x="778" y="-22" on="0"/>
        <pt x="525" y="-22" on="1"/>
        <pt x="409" y="-22" on="0"/>
        <pt x="195" y="12" on="0"/>
        <pt x="120" y="41" on="1"/>
        <pt x="99" y="320" on="1"/>
        <pt x="266" y="345" on="1"/>
        <pt x="350" y="148" on="1"/>
        <pt x="391" y="138" on="0"/>
        <pt x="490" y="127" on="0"/>
        <pt x="540" y="127" on="1"/>
        <pt x="593" y="127" on="0"/>
        <pt x="699" y="143" on="0"/>
        <pt x="740" y="155" on="1"/>
        <pt x="752" y="179" on="0"/>
        <pt x="770" y="251" on="0"/>
        <pt x="770" y="286" on="1"/>
        <pt x="770" y="366" on="0"/>
        <pt x="644" y="486" on="0"/>
        <pt x="477" y="586" on="1"/>
        <pt x="222" y="733" on="0"/>
        <pt x="80" y="913" on="0"/>
        <pt x="79" y="1034" on="1"/>
        <pt x="79" y="1196" on="0"/>
        <pt x="362" y="1375" on="0"/>
        <pt x="611" y="1375" on="1"/>
        <pt x="712" y="1375" on="0"/>
        <pt x="907" y="1347" on="0"/>
        <pt x="983" y="1323" on="1"/>
        <pt x="1004" y="1033" on="1"/>
        <pt x="849" y="1011" on="1"/>
        <pt x="766" y="1208" on="1"/>
        <pt x="727" y="1217" on="0"/>
        <pt x="638" y="1226" on="0"/>
        <pt x="595" y="1226" on="1"/>
        <pt x="545" y="1226" on="0"/>
        <pt x="445" y="1212" on="0"/>
        <pt x="398" y="1198" on="1"/>
        <pt x="390" y="1172" on="0"/>
        <pt x="379" y="1108" on="0"/>
        <pt x="379" y="1079" on="1"/>
        <pt x="379" y="1016" on="0"/>
        <pt x="478" y="922" on="0"/>
      </contour>
    </TTGlyph>
    <TTGlyph name="Sacute" xMin="79" yMin="-22" xMax="1070" yMax="1784">
      <component glyphName="S" x="0" y="0" flags="0x204"/>
      <component glyphName="acute.case" x="369" y="0" flags="0x4"/>
    </TTGlyph>
    <TTGlyph name="Scaron" xMin="79" yMin="-22" xMax="1070" yMax="1794">
      <component glyphName="S" x="0" y="0" flags="0x204"/>
      <component glyphName="caron.case" x="306" y="0" flags="0x4"/>
    </TTGlyph>
    <TTGlyph name="Scedilla" xMin="79" yMin="-457" xMax="1070" yMax="1375">
      <contour>
        <pt x="664" y="813" on="1"/>
        <pt x="895" y="683" on="0"/>
        <pt x="1070" y="486" on="0"/>
        <pt x="1070" y="345" on="1"/>
        <pt x="1070" y="170" on="0"/>
        <pt x="924" y="74" on="1"/>
        <pt x="808" y="-2" on="0"/>
        <pt x="624" y="-18" on="1"/>
        <pt x="594" y="-95" on="1"/>
        <pt x="641" y="-104" on="0"/>
        <pt x="717" y="-132" on="0"/>
        <pt x="770" y="-175" on="0"/>
        <pt x="799" y="-234" on="0"/>
        <pt x="799" y="-275" on="1"/>
        <pt x="799" y="-315" on="0"/>
        <pt x="764" y="-382" on="0"/>
        <pt x="699" y="-430" on="0"/>
        <pt x="607" y="-457" on="0"/>
        <pt x="551" y="-457" on="1"/>
        <pt x="505" y="-457" on="0"/>
        <pt x="429" y="-443" on="0"/>
        <pt x="401" y="-434" on="1"/>
        <pt x="368" y="-423" on="0"/>
        <pt x="341" y="-410" on="1"/>
        <pt x="341" y="-297" on="1"/>
        <pt x="369" y="-308" on="0"/>
        <pt x="400" y="-317" on="1"/>
        <pt x="426" y="-325" on="0"/>
        <pt x="490" y="-337" on="0"/>
        <pt x="522" y="-337" on="1"/>
        <pt x="559" y="-337" on="0"/>
        <pt x="580" y="-334" on="1"/>
        <pt x="591" y="-332" on="0"/>
        <pt x="601" y="-330" on="1"/>
        <pt x="602" y="-323" on="0"/>
        <pt x="604" y="-315" on="1"/>
        <pt x="606" y="-308" on="0"/>
        <pt x="608" y="-293" on="0"/>
        <pt x="608" y="-285" on="1"/>
        <pt x="608" y="-268" on="0"/>
        <pt x="594" y="-241" on="0"/>
        <pt x="560" y="-220" on="0"/>
        <pt x="504" y="-203" on="0"/>
        <pt x="461" y="-196" on="1"/>
        <pt x="415" y="-124" on="1"/>
        <pt x="453" y="-20" on="1"/>
        <pt x="375" y="-16" on="0"/>
        <pt x="302" y="-5" on="1"/>
        <pt x="195" y="12" on="0"/>
        <pt x="120" y="41" on="1"/>
        <pt x="99" y="320" on="1"/>
        <pt x="266" y="345" on="1"/>
        <pt x="350" y="148" on="1"/>
        <pt x="391" y="138" on="0"/>
        <pt x="490" y="127" on="0"/>
        <pt x="540" y="127" on="1"/>
        <pt x="593" y="127" on="0"/>
        <pt x="699" y="143" on="0"/>
        <pt x="740" y="155" on="1"/>
        <pt x="752" y="179" on="0"/>
        <pt x="770" y="251" on="0"/>
        <pt x="770" y="286" on="1"/>
        <pt x="770" y="366" on="0"/>
        <pt x="644" y="486" on="0"/>
        <pt x="477" y="586" on="1"/>
        <pt x="222" y="733" on="0"/>
        <pt x="80" y="913" on="0"/>
        <pt x="79" y="1034" on="1"/>
        <pt x="79" y="1196" on="0"/>
        <pt x="362" y="1375" on="0"/>
        <pt x="611" y="1375" on="1"/>
        <pt x="712" y="1375" on="0"/>
        <pt x="907" y="1347" on="0"/>
        <pt x="983" y="1323" on="1"/>
        <pt x="1004" y="1033" on="1"/>
        <pt x="849" y="1011" on="1"/>
        <pt x="766" y="1208" on="1"/>
        <pt x="727" y="1217" on="0"/>
        <pt x="638" y="1226" on="0"/>
        <pt x="595" y="1226" on="1"/>
        <pt x="545" y="1226" on="0"/>
        <pt x="445" y="1212" on="0"/>
        <pt x="398" y="1198" on="1"/>
        <pt x="390" y="1172" on="0"/>
        <pt x="379" y="1108" on="0"/>
        <pt x="379" y="1079" on="1"/>
        <pt x="379" y="1016" on="0"/>
        <pt x="478" y="922" on="0"/>
      </contour>
    </TTGlyph>
    <TTGlyph name="Scircumflex" xMin="79" yMin="-22" xMax="1070" yMax="1794">
      <component glyphName="S" x="0" y="0" flags="0x204"/>
      <component glyphName="circumflex.case" x="314" y="0" flags="0x4"/>
    </TTGlyph>
    <TTGlyph name="Scommaaccent" xMin="79" yMin="-511" xMax="1070" yMax="1375">
      <component glyphName="S" x="0" y="0" flags="0x204"/>
      <component glyphName="uni0326" x="931" y="0" flags="0x4"/>
    </TTGlyph>
    <TTGlyph name="T" xMin="8" yMin="0" xMax="1199" yMax="1353">
      <contour>
        <pt x="454" y="1204" on="1"/>
        <pt x="219" y="1204" on="1"/>
        <pt x="157" y="1034" on="1"/>
        <pt x="8" y="1043" on="1"/>
        <pt x="23" y="1353" on="1"/>
        <pt x="1185" y="1353" on="1"/>
        <pt x="1199" y="1043" on="1"/>
        <pt x="1051" y="1034" on="1"/>
        <pt x="988" y="1204" on="1"/>
        <pt x="754" y="1204" on="1"/>
        <pt x="754" y="152" on="1"/>
        <pt x="897" y="118" on="1"/>
        <pt x="877" y="0" on="1"/>
        <pt x="331" y="0" on="1"/>
        <pt x="311" y="118" on="1"/>
        <pt x="454" y="152" on="1"/>
      </contour>
    </TTGlyph>
    <TTGlyph name="Tbar" xMin="8" yMin="0" xMax="1139" yMax="1353">
      <contour>
        <pt x="180" y="706" on="1"/>
        <pt x="424" y="706" on="1"/>
        <pt x="424" y="1204" on="1"/>
        <pt x="219" y="1204" on="1"/>
        <pt x="157" y="1034" on="1"/>
        <pt x="8" y="1043" on="1"/>
        <pt x="23" y="1353" on="1"/>
        <pt x="1125" y="1353" on="1"/>
        <pt x="1139" y="1043" on="1"/>
        <pt x="991" y="1034" on="1"/>
        <pt x="928" y="1204" on="1"/>
        <pt x="724" y="1204" on="1"/>
        <pt x="724" y="706" on="1"/>
        <pt x="958" y="706" on="1"/>
        <pt x="958" y="549" on="1"/>
        <pt x="724" y="549" on="1"/>
        <pt x="724" y="152" on="1"/>
        <pt x="867" y="118" on="1"/>
        <pt x="847" y="0" on="1"/>
        <pt x="301" y="0" on="1"/>
        <pt x="281" y="118" on="1"/>
        <pt x="424" y="152" on="1"/>
        <pt x="424" y="549" on="1"/>
        <pt x="180" y="549" on="1"/>
      </contour>
    </TTGlyph>
    <TTGlyph name="Tcaron" xMin="8" yMin="0" xMax="1199" yMax="1794">
      <component glyphName="T" x="0" y="0" flags="0x204"/>
      <component glyphName="caron.case" x="317" y="0" flags="0x4"/>
    </TTGlyph>
    <TTGlyph name="Tcommaaccent" xMin="-32" yMin="-457" xMax="1099" yMax="1353">
      <contour>
        <pt x="384" y="1204" on="1"/>
        <pt x="179" y="1204" on="1"/>
        <pt x="117" y="1034" on="1"/>
        <pt x="-32" y="1043" on="1"/>
        <pt x="-17" y="1353" on="1"/>
        <pt x="1085" y="1353" on="1"/>
        <pt x="1099" y="1043" on="1"/>
        <pt x="951" y="1034" on="1"/>
        <pt x="888" y="1204" on="1"/>
        <pt x="684" y="1204" on="1"/>
        <pt x="684" y="152" on="1"/>
        <pt x="827" y="118" on="1"/>
        <pt x="807" y="0" on="1"/>
        <pt x="603" y="0" on="1"/>
        <pt x="566" y="-95" on="1"/>
        <pt x="613" y="-104" on="0"/>
        <pt x="689" y="-132" on="0"/>
        <pt x="742" y="-175" on="0"/>
        <pt x="771" y="-234" on="0"/>
        <pt x="771" y="-275" on="1"/>
        <pt x="771" y="-315" on="0"/>
        <pt x="736" y="-382" on="0"/>
        <pt x="671" y="-430" on="0"/>
        <pt x="579" y="-457" on="0"/>
        <pt x="523" y="-457" on="1"/>
        <pt x="477" y="-457" on="0"/>
        <pt x="401" y="-443" on="0"/>
        <pt x="373" y="-434" on="1"/>
        <pt x="340" y="-423" on="0"/>
        <pt x="313" y="-410" on="1"/>
        <pt x="313" y="-297" on="1"/>
        <pt x="341" y="-308" on="0"/>
        <pt x="372" y="-317" on="1"/>
        <pt x="398" y="-325" on="0"/>
        <pt x="462" y="-337" on="0"/>
        <pt x="494" y="-337" on="1"/>
        <pt x="531" y="-337" on="0"/>
        <pt x="552" y="-334" on="1"/>
        <pt x="563" y="-332" on="0"/>
        <pt x="573" y="-330" on="1"/>
        <pt x="574" y="-323" on="0"/>
        <pt x="576" y="-315" on="1"/>
        <pt x="578" y="-308" on="0"/>
        <pt x="580" y="-293" on="0"/>
        <pt x="580" y="-285" on="1"/>
        <pt x="580" y="-268" on="0"/>
        <pt x="566" y="-241" on="0"/>
        <pt x="532" y="-220" on="0"/>
        <pt x="476" y="-203" on="0"/>
        <pt x="433" y="-196" on="1"/>
        <pt x="387" y="-124" on="1"/>
        <pt x="432" y="0" on="1"/>
        <pt x="261" y="0" on="1"/>
        <pt x="241" y="118" on="1"/>
        <pt x="384" y="152" on="1"/>
      </contour>
    </TTGlyph>
    <TTGlyph name="Thorn" xMin="7" yMin="0" xMax="1080" yMax="1353">
      <contour>
        <pt x="170" y="1201" on="1"/>
        <pt x="7" y="1235" on="1"/>
        <pt x="27" y="1353" on="1"/>
        <pt x="612" y="1353" on="1"/>
        <pt x="632" y="1235" on="1"/>
        <pt x="470" y="1201" on="1"/>
        <pt x="470" y="1085" on="1"/>
        <pt x="587" y="1085" on="1"/>
        <pt x="702" y="1085" on="0"/>
        <pt x="885" y="1044" on="0"/>
        <pt x="1013" y="959" on="0"/>
        <pt x="1080" y="829" on="0"/>
        <pt x="1080" y="740" on="1"/>
        <pt x="1080" y="639" on="0"/>
        <pt x="1003" y="483" on="0"/>
        <pt x="873" y="377" on="0"/>
        <pt x="702" y="323" on="0"/>
        <pt x="608" y="323" on="1"/>
        <pt x="470" y="323" on="1"/>
        <pt x="470" y="152" on="1"/>
        <pt x="692" y="118" on="1"/>
        <pt x="672" y="0" on="1"/>
        <pt x="27" y="0" on="1"/>
        <pt x="7" y="118" on="1"/>
        <pt x="170" y="152" on="1"/>
      </contour>
      <contour>
        <pt x="470" y="936" on="1"/>
        <pt x="470" y="472" on="1"/>
        <pt x="545" y="472" on="1"/>
        <pt x="590" y="472" on="0"/>
        <pt x="664" y="481" on="0"/>
        <pt x="691" y="486" on="1"/>
        <pt x="723" y="492" on="0"/>
        <pt x="748" y="500" on="1"/>
        <pt x="756" y="529" on="0"/>
        <pt x="762" y="562" on="1"/>
        <pt x="767" y="590" on="0"/>
        <pt x="776" y="662" on="0"/>
        <pt x="776" y="700" on="1"/>
        <pt x="776" y="752" on="0"/>
        <pt x="749" y="839" on="0"/>
        <pt x="687" y="901" on="0"/>
        <pt x="587" y="936" on="0"/>
        <pt x="515" y="936" on="1"/>
      </contour>
    </TTGlyph>
    <TTGlyph name="U" xMin="0" yMin="-22" xMax="1396" yMax="1353">
      <contour>
        <pt x="444" y="546" on="1"/>
        <pt x="444" y="338" on="0"/>
        <pt x="602" y="127" on="0"/>
        <pt x="747" y="127" on="1"/>
        <pt x="820" y="127" on="0"/>
        <pt x="948" y="160" on="0"/>
        <pt x="985" y="183" on="1"/>
        <pt x="1018" y="245" on="0"/>
        <pt x="1063" y="424" on="0"/>
        <pt x="1063" y="521" on="1"/>
        <pt x="1063" y="1201" on="1"/>
        <pt x="920" y="1235" on="1"/>
        <pt x="940" y="1353" on="1"/>
        <pt x="1376" y="1353" on="1"/>
        <pt x="1396" y="1235" on="1"/>
        <pt x="1254" y="1201" on="1"/>
        <pt x="1254" y="544" on="1"/>
        <pt x="1254" y="258" on="0"/>
        <pt x="982" y="-22" on="0"/>
        <pt x="698" y="-22" on="1"/>
        <pt x="411" y="-22" on="0"/>
        <pt x="144" y="236" on="0"/>
        <pt x="144" y="491" on="1"/>
        <pt x="144" y="1201" on="1"/>
        <pt x="0" y="1235" on="1"/>
        <pt x="20" y="1353" on="1"/>
        <pt x="566" y="1353" on="1"/>
        <pt x="586" y="1235" on="1"/>
        <pt x="444" y="1201" on="1"/>
      </contour>
    </TTGlyph>
    <TTGlyph name="Uacute" xMin="0" yMin="-22" xMax="1396" yMax="1784">
      <component glyphName="U" x="0" y="0" flags="0x204"/>
      <component glyphName="acute.case" x="534" y="0" flags="0x4"/>
    </TTGlyph>
    <TTGlyph name="Ubreve" xMin="0" yMin="-22" xMax="1396" yMax="1759">
      <component glyphName="U" x="0" y="0" flags="0x204"/>
      <component glyphName="breve.case" x="489" y="0" flags="0x4"/>
    </TTGlyph>
    <TTGlyph name="Ucircumflex" xMin="0" yMin="-22" xMax="1396" yMax="1794">
      <component glyphName="U" x="0" y="0" flags="0x204"/>
      <component glyphName="circumflex.case" x="479" y="0" flags="0x4"/>
    </TTGlyph>
    <TTGlyph name="Udieresis" xMin="0" yMin="-22" xMax="1396" yMax="1728">
      <component glyphName="U" x="0" y="0" flags="0x204"/>
      <component glyphName="dieresis.case" x="480" y="0" flags="0x4"/>
    </TTGlyph>
    <TTGlyph name="Ugrave" xMin="0" yMin="-22" xMax="1396" yMax="1784">
      <component glyphName="U" x="0" y="0" flags="0x204"/>
      <component glyphName="grave.case" x="311" y="0" flags="0x4"/>
    </TTGlyph>
    <TTGlyph name="Uhorn" xMin="-34" yMin="-22" xMax="1649" yMax="1589">
      <contour>
        <pt x="1562" y="1589" on="1"/>
        <pt x="1610" y="1529" on="0"/>
        <pt x="1649" y="1421" on="0"/>
        <pt x="1649" y="1376" on="1"/>
        <pt x="1649" y="1314" on="0"/>
        <pt x="1601" y="1211" on="0"/>
        <pt x="1490" y="1120" on="0"/>
        <pt x="1397" y="1078" on="1"/>
        <pt x="1323" y="1045" on="0"/>
        <pt x="1220" y="1011" on="1"/>
        <pt x="1220" y="544" on="1"/>
        <pt x="1220" y="258" on="0"/>
        <pt x="948" y="-22" on="0"/>
        <pt x="664" y="-22" on="1"/>
        <pt x="377" y="-22" on="0"/>
        <pt x="110" y="236" on="0"/>
        <pt x="110" y="491" on="1"/>
        <pt x="110" y="1201" on="1"/>
        <pt x="-34" y="1235" on="1"/>
        <pt x="-14" y="1353" on="1"/>
        <pt x="532" y="1353" on="1"/>
        <pt x="552" y="1235" on="1"/>
        <pt x="410" y="1201" on="1"/>
        <pt x="410" y="546" on="1"/>
        <pt x="410" y="338" on="0"/>
        <pt x="568" y="127" on="0"/>
        <pt x="713" y="127" on="1"/>
        <pt x="786" y="127" on="0"/>
        <pt x="914" y="160" on="0"/>
        <pt x="951" y="183" on="1"/>
        <pt x="984" y="245" on="0"/>
        <pt x="1029" y="424" on="0"/>
        <pt x="1029" y="521" on="1"/>
        <pt x="1029" y="1201" on="1"/>
        <pt x="886" y="1235" on="1"/>
        <pt x="906" y="1353" on="1"/>
        <pt x="1342" y="1353" on="1"/>
        <pt x="1362" y="1235" on="1"/>
        <pt x="1220" y="1201" on="1"/>
        <pt x="1220" y="1139" on="1"/>
        <pt x="1258" y="1156" on="0"/>
        <pt x="1288" y="1172" on="1"/>
        <pt x="1336" y="1197" on="0"/>
        <pt x="1394" y="1248" on="0"/>
        <pt x="1419" y="1304" on="0"/>
        <pt x="1419" y="1340" on="1"/>
        <pt x="1419" y="1373" on="0"/>
        <pt x="1398" y="1429" on="0"/>
        <pt x="1385" y="1449" on="1"/>
        <pt x="1370" y="1473" on="0"/>
        <pt x="1352" y="1492" on="1"/>
        <pt x="1352" y="1532" on="1"/>
      </contour>
    </TTGlyph>
    <TTGlyph name="Uhungarumlaut" xMin="0" yMin="-22" xMax="1440" yMax="1784">
      <component glyphName="U" x="0" y="0" flags="0x204"/>
      <component glyphName="hungarumlaut.case" x="617" y="0" flags="0x4"/>
    </TTGlyph>
    <TTGlyph name="Umacron" xMin="0" yMin="-22" xMax="1396" yMax="1690">
      <component glyphName="U" x="0" y="0" flags="0x204"/>
      <component glyphName="macron.case" x="480" y="0" flags="0x4"/>
    </TTGlyph>
    <TTGlyph name="Uogonek" xMin="0" yMin="-457" xMax="1396" yMax="1353">
      <contour>
        <pt x="444" y="546" on="1"/>
        <pt x="444" y="338" on="0"/>
        <pt x="602" y="127" on="0"/>
        <pt x="747" y="127" on="1"/>
        <pt x="820" y="127" on="0"/>
        <pt x="948" y="160" on="0"/>
        <pt x="985" y="183" on="1"/>
        <pt x="1018" y="245" on="0"/>
        <pt x="1063" y="424" on="0"/>
        <pt x="1063" y="521" on="1"/>
        <pt x="1063" y="1201" on="1"/>
        <pt x="920" y="1235" on="1"/>
        <pt x="940" y="1353" on="1"/>
        <pt x="1376" y="1353" on="1"/>
        <pt x="1396" y="1235" on="1"/>
        <pt x="1254" y="1201" on="1"/>
        <pt x="1254" y="544" on="1"/>
        <pt x="1254" y="258" on="0"/>
        <pt x="1118" y="118" on="1"/>
        <pt x="1091" y="90" on="0"/>
        <pt x="1059" y="68" on="1"/>
        <pt x="1059" y="65" on="1"/>
        <pt x="1001" y="25" on="0"/>
        <pt x="912" y="-65" on="0"/>
        <pt x="851" y="-155" on="0"/>
        <pt x="819" y="-240" on="0"/>
        <pt x="819" y="-275" on="1"/>
        <pt x="819" y="-310" on="0"/>
        <pt x="847" y="-337" on="0"/>
        <pt x="878" y="-337" on="1"/>
        <pt x="904" y="-337" on="0"/>
        <pt x="960" y="-312" on="0"/>
        <pt x="983" y="-297" on="1"/>
        <pt x="1010" y="-279" on="0"/>
        <pt x="1036" y="-257" on="1"/>
        <pt x="1036" y="-370" on="1"/>
        <pt x="1008" y="-395" on="0"/>
        <pt x="972" y="-414" on="1"/>
        <pt x="941" y="-431" on="0"/>
        <pt x="856" y="-457" on="0"/>
        <pt x="803" y="-457" on="1"/>
        <pt x="763" y="-457" on="0"/>
        <pt x="699" y="-443" on="0"/>
        <pt x="653" y="-410" on="0"/>
        <pt x="628" y="-353" on="0"/>
        <pt x="628" y="-311" on="1"/>
        <pt x="628" y="-250" on="0"/>
        <pt x="683" y="-134" on="0"/>
        <pt x="737" y="-73" on="1"/>
        <pt x="761" y="-46" on="0"/>
        <pt x="791" y="-18" on="1"/>
        <pt x="747" y="-22" on="0"/>
        <pt x="698" y="-22" on="1"/>
        <pt x="411" y="-22" on="0"/>
        <pt x="144" y="236" on="0"/>
        <pt x="144" y="491" on="1"/>
        <pt x="144" y="1201" on="1"/>
        <pt x="0" y="1235" on="1"/>
        <pt x="20" y="1353" on="1"/>
        <pt x="566" y="1353" on="1"/>
        <pt x="586" y="1235" on="1"/>
        <pt x="444" y="1201" on="1"/>
      </contour>
    </TTGlyph>
    <TTGlyph name="Uring" xMin="0" yMin="-22" xMax="1396" yMax="1799">
      <component glyphName="U" x="0" y="0" flags="0x204"/>
      <component glyphName="ring.case" x="484" y="0" flags="0x4"/>
    </TTGlyph>
    <TTGlyph name="Utilde" xMin="0" yMin="-22" xMax="1396" yMax="1777">
      <component glyphName="U" x="0" y="0" flags="0x204"/>
      <component glyphName="tilde.case" x="483" y="0" flags="0x4"/>
    </TTGlyph>
    <TTGlyph name="V" xMin="-26" yMin="0" xMax="1302" yMax="1353">
      <contour>
        <pt x="520" y="1234" on="1"/>
        <pt x="377" y="1207" on="1"/>
        <pt x="682" y="302" on="1"/>
        <pt x="698" y="302" on="1"/>
        <pt x="1002" y="1206" on="1"/>
        <pt x="859" y="1234" on="1"/>
        <pt x="879" y="1353" on="1"/>
        <pt x="1282" y="1353" on="1"/>
        <pt x="1302" y="1234" on="1"/>
        <pt x="1207" y="1204" on="1"/>
        <pt x="784" y="0" on="1"/>
        <pt x="493" y="0" on="1"/>
        <pt x="69" y="1204" on="1"/>
        <pt x="-26" y="1234" on="1"/>
        <pt x="-6" y="1353" on="1"/>
        <pt x="500" y="1353" on="1"/>
      </contour>
    </TTGlyph>
    <TTGlyph name="W" xMin="-30" yMin="0" xMax="2126" yMax="1353">
      <contour>
        <pt x="507" y="1234" on="1"/>
        <pt x="363" y="1206" on="1"/>
        <pt x="647" y="340" on="1"/>
        <pt x="663" y="340" on="1"/>
        <pt x="981" y="1351" on="1"/>
        <pt x="981" y="1353" on="1"/>
        <pt x="1252" y="1353" on="1"/>
        <pt x="1561" y="340" on="1"/>
        <pt x="1577" y="340" on="1"/>
        <pt x="1831" y="1206" on="1"/>
        <pt x="1683" y="1234" on="1"/>
        <pt x="1703" y="1353" on="1"/>
        <pt x="2106" y="1353" on="1"/>
        <pt x="2126" y="1234" on="1"/>
        <pt x="2038" y="1206" on="1"/>
        <pt x="1667" y="0" on="1"/>
        <pt x="1376" y="0" on="1"/>
        <pt x="1078" y="956" on="1"/>
        <pt x="1062" y="956" on="1"/>
        <pt x="760" y="0" on="1"/>
        <pt x="468" y="0" on="1"/>
        <pt x="62" y="1206" on="1"/>
        <pt x="-30" y="1234" on="1"/>
        <pt x="-10" y="1353" on="1"/>
        <pt x="487" y="1353" on="1"/>
      </contour>
    </TTGlyph>
    <TTGlyph name="Wacute" xMin="-30" yMin="0" xMax="2126" yMax="1784">
      <component glyphName="W" x="0" y="0" flags="0x204"/>
      <component glyphName="acute.case" x="899" y="0" flags="0x4"/>
    </TTGlyph>
    <TTGlyph name="Wcircumflex" xMin="-30" yMin="0" xMax="2126" yMax="1794">
      <component glyphName="W" x="0" y="0" flags="0x204"/>
      <component glyphName="circumflex.case" x="844" y="0" flags="0x4"/>
    </TTGlyph>
    <TTGlyph name="Wdieresis" xMin="-30" yMin="0" xMax="2126" yMax="1728">
      <component glyphName="W" x="0" y="0" flags="0x204"/>
      <component glyphName="dieresis.case" x="845" y="0" flags="0x4"/>
    </TTGlyph>
    <TTGlyph name="Wdotaccent" xMin="-30" yMin="0" xMax="2126" yMax="1751">
      <component glyphName="W" x="0" y="0" flags="0x204"/>
      <component glyphName="dotaccent.case" x="859" y="0" flags="0x4"/>
    </TTGlyph>
    <TTGlyph name="Wgrave" xMin="-30" yMin="0" xMax="2126" yMax="1784">
      <component glyphName="W" x="0" y="0" flags="0x204"/>
      <component glyphName="grave.case" x="676" y="0" flags="0x4"/>
    </TTGlyph>
    <TTGlyph name="X" xMin="36" yMin="0" xMax="1329" yMax="1353">
      <contour>
        <pt x="748" y="118" on="1"/>
        <pt x="874" y="145" on="1"/>
        <pt x="626" y="521" on="1"/>
        <pt x="375" y="145" on="1"/>
        <pt x="497" y="118" on="1"/>
        <pt x="477" y="0" on="1"/>
        <pt x="56" y="0" on="1"/>
        <pt x="36" y="118" on="1"/>
        <pt x="159" y="151" on="1"/>
        <pt x="516" y="688" on="1"/>
        <pt x="176" y="1202" on="1"/>
        <pt x="54" y="1234" on="1"/>
        <pt x="74" y="1353" on="1"/>
        <pt x="615" y="1353" on="1"/>
        <pt x="635" y="1234" on="1"/>
        <pt x="509" y="1208" on="1"/>
        <pt x="736" y="863" on="1"/>
        <pt x="967" y="1208" on="1"/>
        <pt x="843" y="1234" on="1"/>
        <pt x="863" y="1353" on="1"/>
        <pt x="1288" y="1353" on="1"/>
        <pt x="1308" y="1234" on="1"/>
        <pt x="1184" y="1202" on="1"/>
        <pt x="846" y="696" on="1"/>
        <pt x="1206" y="151" on="1"/>
        <pt x="1329" y="118" on="1"/>
        <pt x="1309" y="0" on="1"/>
        <pt x="768" y="0" on="1"/>
      </contour>
    </TTGlyph>
    <TTGlyph name="Y" xMin="-54" yMin="0" xMax="1232" yMax="1353">
      <contour>
        <pt x="452" y="586" on="1"/>
        <pt x="63" y="1203" on="1"/>
        <pt x="-54" y="1234" on="1"/>
        <pt x="-34" y="1353" on="1"/>
        <pt x="486" y="1353" on="1"/>
        <pt x="506" y="1234" on="1"/>
        <pt x="364" y="1207" on="1"/>
        <pt x="641" y="763" on="1"/>
        <pt x="905" y="1207" on="1"/>
        <pt x="770" y="1234" on="1"/>
        <pt x="790" y="1353" on="1"/>
        <pt x="1212" y="1353" on="1"/>
        <pt x="1232" y="1234" on="1"/>
        <pt x="1119" y="1203" on="1"/>
        <pt x="752" y="587" on="1"/>
        <pt x="752" y="152" on="1"/>
        <pt x="894" y="118" on="1"/>
        <pt x="874" y="0" on="1"/>
        <pt x="329" y="0" on="1"/>
        <pt x="309" y="118" on="1"/>
        <pt x="452" y="152" on="1"/>
      </contour>
    </TTGlyph>
    <TTGlyph name="Yacute" xMin="-54" yMin="0" xMax="1232" yMax="1784">
      <component glyphName="Y" x="0" y="0" flags="0x204"/>
      <component glyphName="acute.case" x="418" y="0" flags="0x4"/>
    </TTGlyph>
    <TTGlyph name="Ycircumflex" xMin="-54" yMin="0" xMax="1232" yMax="1794">
      <component glyphName="Y" x="0" y="0" flags="0x204"/>
      <component glyphName="circumflex.case" x="363" y="0" flags="0x4"/>
    </TTGlyph>
    <TTGlyph name="Ydieresis" xMin="-54" yMin="0" xMax="1232" yMax="1728">
      <component glyphName="Y" x="0" y="0" flags="0x204"/>
      <component glyphName="dieresis.case" x="364" y="0" flags="0x4"/>
    </TTGlyph>
    <TTGlyph name="Ygrave" xMin="-54" yMin="0" xMax="1232" yMax="1784">
      <component glyphName="Y" x="0" y="0" flags="0x204"/>
      <component glyphName="grave.case" x="195" y="0" flags="0x4"/>
    </TTGlyph>
    <TTGlyph name="Z" xMin="50" yMin="0" xMax="1121" yMax="1353">
      <contour>
        <pt x="1095" y="1353" on="1"/>
        <pt x="1095" y="1209" on="1"/>
        <pt x="399" y="163" on="1"/>
        <pt x="404" y="149" on="1"/>
        <pt x="886" y="149" on="1"/>
        <pt x="968" y="342" on="1"/>
        <pt x="1121" y="320" on="1"/>
        <pt x="1097" y="0" on="1"/>
        <pt x="50" y="0" on="1"/>
        <pt x="50" y="145" on="1"/>
        <pt x="745" y="1190" on="1"/>
        <pt x="740" y="1204" on="1"/>
        <pt x="299" y="1204" on="1"/>
        <pt x="217" y="1011" on="1"/>
        <pt x="63" y="1033" on="1"/>
        <pt x="88" y="1353" on="1"/>
      </contour>
    </TTGlyph>
    <TTGlyph name="Zacute" xMin="50" yMin="0" xMax="1121" yMax="1784">
      <component glyphName="Z" x="0" y="0" flags="0x204"/>
      <component glyphName="acute.case" x="379" y="0" flags="0x4"/>
    </TTGlyph>
    <TTGlyph name="Zcaron" xMin="50" yMin="0" xMax="1121" yMax="1794">
      <component glyphName="Z" x="0" y="0" flags="0x204"/>
      <component glyphName="caron.case" x="316" y="0" flags="0x4"/>
    </TTGlyph>
    <TTGlyph name="Zcircumflex" xMin="50" yMin="0" xMax="1121" yMax="1794">
      <component glyphName="Z" x="0" y="0" flags="0x204"/>
      <component glyphName="circumflex.case" x="324" y="0" flags="0x4"/>
    </TTGlyph>
    <TTGlyph name="Zdotaccent" xMin="50" yMin="0" xMax="1121" yMax="1751">
      <component glyphName="Z" x="0" y="0" flags="0x204"/>
      <component glyphName="dotaccent.case" x="339" y="0" flags="0x4"/>
    </TTGlyph>
    <TTGlyph name="a" xMin="70" yMin="-22" xMax="1144" yMax="1107">
      <contour>
        <pt x="1001" y="152" on="1"/>
        <pt x="1144" y="118" on="1"/>
        <pt x="1124" y="0" on="1"/>
        <pt x="789" y="-22" on="1"/>
        <pt x="732" y="136" on="1"/>
        <pt x="670" y="65" on="0"/>
        <pt x="483" y="-22" on="0"/>
        <pt x="376" y="-22" on="1"/>
        <pt x="228" y="-22" on="0"/>
        <pt x="70" y="111" on="0"/>
        <pt x="70" y="237" on="1"/>
        <pt x="70" y="427" on="0"/>
        <pt x="393" y="617" on="0"/>
        <pt x="711" y="617" on="1"/>
        <pt x="711" y="710" on="1"/>
        <pt x="711" y="842" on="0"/>
        <pt x="620" y="967" on="0"/>
        <pt x="518" y="967" on="1"/>
        <pt x="476" y="967" on="0"/>
        <pt x="403" y="958" on="0"/>
        <pt x="376" y="952" on="1"/>
        <pt x="316" y="740" on="1"/>
        <pt x="148" y="750" on="1"/>
        <pt x="148" y="1053" on="1"/>
        <pt x="233" y="1077" on="0"/>
        <pt x="446" y="1107" on="0"/>
        <pt x="546" y="1107" on="1"/>
        <pt x="778" y="1107" on="0"/>
        <pt x="1001" y="922" on="0"/>
        <pt x="1001" y="735" on="1"/>
      </contour>
      <contour>
        <pt x="711" y="477" on="1"/>
        <pt x="611" y="477" on="0"/>
        <pt x="438" y="445" on="0"/>
        <pt x="390" y="419" on="1"/>
        <pt x="378" y="394" on="0"/>
        <pt x="360" y="319" on="0"/>
        <pt x="360" y="275" on="1"/>
        <pt x="360" y="199" on="0"/>
        <pt x="422" y="118" on="0"/>
        <pt x="480" y="118" on="1"/>
        <pt x="543" y="118" on="0"/>
        <pt x="670" y="195" on="0"/>
        <pt x="711" y="245" on="1"/>
      </contour>
    </TTGlyph>
    <TTGlyph name="aacute" xMin="70" yMin="-22" xMax="1144" yMax="1670">
      <component glyphName="a" x="0" y="0" flags="0x204"/>
      <component glyphName="acute" x="240" y="0" flags="0x4"/>
    </TTGlyph>
    <TTGlyph name="abreve" xMin="70" yMin="-22" xMax="1144" yMax="1602">
      <component glyphName="a" x="0" y="0" flags="0x204"/>
      <component glyphName="breve" x="86" y="0" flags="0x4"/>
    </TTGlyph>
    <TTGlyph name="acircumflex" xMin="70" yMin="-22" xMax="1144" yMax="1680">
      <component glyphName="a" x="0" y="0" flags="0x204"/>
      <component glyphName="circumflex" x="17" y="0" flags="0x4"/>
    </TTGlyph>
    <TTGlyph name="acute" xMin="200" yMin="1265" xMax="655" yMax="1670">
      <contour>
        <pt x="200" y="1307" on="1"/>
        <pt x="383" y="1670" on="1"/>
        <pt x="655" y="1660" on="1"/>
        <pt x="655" y="1594" on="1"/>
        <pt x="355" y="1265" on="1"/>
        <pt x="200" y="1275" on="1"/>
      </contour>
    </TTGlyph>
    <TTGlyph name="acute.case" xMin="60" yMin="1460" xMax="620" yMax="1784">
      <contour>
        <pt x="60" y="1503" on="1"/>
        <pt x="338" y="1784" on="1"/>
        <pt x="620" y="1774" on="1"/>
        <pt x="620" y="1708" on="1"/>
        <pt x="225" y="1460" on="1"/>
        <pt x="60" y="1471" on="1"/>
      </contour>
    </TTGlyph>
    <TTGlyph name="acutecomb" xMin="-652" yMin="1265" xMax="-197" yMax="1670">
      <contour>
        <pt x="-652" y="1307" on="1"/>
        <pt x="-469" y="1670" on="1"/>
        <pt x="-197" y="1660" on="1"/>
        <pt x="-197" y="1594" on="1"/>
        <pt x="-497" y="1265" on="1"/>
        <pt x="-652" y="1275" on="1"/>
      </contour>
    </TTGlyph>
    <TTGlyph name="adieresis" xMin="70" yMin="-22" xMax="1144" yMax="1540">
      <component glyphName="a" x="0" y="0" flags="0x204"/>
      <component glyphName="dieresis" x="31" y="0" flags="0x4"/>
    </TTGlyph>
    <TTGlyph name="ae" xMin="70" yMin="-22" xMax="1639" yMax="1107">
      <contour>
        <pt x="1001" y="493" on="1"/>
        <pt x="1001" y="447" on="1"/>
        <pt x="1001" y="354" on="0"/>
        <pt x="1047" y="228" on="0"/>
        <pt x="1125" y="151" on="0"/>
        <pt x="1227" y="118" on="0"/>
        <pt x="1283" y="118" on="1"/>
        <pt x="1337" y="118" on="0"/>
        <pt x="1444" y="138" on="0"/>
        <pt x="1488" y="150" on="1"/>
        <pt x="1539" y="164" on="0"/>
        <pt x="1586" y="183" on="1"/>
        <pt x="1586" y="67" on="1"/>
        <pt x="1536" y="41" on="0"/>
        <pt x="1474" y="22" on="1"/>
        <pt x="1420" y="5" on="0"/>
        <pt x="1274" y="-22" on="0"/>
        <pt x="1184" y="-22" on="1"/>
        <pt x="1116" y="-22" on="0"/>
        <pt x="995" y="-1" on="0"/>
        <pt x="890" y="43" on="0"/>
        <pt x="806" y="112" on="0"/>
        <pt x="776" y="159" on="1"/>
        <pt x="759" y="138" on="0"/>
        <pt x="689" y="76" on="0"/>
        <pt x="587" y="19" on="0"/>
        <pt x="457" y="-22" on="0"/>
        <pt x="381" y="-22" on="1"/>
        <pt x="228" y="-22" on="0"/>
        <pt x="70" y="111" on="0"/>
        <pt x="70" y="237" on="1"/>
        <pt x="70" y="327" on="0"/>
        <pt x="142" y="472" on="0"/>
        <pt x="297" y="573" on="0"/>
        <pt x="540" y="627" on="0"/>
        <pt x="711" y="627" on="1"/>
        <pt x="711" y="702" on="1"/>
        <pt x="711" y="840" on="0"/>
        <pt x="615" y="967" on="0"/>
        <pt x="518" y="967" on="1"/>
        <pt x="487" y="967" on="0"/>
        <pt x="435" y="962" on="0"/>
        <pt x="416" y="959" on="1"/>
        <pt x="394" y="955" on="0"/>
        <pt x="376" y="952" on="1"/>
        <pt x="316" y="740" on="1"/>
        <pt x="148" y="750" on="1"/>
        <pt x="148" y="1053" on="1"/>
        <pt x="200" y="1068" on="0"/>
        <pt x="263" y="1080" on="1"/>
        <pt x="317" y="1090" on="0"/>
        <pt x="461" y="1107" on="0"/>
        <pt x="546" y="1107" on="1"/>
        <pt x="664" y="1107" on="0"/>
        <pt x="845" y="1058" on="0"/>
        <pt x="904" y="1001" on="1"/>
        <pt x="970" y="1055" on="0"/>
        <pt x="1132" y="1107" on="0"/>
        <pt x="1228" y="1107" on="1"/>
        <pt x="1345" y="1107" on="0"/>
        <pt x="1503" y="1047" on="0"/>
        <pt x="1598" y="926" on="0"/>
        <pt x="1639" y="744" on="0"/>
        <pt x="1639" y="623" on="1"/>
        <pt x="1639" y="493" on="1"/>
      </contour>
      <contour>
        <pt x="730" y="263" on="1"/>
        <pt x="711" y="329" on="0"/>
        <pt x="711" y="414" on="1"/>
        <pt x="711" y="487" on="1"/>
        <pt x="625" y="487" on="0"/>
        <pt x="504" y="469" on="0"/>
        <pt x="465" y="458" on="1"/>
        <pt x="419" y="445" on="0"/>
        <pt x="390" y="429" on="1"/>
        <pt x="381" y="412" on="0"/>
        <pt x="375" y="388" on="1"/>
        <pt x="369" y="368" on="0"/>
        <pt x="360" y="310" on="0"/>
        <pt x="360" y="275" on="1"/>
        <pt x="360" y="233" on="0"/>
        <pt x="380" y="173" on="0"/>
        <pt x="413" y="135" on="0"/>
        <pt x="456" y="118" on="0"/>
        <pt x="480" y="118" on="1"/>
        <pt x="530" y="118" on="0"/>
        <pt x="618" y="160" on="0"/>
        <pt x="685" y="213" on="0"/>
        <pt x="727" y="259" on="0"/>
      </contour>
      <contour>
        <pt x="1051" y="927" on="1"/>
        <pt x="1040" y="892" on="0"/>
        <pt x="1030" y="847" on="1"/>
        <pt x="1022" y="809" on="0"/>
        <pt x="1006" y="700" on="0"/>
        <pt x="1003" y="633" on="1"/>
        <pt x="1349" y="633" on="1"/>
        <pt x="1349" y="720" on="0"/>
        <pt x="1334" y="846" on="0"/>
        <pt x="1298" y="928" on="0"/>
        <pt x="1240" y="967" on="0"/>
        <pt x="1198" y="967" on="1"/>
        <pt x="1162" y="967" on="0"/>
        <pt x="1107" y="955" on="0"/>
        <pt x="1088" y="947" on="1"/>
        <pt x="1066" y="938" on="0"/>
      </contour>
    </TTGlyph>
    <TTGlyph name="aeacute" xMin="70" yMin="-22" xMax="1639" yMax="1670">
      <component glyphName="ae" x="0" y="0" flags="0x204"/>
      <component glyphName="acute" x="575" y="0" flags="0x4"/>
    </TTGlyph>
    <TTGlyph name="agrave" xMin="70" yMin="-22" xMax="1144" yMax="1670">
      <component glyphName="a" x="0" y="0" flags="0x204"/>
      <component glyphName="grave" x="-3" y="0" flags="0x4"/>
    </TTGlyph>
    <TTGlyph name="amacron" xMin="70" yMin="-22" xMax="1144" yMax="1493">
      <component glyphName="a" x="0" y="0" flags="0x204"/>
      <component glyphName="macron" x="56" y="0" flags="0x4"/>
    </TTGlyph>
    <TTGlyph name="ampersand" xMin="24" yMin="-22" xMax="1573" yMax="1375">
      <contour>
        <pt x="1312" y="529" on="1"/>
        <pt x="1312" y="438" on="0"/>
        <pt x="1240" y="273" on="0"/>
        <pt x="1171" y="203" on="1"/>
        <pt x="1224" y="167" on="0"/>
        <pt x="1322" y="127" on="0"/>
        <pt x="1368" y="127" on="1"/>
        <pt x="1410" y="127" on="0"/>
        <pt x="1483" y="137" on="0"/>
        <pt x="1512" y="144" on="1"/>
        <pt x="1545" y="151" on="0"/>
        <pt x="1573" y="161" on="1"/>
        <pt x="1573" y="45" on="1"/>
        <pt x="1546" y="26" on="0"/>
        <pt x="1510" y="11" on="1"/>
        <pt x="1479" y="-2" on="0"/>
        <pt x="1390" y="-22" on="0"/>
        <pt x="1333" y="-22" on="1"/>
        <pt x="1251" y="-22" on="0"/>
        <pt x="1085" y="30" on="0"/>
        <pt x="1000" y="78" on="1"/>
        <pt x="909" y="30" on="0"/>
        <pt x="684" y="-22" on="0"/>
        <pt x="553" y="-22" on="1"/>
        <pt x="428" y="-22" on="0"/>
        <pt x="232" y="13" on="0"/>
        <pt x="96" y="85" on="0"/>
        <pt x="24" y="197" on="0"/>
        <pt x="24" y="274" on="1"/>
        <pt x="24" y="296" on="1"/>
        <pt x="24" y="365" on="0"/>
        <pt x="78" y="486" on="0"/>
        <pt x="167" y="587" on="0"/>
        <pt x="282" y="669" on="0"/>
        <pt x="342" y="701" on="1"/>
        <pt x="298" y="751" on="0"/>
        <pt x="240" y="838" on="0"/>
        <pt x="205" y="913" on="0"/>
        <pt x="190" y="980" on="0"/>
        <pt x="190" y="1010" on="1"/>
        <pt x="190" y="1029" on="1"/>
        <pt x="190" y="1098" on="0"/>
        <pt x="256" y="1223" on="0"/>
        <pt x="382" y="1319" on="0"/>
        <pt x="566" y="1375" on="0"/>
        <pt x="685" y="1375" on="1"/>
        <pt x="782" y="1375" on="0"/>
        <pt x="928" y="1337" on="0"/>
        <pt x="1026" y="1268" on="0"/>
        <pt x="1075" y="1172" on="0"/>
        <pt x="1075" y="1113" on="1"/>
        <pt x="1075" y="1091" on="1"/>
        <pt x="1075" y="1031" on="0"/>
        <pt x="1029" y="930" on="0"/>
        <pt x="934" y="833" on="0"/>
        <pt x="786" y="735" on="0"/>
        <pt x="684" y="679" on="1"/>
        <pt x="761" y="594" on="0"/>
        <pt x="916" y="425" on="0"/>
        <pt x="992" y="352" on="1"/>
        <pt x="1012" y="392" on="0"/>
        <pt x="1032" y="483" on="0"/>
        <pt x="1032" y="536" on="1"/>
        <pt x="1032" y="542" on="1"/>
        <pt x="869" y="576" on="1"/>
        <pt x="889" y="694" on="1"/>
        <pt x="1312" y="716" on="1"/>
      </contour>
      <contour>
        <pt x="573" y="127" on="1"/>
        <pt x="725" y="127" on="0"/>
        <pt x="836" y="188" on="1"/>
        <pt x="739" y="263" on="0"/>
        <pt x="550" y="452" on="0"/>
        <pt x="457" y="561" on="1"/>
        <pt x="427" y="544" on="0"/>
        <pt x="377" y="495" on="0"/>
        <pt x="343" y="437" on="0"/>
        <pt x="324" y="373" on="0"/>
        <pt x="324" y="340" on="1"/>
        <pt x="324" y="327" on="1"/>
        <pt x="324" y="228" on="0"/>
        <pt x="455" y="127" on="0"/>
      </contour>
      <contour>
        <pt x="775" y="1078" on="1"/>
        <pt x="775" y="1148" on="0"/>
        <pt x="695" y="1226" on="0"/>
        <pt x="633" y="1226" on="1"/>
        <pt x="609" y="1226" on="0"/>
        <pt x="567" y="1216" on="0"/>
        <pt x="552" y="1211" on="1"/>
        <pt x="534" y="1204" on="0"/>
        <pt x="520" y="1196" on="1"/>
        <pt x="511" y="1180" on="0"/>
        <pt x="505" y="1161" on="1"/>
        <pt x="499" y="1144" on="0"/>
        <pt x="490" y="1097" on="0"/>
        <pt x="490" y="1067" on="1"/>
        <pt x="490" y="1056" on="1"/>
        <pt x="490" y="978" on="0"/>
        <pt x="532" y="861" on="0"/>
        <pt x="571" y="811" on="1"/>
        <pt x="674" y="877" on="0"/>
        <pt x="775" y="997" on="0"/>
        <pt x="775" y="1065" on="1"/>
      </contour>
    </TTGlyph>
    <TTGlyph name="aogonek" xMin="70" yMin="-457" xMax="1149" yMax="1107">
      <contour>
        <pt x="1001" y="152" on="1"/>
        <pt x="1144" y="118" on="1"/>
        <pt x="1144" y="117" on="1"/>
        <pt x="1124" y="0" on="1"/>
        <pt x="1077" y="-33" on="0"/>
        <pt x="1006" y="-108" on="0"/>
        <pt x="957" y="-181" on="0"/>
        <pt x="932" y="-249" on="0"/>
        <pt x="932" y="-275" on="1"/>
        <pt x="932" y="-310" on="0"/>
        <pt x="960" y="-337" on="0"/>
        <pt x="991" y="-337" on="1"/>
        <pt x="1017" y="-337" on="0"/>
        <pt x="1073" y="-312" on="0"/>
        <pt x="1096" y="-297" on="1"/>
        <pt x="1123" y="-279" on="0"/>
        <pt x="1149" y="-257" on="1"/>
        <pt x="1149" y="-370" on="1"/>
        <pt x="1120" y="-395" on="0"/>
        <pt x="1084" y="-414" on="1"/>
        <pt x="1052" y="-431" on="0"/>
        <pt x="965" y="-457" on="0"/>
        <pt x="910" y="-457" on="1"/>
        <pt x="829" y="-457" on="0"/>
        <pt x="741" y="-399" on="0"/>
        <pt x="741" y="-324" on="1"/>
        <pt x="741" y="-261" on="0"/>
        <pt x="803" y="-144" on="0"/>
        <pt x="857" y="-89" on="1"/>
        <pt x="896" y="-49" on="0"/>
        <pt x="945" y="-11" on="1"/>
        <pt x="789" y="-22" on="1"/>
        <pt x="732" y="136" on="1"/>
        <pt x="670" y="65" on="0"/>
        <pt x="483" y="-22" on="0"/>
        <pt x="376" y="-22" on="1"/>
        <pt x="228" y="-22" on="0"/>
        <pt x="70" y="111" on="0"/>
        <pt x="70" y="237" on="1"/>
        <pt x="70" y="427" on="0"/>
        <pt x="393" y="617" on="0"/>
        <pt x="711" y="617" on="1"/>
        <pt x="711" y="710" on="1"/>
        <pt x="711" y="842" on="0"/>
        <pt x="620" y="967" on="0"/>
        <pt x="518" y="967" on="1"/>
        <pt x="476" y="967" on="0"/>
        <pt x="403" y="958" on="0"/>
        <pt x="376" y="952" on="1"/>
        <pt x="316" y="740" on="1"/>
        <pt x="148" y="750" on="1"/>
        <pt x="148" y="1053" on="1"/>
        <pt x="233" y="1077" on="0"/>
        <pt x="446" y="1107" on="0"/>
        <pt x="546" y="1107" on="1"/>
        <pt x="778" y="1107" on="0"/>
        <pt x="1001" y="922" on="0"/>
        <pt x="1001" y="735" on="1"/>
      </contour>
      <contour>
        <pt x="711" y="477" on="1"/>
        <pt x="611" y="477" on="0"/>
        <pt x="438" y="445" on="0"/>
        <pt x="390" y="419" on="1"/>
        <pt x="378" y="394" on="0"/>
        <pt x="360" y="319" on="0"/>
        <pt x="360" y="275" on="1"/>
        <pt x="360" y="199" on="0"/>
        <pt x="422" y="118" on="0"/>
        <pt x="480" y="118" on="1"/>
        <pt x="543" y="118" on="0"/>
        <pt x="670" y="195" on="0"/>
        <pt x="711" y="245" on="1"/>
      </contour>
    </TTGlyph>
    <TTGlyph name="approxequal" xMin="140" yMin="235" xMax="1141" yMax="963">
      <contour>
        <pt x="140" y="734" on="1"/>
        <pt x="140" y="790" on="0"/>
        <pt x="180" y="876" on="0"/>
        <pt x="249" y="934" on="0"/>
        <pt x="344" y="963" on="0"/>
        <pt x="400" y="963" on="1"/>
        <pt x="438" y="963" on="0"/>
        <pt x="530" y="943" on="0"/>
        <pt x="627" y="914" on="0"/>
        <pt x="725" y="880" on="0"/>
        <pt x="812" y="851" on="0"/>
        <pt x="881" y="831" on="0"/>
        <pt x="901" y="831" on="1"/>
        <pt x="920" y="831" on="0"/>
        <pt x="957" y="846" on="0"/>
        <pt x="986" y="876" on="0"/>
        <pt x="1004" y="921" on="0"/>
        <pt x="1004" y="951" on="1"/>
        <pt x="1141" y="961" on="1"/>
        <pt x="1141" y="864" on="1"/>
        <pt x="1141" y="811" on="0"/>
        <pt x="1105" y="726" on="0"/>
        <pt x="1039" y="667" on="0"/>
        <pt x="948" y="635" on="0"/>
        <pt x="893" y="635" on="1"/>
        <pt x="859" y="635" on="0"/>
        <pt x="767" y="655" on="0"/>
        <pt x="664" y="684" on="0"/>
        <pt x="560" y="718" on="0"/>
        <pt x="467" y="747" on="0"/>
        <pt x="395" y="767" on="0"/>
        <pt x="376" y="767" on="1"/>
        <pt x="356" y="767" on="0"/>
        <pt x="317" y="759" on="0"/>
        <pt x="287" y="737" on="0"/>
        <pt x="269" y="699" on="0"/>
        <pt x="269" y="669" on="1"/>
        <pt x="140" y="659" on="1"/>
      </contour>
      <contour>
        <pt x="140" y="334" on="1"/>
        <pt x="140" y="390" on="0"/>
        <pt x="180" y="476" on="0"/>
        <pt x="249" y="534" on="0"/>
        <pt x="344" y="563" on="0"/>
        <pt x="400" y="563" on="1"/>
        <pt x="438" y="563" on="0"/>
        <pt x="530" y="543" on="0"/>
        <pt x="627" y="514" on="0"/>
        <pt x="725" y="480" on="0"/>
        <pt x="812" y="451" on="0"/>
        <pt x="881" y="431" on="0"/>
        <pt x="901" y="431" on="1"/>
        <pt x="920" y="431" on="0"/>
        <pt x="957" y="446" on="0"/>
        <pt x="986" y="476" on="0"/>
        <pt x="1004" y="521" on="0"/>
        <pt x="1004" y="551" on="1"/>
        <pt x="1141" y="561" on="1"/>
        <pt x="1141" y="464" on="1"/>
        <pt x="1141" y="411" on="0"/>
        <pt x="1105" y="326" on="0"/>
        <pt x="1039" y="267" on="0"/>
        <pt x="948" y="235" on="0"/>
        <pt x="893" y="235" on="1"/>
        <pt x="859" y="235" on="0"/>
        <pt x="767" y="255" on="0"/>
        <pt x="664" y="284" on="0"/>
        <pt x="560" y="318" on="0"/>
        <pt x="467" y="347" on="0"/>
        <pt x="395" y="367" on="0"/>
        <pt x="376" y="367" on="1"/>
        <pt x="356" y="367" on="0"/>
        <pt x="317" y="359" on="0"/>
        <pt x="287" y="337" on="0"/>
        <pt x="269" y="299" on="0"/>
        <pt x="269" y="269" on="1"/>
        <pt x="140" y="259" on="1"/>
      </contour>
    </TTGlyph>
    <TTGlyph name="aring" xMin="70" yMin="-22" xMax="1144" yMax="1675">
      <component glyphName="a" x="0" y="0" flags="0x204"/>
      <component glyphName="ring" x="133" y="0" flags="0x4"/>
    </TTGlyph>
    <TTGlyph name="aringacute" xMin="70" yMin="-22" xMax="1144" yMax="2166">
      <component glyphName="a" x="0" y="0" flags="0x204"/>
      <component glyphName="ring" x="117" y="0" flags="0x4"/>
      <component glyphName="acute" x="222" y="496" flags="0x4"/>
    </TTGlyph>
    <TTGlyph name="arrowdown" xMin="100" yMin="-413" xMax="643" yMax="1562">
      <contour>
        <pt x="460" y="1562" on="1"/>
        <pt x="460" y="-75" on="1"/>
        <pt x="553" y="52" on="1"/>
        <pt x="643" y="-28" on="1"/>
        <pt x="414" y="-413" on="1"/>
        <pt x="330" y="-413" on="1"/>
        <pt x="100" y="-28" on="1"/>
        <pt x="190" y="52" on="1"/>
        <pt x="284" y="-75" on="1"/>
        <pt x="284" y="1562" on="1"/>
      </contour>
    </TTGlyph>
    <TTGlyph name="arrowup" xMin="100" yMin="-413" xMax="643" yMax="1562">
      <contour>
        <pt x="283" y="-413" on="1"/>
        <pt x="283" y="1224" on="1"/>
        <pt x="190" y="1097" on="1"/>
        <pt x="100" y="1177" on="1"/>
        <pt x="329" y="1562" on="1"/>
        <pt x="413" y="1562" on="1"/>
        <pt x="643" y="1177" on="1"/>
        <pt x="553" y="1097" on="1"/>
        <pt x="459" y="1224" on="1"/>
        <pt x="459" y="-413" on="1"/>
      </contour>
    </TTGlyph>
    <TTGlyph name="asciicircum" xMin="100" yMin="1049" xMax="984" yMax="1562">
      <contour>
        <pt x="481" y="1562" on="1"/>
        <pt x="603" y="1562" on="1"/>
        <pt x="984" y="1079" on="1"/>
        <pt x="984" y="1049" on="1"/>
        <pt x="785" y="1049" on="1"/>
        <pt x="550" y="1343" on="1"/>
        <pt x="534" y="1343" on="1"/>
        <pt x="300" y="1049" on="1"/>
        <pt x="100" y="1049" on="1"/>
        <pt x="100" y="1079" on="1"/>
      </contour>
    </TTGlyph>
    <TTGlyph name="asciitilde" xMin="140" yMin="475" xMax="1141" yMax="803">
      <contour>
        <pt x="140" y="574" on="1"/>
        <pt x="140" y="630" on="0"/>
        <pt x="180" y="716" on="0"/>
        <pt x="249" y="774" on="0"/>
        <pt x="344" y="803" on="0"/>
        <pt x="400" y="803" on="1"/>
        <pt x="438" y="803" on="0"/>
        <pt x="530" y="783" on="0"/>
        <pt x="627" y="754" on="0"/>
        <pt x="725" y="720" on="0"/>
        <pt x="812" y="691" on="0"/>
        <pt x="881" y="671" on="0"/>
        <pt x="901" y="671" on="1"/>
        <pt x="920" y="671" on="0"/>
        <pt x="957" y="686" on="0"/>
        <pt x="986" y="716" on="0"/>
        <pt x="1004" y="761" on="0"/>
        <pt x="1004" y="791" on="1"/>
        <pt x="1141" y="801" on="1"/>
        <pt x="1141" y="704" on="1"/>
        <pt x="1141" y="651" on="0"/>
        <pt x="1105" y="566" on="0"/>
        <pt x="1039" y="507" on="0"/>
        <pt x="948" y="475" on="0"/>
        <pt x="893" y="475" on="1"/>
        <pt x="859" y="475" on="0"/>
        <pt x="767" y="495" on="0"/>
        <pt x="664" y="524" on="0"/>
        <pt x="560" y="558" on="0"/>
        <pt x="467" y="587" on="0"/>
        <pt x="395" y="607" on="0"/>
        <pt x="376" y="607" on="1"/>
        <pt x="356" y="607" on="0"/>
        <pt x="317" y="599" on="0"/>
        <pt x="287" y="577" on="0"/>
        <pt x="269" y="539" on="0"/>
        <pt x="269" y="509" on="1"/>
        <pt x="140" y="499" on="1"/>
      </contour>
    </TTGlyph>
    <TTGlyph name="asterisk" xMin="40" yMin="772" xMax="855" yMax="1592">
      <contour>
        <pt x="515" y="1066" on="1"/>
        <pt x="554" y="829" on="1"/>
        <pt x="554" y="772" on="1"/>
        <pt x="341" y="772" on="1"/>
        <pt x="341" y="829" on="1"/>
        <pt x="380" y="1065" on="1"/>
        <pt x="193" y="913" on="1"/>
        <pt x="145" y="885" on="1"/>
        <pt x="41" y="1068" on="1"/>
        <pt x="83" y="1094" on="1"/>
        <pt x="312" y="1181" on="1"/>
        <pt x="87" y="1267" on="1"/>
        <pt x="40" y="1296" on="1"/>
        <pt x="145" y="1479" on="1"/>
        <pt x="193" y="1451" on="1"/>
        <pt x="380" y="1298" on="1"/>
        <pt x="341" y="1535" on="1"/>
        <pt x="341" y="1592" on="1"/>
        <pt x="554" y="1592" on="1"/>
        <pt x="554" y="1535" on="1"/>
        <pt x="515" y="1299" on="1"/>
        <pt x="702" y="1451" on="1"/>
        <pt x="750" y="1479" on="1"/>
        <pt x="854" y="1296" on="1"/>
        <pt x="807" y="1267" on="1"/>
        <pt x="583" y="1182" on="1"/>
        <pt x="808" y="1097" on="1"/>
        <pt x="855" y="1068" on="1"/>
        <pt x="750" y="885" on="1"/>
        <pt x="702" y="913" on="1"/>
      </contour>
    </TTGlyph>
    <TTGlyph name="at" xMin="109" yMin="-310" xMax="1950" yMax="1375">
      <contour>
        <pt x="868" y="490" on="1"/>
        <pt x="848" y="358" on="0"/>
        <pt x="861" y="216" on="0"/>
        <pt x="915" y="216" on="1"/>
        <pt x="943" y="216" on="0"/>
        <pt x="1010" y="273" on="0"/>
        <pt x="1078" y="359" on="0"/>
        <pt x="1141" y="459" on="0"/>
        <pt x="1165" y="503" on="1"/>
        <pt x="1225" y="946" on="1"/>
        <pt x="1198" y="952" on="0"/>
        <pt x="1139" y="959" on="0"/>
        <pt x="1113" y="959" on="1"/>
        <pt x="1077" y="959" on="0"/>
        <pt x="1012" y="947" on="0"/>
        <pt x="990" y="939" on="1"/>
        <pt x="962" y="890" on="0"/>
        <pt x="899" y="700" on="0"/>
        <pt x="878" y="559" on="1"/>
      </contour>
      <contour>
        <pt x="1506" y="-165" on="1"/>
        <pt x="1391" y="-230" on="0"/>
        <pt x="1089" y="-310" on="0"/>
        <pt x="930" y="-310" on="1"/>
        <pt x="672" y="-310" on="0"/>
        <pt x="308" y="-176" on="0"/>
        <pt x="109" y="110" on="0"/>
        <pt x="110" y="322" on="1"/>
        <pt x="110" y="601" on="0"/>
        <pt x="372" y="1086" on="0"/>
        <pt x="884" y="1375" on="0"/>
        <pt x="1201" y="1375" on="1"/>
        <pt x="1551" y="1375" on="0"/>
        <pt x="1950" y="1069" on="0"/>
        <pt x="1950" y="798" on="1"/>
        <pt x="1950" y="582" on="0"/>
        <pt x="1784" y="272" on="0"/>
        <pt x="1529" y="113" on="0"/>
        <pt x="1394" y="102" on="1"/>
        <pt x="1198" y="88" on="1"/>
        <pt x="1117" y="166" on="1"/>
        <pt x="1140" y="336" on="1"/>
        <pt x="1059" y="200" on="0"/>
        <pt x="899" y="88" on="0"/>
        <pt x="794" y="88" on="1"/>
        <pt x="660" y="88" on="0"/>
        <pt x="548" y="252" on="0"/>
        <pt x="571" y="435" on="1"/>
        <pt x="583" y="528" on="1"/>
        <pt x="617" y="773" on="0"/>
        <pt x="906" y="1063" on="0"/>
        <pt x="1122" y="1063" on="1"/>
        <pt x="1213" y="1063" on="0"/>
        <pt x="1436" y="1016" on="0"/>
        <pt x="1521" y="985" on="1"/>
        <pt x="1413" y="209" on="1"/>
        <pt x="1541" y="223" on="0"/>
        <pt x="1660" y="505" on="0"/>
        <pt x="1660" y="750" on="1"/>
        <pt x="1660" y="990" on="0"/>
        <pt x="1402" y="1235" on="0"/>
        <pt x="1153" y="1235" on="1"/>
        <pt x="930" y="1235" on="0"/>
        <pt x="578" y="995" on="0"/>
        <pt x="400" y="592" on="0"/>
        <pt x="400" y="359" on="1"/>
        <pt x="400" y="96" on="0"/>
        <pt x="718" y="-170" on="0"/>
        <pt x="1019" y="-170" on="1"/>
        <pt x="1150" y="-170" on="0"/>
        <pt x="1419" y="-102" on="0"/>
        <pt x="1506" y="-59" on="1"/>
      </contour>
    </TTGlyph>
    <TTGlyph name="atilde" xMin="70" yMin="-22" xMax="1144" yMax="1561">
      <component glyphName="a" x="0" y="0" flags="0x204"/>
      <component glyphName="tilde" x="-16" y="0" flags="0x4"/>
    </TTGlyph>
    <TTGlyph name="b" xMin="4" yMin="-22" xMax="1138" yMax="1562">
      <contour>
        <pt x="437" y="967" on="1"/>
        <pt x="451" y="961" on="1"/>
        <pt x="515" y="1032" on="0"/>
        <pt x="675" y="1107" on="0"/>
        <pt x="765" y="1107" on="1"/>
        <pt x="960" y="1107" on="0"/>
        <pt x="1138" y="890" on="0"/>
        <pt x="1138" y="666" on="1"/>
        <pt x="1138" y="572" on="1"/>
        <pt x="1138" y="299" on="0"/>
        <pt x="855" y="-22" on="0"/>
        <pt x="615" y="-22" on="1"/>
        <pt x="509" y="-22" on="0"/>
        <pt x="249" y="28" on="0"/>
        <pt x="147" y="63" on="1"/>
        <pt x="147" y="1388" on="1"/>
        <pt x="4" y="1422" on="1"/>
        <pt x="24" y="1540" on="1"/>
        <pt x="437" y="1562" on="1"/>
      </contour>
      <contour>
        <pt x="848" y="642" on="1"/>
        <pt x="848" y="810" on="0"/>
        <pt x="768" y="967" on="0"/>
        <pt x="673" y="967" on="1"/>
        <pt x="614" y="967" on="0"/>
        <pt x="489" y="884" on="0"/>
        <pt x="437" y="818" on="1"/>
        <pt x="437" y="145" on="1"/>
        <pt x="472" y="135" on="0"/>
        <pt x="582" y="118" on="0"/>
        <pt x="635" y="118" on="1"/>
        <pt x="677" y="118" on="0"/>
        <pt x="769" y="142" on="0"/>
        <pt x="805" y="160" on="1"/>
        <pt x="824" y="233" on="0"/>
        <pt x="848" y="416" on="0"/>
        <pt x="848" y="523" on="1"/>
      </contour>
    </TTGlyph>
    <TTGlyph name="backslash" xMin="30" yMin="-295" xMax="813" yMax="1540">
      <contour>
        <pt x="813" y="-275" on="1"/>
        <pt x="813" y="-295" on="1"/>
        <pt x="598" y="-295" on="1"/>
        <pt x="30" y="1520" on="1"/>
        <pt x="30" y="1540" on="1"/>
        <pt x="245" y="1540" on="1"/>
      </contour>
    </TTGlyph>
    <TTGlyph name="bar" xMin="245" yMin="-537" xMax="413" yMax="1670">
      <contour>
        <pt x="245" y="1670" on="1"/>
        <pt x="413" y="1670" on="1"/>
        <pt x="413" y="-537" on="1"/>
        <pt x="245" y="-537" on="1"/>
      </contour>
    </TTGlyph>
    <TTGlyph name="braceleft" xMin="130" yMin="-457" xMax="804" yMax="1677">
      <contour>
        <pt x="130" y="668" on="1"/>
        <pt x="226" y="668" on="1"/>
        <pt x="287" y="668" on="0"/>
        <pt x="336" y="717" on="0"/>
        <pt x="336" y="778" on="1"/>
        <pt x="336" y="1397" on="1"/>
        <pt x="336" y="1457" on="0"/>
        <pt x="378" y="1560" on="0"/>
        <pt x="453" y="1635" on="0"/>
        <pt x="556" y="1677" on="0"/>
        <pt x="616" y="1677" on="1"/>
        <pt x="804" y="1677" on="1"/>
        <pt x="804" y="1561" on="1"/>
        <pt x="783" y="1561" on="1"/>
        <pt x="692" y="1561" on="0"/>
        <pt x="613" y="1482" on="0"/>
        <pt x="613" y="1391" on="1"/>
        <pt x="613" y="828" on="1"/>
        <pt x="613" y="766" on="0"/>
        <pt x="587" y="684" on="0"/>
        <pt x="545" y="635" on="0"/>
        <pt x="491" y="615" on="0"/>
        <pt x="463" y="615" on="1"/>
        <pt x="463" y="605" on="1"/>
        <pt x="491" y="605" on="0"/>
        <pt x="545" y="585" on="0"/>
        <pt x="587" y="536" on="0"/>
        <pt x="613" y="454" on="0"/>
        <pt x="613" y="392" on="1"/>
        <pt x="613" y="-171" on="1"/>
        <pt x="613" y="-262" on="0"/>
        <pt x="692" y="-341" on="0"/>
        <pt x="783" y="-341" on="1"/>
        <pt x="804" y="-341" on="1"/>
        <pt x="804" y="-457" on="1"/>
        <pt x="616" y="-457" on="1"/>
        <pt x="556" y="-457" on="0"/>
        <pt x="453" y="-415" on="0"/>
        <pt x="378" y="-340" on="0"/>
        <pt x="336" y="-237" on="0"/>
        <pt x="336" y="-177" on="1"/>
        <pt x="336" y="442" on="1"/>
        <pt x="336" y="503" on="0"/>
        <pt x="287" y="552" on="0"/>
        <pt x="226" y="552" on="1"/>
        <pt x="130" y="552" on="1"/>
      </contour>
    </TTGlyph>
    <TTGlyph name="braceright" xMin="60" yMin="-457" xMax="734" yMax="1677">
      <contour>
        <pt x="734" y="552" on="1"/>
        <pt x="638" y="552" on="1"/>
        <pt x="577" y="552" on="0"/>
        <pt x="528" y="503" on="0"/>
        <pt x="528" y="442" on="1"/>
        <pt x="528" y="-177" on="1"/>
        <pt x="528" y="-237" on="0"/>
        <pt x="486" y="-340" on="0"/>
        <pt x="411" y="-415" on="0"/>
        <pt x="308" y="-457" on="0"/>
        <pt x="248" y="-457" on="1"/>
        <pt x="60" y="-457" on="1"/>
        <pt x="60" y="-341" on="1"/>
        <pt x="81" y="-341" on="1"/>
        <pt x="172" y="-341" on="0"/>
        <pt x="251" y="-262" on="0"/>
        <pt x="251" y="-171" on="1"/>
        <pt x="251" y="392" on="1"/>
        <pt x="251" y="454" on="0"/>
        <pt x="281" y="536" on="0"/>
        <pt x="326" y="585" on="0"/>
        <pt x="378" y="605" on="0"/>
        <pt x="401" y="605" on="1"/>
        <pt x="401" y="615" on="1"/>
        <pt x="378" y="615" on="0"/>
        <pt x="326" y="635" on="0"/>
        <pt x="281" y="684" on="0"/>
        <pt x="251" y="766" on="0"/>
        <pt x="251" y="828" on="1"/>
        <pt x="251" y="1391" on="1"/>
        <pt x="251" y="1482" on="0"/>
        <pt x="172" y="1561" on="0"/>
        <pt x="81" y="1561" on="1"/>
        <pt x="60" y="1561" on="1"/>
        <pt x="60" y="1677" on="1"/>
        <pt x="248" y="1677" on="1"/>
        <pt x="308" y="1677" on="0"/>
        <pt x="411" y="1635" on="0"/>
        <pt x="486" y="1560" on="0"/>
        <pt x="528" y="1457" on="0"/>
        <pt x="528" y="1397" on="1"/>
        <pt x="528" y="778" on="1"/>
        <pt x="528" y="717" on="0"/>
        <pt x="577" y="668" on="0"/>
        <pt x="638" y="668" on="1"/>
        <pt x="734" y="668" on="1"/>
      </contour>
    </TTGlyph>
    <TTGlyph name="bracketleft" xMin="150" yMin="-457" xMax="618" yMax="1677">
      <contour>
        <pt x="150" y="1677" on="1"/>
        <pt x="618" y="1677" on="1"/>
        <pt x="618" y="1561" on="1"/>
        <pt x="427" y="1561" on="1"/>
        <pt x="427" y="-341" on="1"/>
        <pt x="618" y="-341" on="1"/>
        <pt x="618" y="-457" on="1"/>
        <pt x="150" y="-457" on="1"/>
      </contour>
    </TTGlyph>
    <TTGlyph name="bracketright" xMin="60" yMin="-457" xMax="528" yMax="1677">
      <contour>
        <pt x="528" y="-457" on="1"/>
        <pt x="60" y="-457" on="1"/>
        <pt x="60" y="-341" on="1"/>
        <pt x="251" y="-341" on="1"/>
        <pt x="251" y="1561" on="1"/>
        <pt x="60" y="1561" on="1"/>
        <pt x="60" y="1677" on="1"/>
        <pt x="528" y="1677" on="1"/>
      </contour>
    </TTGlyph>
    <TTGlyph name="breve" xMin="150" yMin="1265" xMax="802" yMax="1602">
      <contour>
        <pt x="802" y="1592" on="1"/>
        <pt x="802" y="1533" on="0"/>
        <pt x="759" y="1416" on="0"/>
        <pt x="677" y="1323" on="0"/>
        <pt x="555" y="1265" on="0"/>
        <pt x="476" y="1265" on="1"/>
        <pt x="397" y="1265" on="0"/>
        <pt x="275" y="1323" on="0"/>
        <pt x="193" y="1416" on="0"/>
        <pt x="150" y="1533" on="0"/>
        <pt x="150" y="1592" on="1"/>
        <pt x="267" y="1602" on="1"/>
        <pt x="267" y="1584" on="0"/>
        <pt x="289" y="1530" on="0"/>
        <pt x="338" y="1480" on="0"/>
        <pt x="418" y="1445" on="0"/>
        <pt x="476" y="1445" on="1"/>
        <pt x="534" y="1445" on="0"/>
        <pt x="614" y="1480" on="0"/>
        <pt x="663" y="1530" on="0"/>
        <pt x="685" y="1584" on="0"/>
        <pt x="685" y="1602" on="1"/>
      </contour>
    </TTGlyph>
    <TTGlyph name="breve.case" xMin="-81" yMin="1457" xMax="631" yMax="1759">
      <contour>
        <pt x="631" y="1749" on="1"/>
        <pt x="631" y="1702" on="0"/>
        <pt x="588" y="1599" on="0"/>
        <pt x="500" y="1513" on="0"/>
        <pt x="366" y="1457" on="0"/>
        <pt x="275" y="1457" on="1"/>
        <pt x="184" y="1457" on="0"/>
        <pt x="50" y="1513" on="0"/>
        <pt x="-38" y="1599" on="0"/>
        <pt x="-81" y="1702" on="0"/>
        <pt x="-81" y="1749" on="1"/>
        <pt x="36" y="1759" on="1"/>
        <pt x="36" y="1747" on="0"/>
        <pt x="55" y="1702" on="0"/>
        <pt x="107" y="1659" on="0"/>
        <pt x="200" y="1627" on="0"/>
        <pt x="275" y="1627" on="1"/>
        <pt x="350" y="1627" on="0"/>
        <pt x="443" y="1659" on="0"/>
        <pt x="495" y="1702" on="0"/>
        <pt x="514" y="1747" on="0"/>
        <pt x="514" y="1759" on="1"/>
      </contour>
    </TTGlyph>
    <TTGlyph name="breveacute" xMin="100" yMin="1265" xMax="778" yMax="1995">
      <contour>
        <pt x="752" y="1592" on="1"/>
        <pt x="752" y="1533" on="0"/>
        <pt x="709" y="1416" on="0"/>
        <pt x="627" y="1323" on="0"/>
        <pt x="505" y="1265" on="0"/>
        <pt x="426" y="1265" on="1"/>
        <pt x="347" y="1265" on="0"/>
        <pt x="225" y="1323" on="0"/>
        <pt x="143" y="1416" on="0"/>
        <pt x="100" y="1533" on="0"/>
        <pt x="100" y="1592" on="1"/>
        <pt x="217" y="1602" on="1"/>
        <pt x="217" y="1584" on="0"/>
        <pt x="239" y="1530" on="0"/>
        <pt x="288" y="1480" on="0"/>
        <pt x="368" y="1445" on="0"/>
        <pt x="426" y="1445" on="1"/>
        <pt x="484" y="1445" on="0"/>
        <pt x="564" y="1480" on="0"/>
        <pt x="613" y="1530" on="0"/>
        <pt x="635" y="1584" on="0"/>
        <pt x="635" y="1602" on="1"/>
      </contour>
      <contour>
        <pt x="323" y="1632" on="1"/>
        <pt x="506" y="1995" on="1"/>
        <pt x="778" y="1985" on="1"/>
        <pt x="778" y="1919" on="1"/>
        <pt x="478" y="1590" on="1"/>
        <pt x="323" y="1600" on="1"/>
      </contour>
    </TTGlyph>
    <TTGlyph name="breveacute.case" xMin="-81" yMin="1457" xMax="712" yMax="2063">
      <contour>
        <pt x="631" y="1749" on="1"/>
        <pt x="631" y="1702" on="0"/>
        <pt x="588" y="1599" on="0"/>
        <pt x="500" y="1513" on="0"/>
        <pt x="366" y="1457" on="0"/>
        <pt x="275" y="1457" on="1"/>
        <pt x="184" y="1457" on="0"/>
        <pt x="50" y="1513" on="0"/>
        <pt x="-38" y="1599" on="0"/>
        <pt x="-81" y="1702" on="0"/>
        <pt x="-81" y="1749" on="1"/>
        <pt x="36" y="1759" on="1"/>
        <pt x="36" y="1747" on="0"/>
        <pt x="55" y="1702" on="0"/>
        <pt x="107" y="1659" on="0"/>
        <pt x="200" y="1627" on="0"/>
        <pt x="275" y="1627" on="1"/>
        <pt x="350" y="1627" on="0"/>
        <pt x="443" y="1659" on="0"/>
        <pt x="495" y="1702" on="0"/>
        <pt x="514" y="1747" on="0"/>
        <pt x="514" y="1759" on="1"/>
      </contour>
      <contour>
        <pt x="152" y="1782" on="1"/>
        <pt x="430" y="2063" on="1"/>
        <pt x="712" y="2053" on="1"/>
        <pt x="712" y="1987" on="1"/>
        <pt x="317" y="1739" on="1"/>
        <pt x="152" y="1750" on="1"/>
      </contour>
    </TTGlyph>
    <TTGlyph name="brevegrave" xMin="63" yMin="1265" xMax="752" yMax="1995">
      <contour>
        <pt x="752" y="1592" on="1"/>
        <pt x="752" y="1533" on="0"/>
        <pt x="709" y="1416" on="0"/>
        <pt x="627" y="1323" on="0"/>
        <pt x="505" y="1265" on="0"/>
        <pt x="426" y="1265" on="1"/>
        <pt x="347" y="1265" on="0"/>
        <pt x="225" y="1323" on="0"/>
        <pt x="143" y="1416" on="0"/>
        <pt x="100" y="1533" on="0"/>
        <pt x="100" y="1592" on="1"/>
        <pt x="217" y="1602" on="1"/>
        <pt x="217" y="1584" on="0"/>
        <pt x="239" y="1530" on="0"/>
        <pt x="288" y="1480" on="0"/>
        <pt x="368" y="1445" on="0"/>
        <pt x="426" y="1445" on="1"/>
        <pt x="484" y="1445" on="0"/>
        <pt x="564" y="1480" on="0"/>
        <pt x="613" y="1530" on="0"/>
        <pt x="635" y="1584" on="0"/>
        <pt x="635" y="1602" on="1"/>
      </contour>
      <contour>
        <pt x="551" y="1600" on="1"/>
        <pt x="383" y="1590" on="1"/>
        <pt x="63" y="1919" on="1"/>
        <pt x="63" y="1985" on="1"/>
        <pt x="348" y="1995" on="1"/>
        <pt x="551" y="1632" on="1"/>
      </contour>
    </TTGlyph>
    <TTGlyph name="brevegrave.case" xMin="-167" yMin="1457" xMax="631" yMax="2063">
      <contour>
        <pt x="631" y="1749" on="1"/>
        <pt x="631" y="1702" on="0"/>
        <pt x="588" y="1599" on="0"/>
        <pt x="500" y="1513" on="0"/>
        <pt x="366" y="1457" on="0"/>
        <pt x="275" y="1457" on="1"/>
        <pt x="184" y="1457" on="0"/>
        <pt x="50" y="1513" on="0"/>
        <pt x="-38" y="1599" on="0"/>
        <pt x="-81" y="1702" on="0"/>
        <pt x="-81" y="1749" on="1"/>
        <pt x="36" y="1759" on="1"/>
        <pt x="36" y="1747" on="0"/>
        <pt x="55" y="1702" on="0"/>
        <pt x="107" y="1659" on="0"/>
        <pt x="200" y="1627" on="0"/>
        <pt x="275" y="1627" on="1"/>
        <pt x="350" y="1627" on="0"/>
        <pt x="443" y="1659" on="0"/>
        <pt x="495" y="1702" on="0"/>
        <pt x="514" y="1747" on="0"/>
        <pt x="514" y="1759" on="1"/>
      </contour>
      <contour>
        <pt x="393" y="1750" on="1"/>
        <pt x="228" y="1739" on="1"/>
        <pt x="-167" y="1987" on="1"/>
        <pt x="-167" y="2053" on="1"/>
        <pt x="115" y="2063" on="1"/>
        <pt x="393" y="1782" on="1"/>
      </contour>
    </TTGlyph>
    <TTGlyph name="brevehookabove" xMin="100" yMin="1265" xMax="752" yMax="1995">
      <contour>
        <pt x="752" y="1592" on="1"/>
        <pt x="752" y="1533" on="0"/>
        <pt x="709" y="1416" on="0"/>
        <pt x="627" y="1323" on="0"/>
        <pt x="505" y="1265" on="0"/>
        <pt x="426" y="1265" on="1"/>
        <pt x="347" y="1265" on="0"/>
        <pt x="225" y="1323" on="0"/>
        <pt x="143" y="1416" on="0"/>
        <pt x="100" y="1533" on="0"/>
        <pt x="100" y="1592" on="1"/>
        <pt x="217" y="1602" on="1"/>
        <pt x="217" y="1584" on="0"/>
        <pt x="239" y="1530" on="0"/>
        <pt x="288" y="1480" on="0"/>
        <pt x="368" y="1445" on="0"/>
        <pt x="426" y="1445" on="1"/>
        <pt x="484" y="1445" on="0"/>
        <pt x="564" y="1480" on="0"/>
        <pt x="613" y="1530" on="0"/>
        <pt x="635" y="1584" on="0"/>
        <pt x="635" y="1602" on="1"/>
      </contour>
      <contour>
        <pt x="550" y="1693" on="1"/>
        <pt x="510" y="1670" on="0"/>
        <pt x="478" y="1643" on="0"/>
        <pt x="478" y="1629" on="1"/>
        <pt x="478" y="1617" on="0"/>
        <pt x="483" y="1607" on="1"/>
        <pt x="485" y="1601" on="0"/>
        <pt x="488" y="1596" on="1"/>
        <pt x="386" y="1569" on="1"/>
        <pt x="376" y="1582" on="0"/>
        <pt x="368" y="1597" on="1"/>
        <pt x="361" y="1610" on="0"/>
        <pt x="351" y="1641" on="0"/>
        <pt x="351" y="1658" on="1"/>
        <pt x="351" y="1673" on="0"/>
        <pt x="357" y="1702" on="0"/>
        <pt x="375" y="1732" on="0"/>
        <pt x="406" y="1762" on="0"/>
        <pt x="431" y="1779" on="1"/>
        <pt x="472" y="1807" on="0"/>
        <pt x="498" y="1841" on="0"/>
        <pt x="498" y="1861" on="1"/>
        <pt x="498" y="1878" on="0"/>
        <pt x="477" y="1901" on="0"/>
        <pt x="452" y="1901" on="1"/>
        <pt x="438" y="1901" on="0"/>
        <pt x="415" y="1895" on="0"/>
        <pt x="406" y="1892" on="1"/>
        <pt x="395" y="1888" on="0"/>
        <pt x="387" y="1883" on="1"/>
        <pt x="363" y="1802" on="1"/>
        <pt x="255" y="1807" on="1"/>
        <pt x="255" y="1940" on="1"/>
        <pt x="284" y="1955" on="0"/>
        <pt x="319" y="1967" on="1"/>
        <pt x="349" y="1978" on="0"/>
        <pt x="429" y="1995" on="0"/>
        <pt x="476" y="1995" on="1"/>
        <pt x="570" y="1995" on="0"/>
        <pt x="674" y="1925" on="0"/>
        <pt x="674" y="1865" on="1"/>
        <pt x="674" y="1832" on="0"/>
        <pt x="657" y="1783" on="0"/>
        <pt x="625" y="1743" on="0"/>
        <pt x="579" y="1709" on="0"/>
      </contour>
    </TTGlyph>
    <TTGlyph name="brevehookabove.case" xMin="-81" yMin="1457" xMax="631" yMax="2202">
      <contour>
        <pt x="631" y="1749" on="1"/>
        <pt x="631" y="1702" on="0"/>
        <pt x="588" y="1599" on="0"/>
        <pt x="500" y="1513" on="0"/>
        <pt x="366" y="1457" on="0"/>
        <pt x="275" y="1457" on="1"/>
        <pt x="184" y="1457" on="0"/>
        <pt x="50" y="1513" on="0"/>
        <pt x="-38" y="1599" on="0"/>
        <pt x="-81" y="1702" on="0"/>
        <pt x="-81" y="1749" on="1"/>
        <pt x="36" y="1759" on="1"/>
        <pt x="36" y="1747" on="0"/>
        <pt x="55" y="1702" on="0"/>
        <pt x="107" y="1659" on="0"/>
        <pt x="200" y="1627" on="0"/>
        <pt x="275" y="1627" on="1"/>
        <pt x="350" y="1627" on="0"/>
        <pt x="443" y="1659" on="0"/>
        <pt x="495" y="1702" on="0"/>
        <pt x="514" y="1747" on="0"/>
        <pt x="514" y="1759" on="1"/>
      </contour>
      <contour>
        <pt x="390" y="1900" on="1"/>
        <pt x="350" y="1877" on="0"/>
        <pt x="318" y="1850" on="0"/>
        <pt x="318" y="1836" on="1"/>
        <pt x="318" y="1824" on="0"/>
        <pt x="323" y="1814" on="1"/>
        <pt x="325" y="1808" on="0"/>
        <pt x="328" y="1803" on="1"/>
        <pt x="226" y="1776" on="1"/>
        <pt x="216" y="1789" on="0"/>
        <pt x="208" y="1804" on="1"/>
        <pt x="201" y="1817" on="0"/>
        <pt x="191" y="1848" on="0"/>
        <pt x="191" y="1865" on="1"/>
        <pt x="191" y="1880" on="0"/>
        <pt x="197" y="1909" on="0"/>
        <pt x="215" y="1939" on="0"/>
        <pt x="246" y="1969" on="0"/>
        <pt x="271" y="1986" on="1"/>
        <pt x="312" y="2014" on="0"/>
        <pt x="338" y="2048" on="0"/>
        <pt x="338" y="2068" on="1"/>
        <pt x="338" y="2085" on="0"/>
        <pt x="317" y="2108" on="0"/>
        <pt x="292" y="2108" on="1"/>
        <pt x="278" y="2108" on="0"/>
        <pt x="255" y="2102" on="0"/>
        <pt x="246" y="2099" on="1"/>
        <pt x="235" y="2095" on="0"/>
        <pt x="227" y="2090" on="1"/>
        <pt x="203" y="2009" on="1"/>
        <pt x="95" y="2014" on="1"/>
        <pt x="95" y="2147" on="1"/>
        <pt x="124" y="2162" on="0"/>
        <pt x="159" y="2174" on="1"/>
        <pt x="189" y="2185" on="0"/>
        <pt x="269" y="2202" on="0"/>
        <pt x="316" y="2202" on="1"/>
        <pt x="410" y="2202" on="0"/>
        <pt x="514" y="2132" on="0"/>
        <pt x="514" y="2072" on="1"/>
        <pt x="514" y="2039" on="0"/>
        <pt x="497" y="1990" on="0"/>
        <pt x="465" y="1950" on="0"/>
        <pt x="419" y="1916" on="0"/>
      </contour>
    </TTGlyph>
    <TTGlyph name="brevetilde" xMin="4" yMin="1265" xMax="845" yMax="1966">
      <contour>
        <pt x="752" y="1592" on="1"/>
        <pt x="752" y="1533" on="0"/>
        <pt x="709" y="1416" on="0"/>
        <pt x="627" y="1323" on="0"/>
        <pt x="505" y="1265" on="0"/>
        <pt x="426" y="1265" on="1"/>
        <pt x="347" y="1265" on="0"/>
        <pt x="225" y="1323" on="0"/>
        <pt x="143" y="1416" on="0"/>
        <pt x="100" y="1533" on="0"/>
        <pt x="100" y="1592" on="1"/>
        <pt x="217" y="1602" on="1"/>
        <pt x="217" y="1584" on="0"/>
        <pt x="239" y="1530" on="0"/>
        <pt x="288" y="1480" on="0"/>
        <pt x="368" y="1445" on="0"/>
        <pt x="426" y="1445" on="1"/>
        <pt x="484" y="1445" on="0"/>
        <pt x="564" y="1480" on="0"/>
        <pt x="613" y="1530" on="0"/>
        <pt x="635" y="1584" on="0"/>
        <pt x="635" y="1602" on="1"/>
      </contour>
      <contour>
        <pt x="4" y="1712" on="1"/>
        <pt x="4" y="1839" on="0"/>
        <pt x="127" y="1966" on="0"/>
        <pt x="234" y="1966" on="1"/>
        <pt x="291" y="1966" on="0"/>
        <pt x="408" y="1925" on="0"/>
        <pt x="514" y="1875" on="0"/>
        <pt x="605" y="1834" on="0"/>
        <pt x="635" y="1834" on="1"/>
        <pt x="669" y="1834" on="0"/>
        <pt x="708" y="1893" on="0"/>
        <pt x="708" y="1954" on="1"/>
        <pt x="845" y="1964" on="1"/>
        <pt x="845" y="1892" on="1"/>
        <pt x="845" y="1773" on="0"/>
        <pt x="733" y="1638" on="0"/>
        <pt x="627" y="1638" on="1"/>
        <pt x="576" y="1638" on="0"/>
        <pt x="455" y="1679" on="0"/>
        <pt x="339" y="1729" on="0"/>
        <pt x="239" y="1770" on="0"/>
        <pt x="210" y="1770" on="1"/>
        <pt x="174" y="1770" on="0"/>
        <pt x="133" y="1732" on="0"/>
        <pt x="133" y="1672" on="1"/>
        <pt x="4" y="1662" on="1"/>
      </contour>
    </TTGlyph>
    <TTGlyph name="brevetilde.case" xMin="-197" yMin="1457" xMax="744" yMax="2116">
      <contour>
        <pt x="631" y="1749" on="1"/>
        <pt x="631" y="1702" on="0"/>
        <pt x="588" y="1599" on="0"/>
        <pt x="500" y="1513" on="0"/>
        <pt x="366" y="1457" on="0"/>
        <pt x="275" y="1457" on="1"/>
        <pt x="184" y="1457" on="0"/>
        <pt x="50" y="1513" on="0"/>
        <pt x="-38" y="1599" on="0"/>
        <pt x="-81" y="1702" on="0"/>
        <pt x="-81" y="1749" on="1"/>
        <pt x="36" y="1759" on="1"/>
        <pt x="36" y="1747" on="0"/>
        <pt x="55" y="1702" on="0"/>
        <pt x="107" y="1659" on="0"/>
        <pt x="200" y="1627" on="0"/>
        <pt x="275" y="1627" on="1"/>
        <pt x="350" y="1627" on="0"/>
        <pt x="443" y="1659" on="0"/>
        <pt x="495" y="1702" on="0"/>
        <pt x="514" y="1747" on="0"/>
        <pt x="514" y="1759" on="1"/>
      </contour>
      <contour>
        <pt x="-197" y="1862" on="1"/>
        <pt x="-197" y="1989" on="0"/>
        <pt x="-63" y="2116" on="0"/>
        <pt x="53" y="2116" on="1"/>
        <pt x="119" y="2116" on="0"/>
        <pt x="253" y="2075" on="0"/>
        <pt x="376" y="2025" on="0"/>
        <pt x="479" y="1984" on="0"/>
        <pt x="514" y="1984" on="1"/>
        <pt x="557" y="1984" on="0"/>
        <pt x="607" y="2043" on="0"/>
        <pt x="607" y="2104" on="1"/>
        <pt x="744" y="2114" on="1"/>
        <pt x="744" y="2042" on="1"/>
        <pt x="744" y="1923" on="0"/>
        <pt x="621" y="1788" on="0"/>
        <pt x="506" y="1788" on="1"/>
        <pt x="448" y="1788" on="0"/>
        <pt x="310" y="1829" on="0"/>
        <pt x="177" y="1879" on="0"/>
        <pt x="63" y="1920" on="0"/>
        <pt x="29" y="1920" on="1"/>
        <pt x="6" y="1920" on="0"/>
        <pt x="-29" y="1912" on="0"/>
        <pt x="-55" y="1890" on="0"/>
        <pt x="-68" y="1852" on="0"/>
        <pt x="-68" y="1822" on="1"/>
        <pt x="-197" y="1812" on="1"/>
      </contour>
    </TTGlyph>
    <TTGlyph name="brokenbar" xMin="245" yMin="-537" xMax="413" yMax="1670">
      <contour>
        <pt x="245" y="320" on="1"/>
        <pt x="413" y="320" on="1"/>
        <pt x="413" y="-537" on="1"/>
        <pt x="245" y="-537" on="1"/>
      </contour>
      <contour>
        <pt x="245" y="1670" on="1"/>
        <pt x="413" y="1670" on="1"/>
        <pt x="413" y="813" on="1"/>
        <pt x="245" y="813" on="1"/>
      </contour>
    </TTGlyph>
    <TTGlyph name="bullet" xMin="120" yMin="385" xMax="637" yMax="904">
      <contour>
        <pt x="120" y="577" on="1"/>
        <pt x="120" y="642" on="0"/>
        <pt x="150" y="761" on="0"/>
        <pt x="203" y="851" on="0"/>
        <pt x="273" y="904" on="0"/>
        <pt x="313" y="904" on="1"/>
        <pt x="382" y="904" on="0"/>
        <pt x="500" y="873" on="0"/>
        <pt x="587" y="821" on="0"/>
        <pt x="637" y="749" on="0"/>
        <pt x="637" y="709" on="1"/>
        <pt x="637" y="644" on="0"/>
        <pt x="607" y="527" on="0"/>
        <pt x="554" y="438" on="0"/>
        <pt x="484" y="385" on="0"/>
        <pt x="444" y="385" on="1"/>
        <pt x="376" y="385" on="0"/>
        <pt x="257" y="415" on="0"/>
        <pt x="170" y="468" on="0"/>
        <pt x="120" y="538" on="0"/>
      </contour>
    </TTGlyph>
    <TTGlyph name="c" xMin="62" yMin="-22" xMax="942" yMax="1107">
      <contour>
        <pt x="62" y="492" on="1"/>
        <pt x="62" y="794" on="0"/>
        <pt x="345" y="1107" on="0"/>
        <pt x="594" y="1107" on="1"/>
        <pt x="675" y="1107" on="0"/>
        <pt x="849" y="1074" on="0"/>
        <pt x="923" y="1044" on="1"/>
        <pt x="942" y="790" on="1"/>
        <pt x="772" y="767" on="1"/>
        <pt x="699" y="957" on="1"/>
        <pt x="666" y="963" on="0"/>
        <pt x="603" y="967" on="0"/>
        <pt x="575" y="967" on="1"/>
        <pt x="528" y="967" on="0"/>
        <pt x="435" y="944" on="0"/>
        <pt x="402" y="927" on="1"/>
        <pt x="382" y="860" on="0"/>
        <pt x="352" y="658" on="0"/>
        <pt x="352" y="552" on="1"/>
        <pt x="352" y="443" on="1"/>
        <pt x="352" y="283" on="0"/>
        <pt x="499" y="118" on="0"/>
        <pt x="639" y="118" on="1"/>
        <pt x="703" y="118" on="0"/>
        <pt x="871" y="164" on="0"/>
        <pt x="934" y="191" on="1"/>
        <pt x="934" y="75" on="1"/>
        <pt x="858" y="31" on="0"/>
        <pt x="655" y="-22" on="0"/>
        <pt x="550" y="-22" on="1"/>
        <pt x="320" y="-22" on="0"/>
        <pt x="62" y="196" on="0"/>
        <pt x="62" y="399" on="1"/>
      </contour>
    </TTGlyph>
    <TTGlyph name="cacute" xMin="62" yMin="-22" xMax="942" yMax="1670">
      <component glyphName="c" x="0" y="0" flags="0x204"/>
      <component glyphName="acute" x="279" y="0" flags="0x4"/>
    </TTGlyph>
    <TTGlyph name="caron" xMin="200" yMin="1255" xMax="889" yMax="1670">
      <contour>
        <pt x="200" y="1660" on="1"/>
        <pt x="375" y="1670" on="1"/>
        <pt x="562" y="1450" on="1"/>
        <pt x="744" y="1670" on="1"/>
        <pt x="889" y="1660" on="1"/>
        <pt x="889" y="1628" on="1"/>
        <pt x="666" y="1255" on="1"/>
        <pt x="423" y="1265" on="1"/>
        <pt x="200" y="1628" on="1"/>
      </contour>
    </TTGlyph>
    <TTGlyph name="caron.alt" xMin="50" yMin="1157" xMax="256" yMax="1540">
      <contour>
        <pt x="50" y="1540" on="1"/>
        <pt x="256" y="1540" on="1"/>
        <pt x="256" y="1478" on="1"/>
        <pt x="193" y="1157" on="1"/>
        <pt x="50" y="1157" on="1"/>
      </contour>
    </TTGlyph>
    <TTGlyph name="caron.case" xMin="-88" yMin="1460" xMax="651" yMax="1794">
      <contour>
        <pt x="-88" y="1784" on="1"/>
        <pt x="87" y="1794" on="1"/>
        <pt x="300" y="1622" on="1"/>
        <pt x="506" y="1794" on="1"/>
        <pt x="651" y="1784" on="1"/>
        <pt x="651" y="1752" on="1"/>
        <pt x="388" y="1460" on="1"/>
        <pt x="165" y="1470" on="1"/>
        <pt x="-88" y="1752" on="1"/>
      </contour>
    </TTGlyph>
    <TTGlyph name="ccaron" xMin="62" yMin="-22" xMax="945" yMax="1670">
      <component glyphName="c" x="0" y="0" flags="0x204"/>
      <component glyphName="caron" x="56" y="0" flags="0x4"/>
    </TTGlyph>
    <TTGlyph name="ccedilla" xMin="62" yMin="-457" xMax="942" yMax="1107">
      <contour>
        <pt x="62" y="492" on="1"/>
        <pt x="62" y="794" on="0"/>
        <pt x="345" y="1107" on="0"/>
        <pt x="594" y="1107" on="1"/>
        <pt x="675" y="1107" on="0"/>
        <pt x="849" y="1074" on="0"/>
        <pt x="923" y="1044" on="1"/>
        <pt x="942" y="790" on="1"/>
        <pt x="772" y="767" on="1"/>
        <pt x="699" y="957" on="1"/>
        <pt x="666" y="963" on="0"/>
        <pt x="603" y="967" on="0"/>
        <pt x="575" y="967" on="1"/>
        <pt x="528" y="967" on="0"/>
        <pt x="435" y="944" on="0"/>
        <pt x="402" y="927" on="1"/>
        <pt x="382" y="860" on="0"/>
        <pt x="352" y="658" on="0"/>
        <pt x="352" y="552" on="1"/>
        <pt x="352" y="443" on="1"/>
        <pt x="352" y="283" on="0"/>
        <pt x="499" y="118" on="0"/>
        <pt x="639" y="118" on="1"/>
        <pt x="703" y="118" on="0"/>
        <pt x="871" y="164" on="0"/>
        <pt x="934" y="191" on="1"/>
        <pt x="934" y="75" on="1"/>
        <pt x="858" y="31" on="0"/>
        <pt x="756" y="4" on="1"/>
        <pt x="684" y="-14" on="0"/>
        <pt x="610" y="-19" on="1"/>
        <pt x="581" y="-95" on="1"/>
        <pt x="628" y="-104" on="0"/>
        <pt x="704" y="-132" on="0"/>
        <pt x="757" y="-175" on="0"/>
        <pt x="786" y="-234" on="0"/>
        <pt x="786" y="-275" on="1"/>
        <pt x="786" y="-315" on="0"/>
        <pt x="751" y="-382" on="0"/>
        <pt x="686" y="-430" on="0"/>
        <pt x="594" y="-457" on="0"/>
        <pt x="538" y="-457" on="1"/>
        <pt x="492" y="-457" on="0"/>
        <pt x="416" y="-443" on="0"/>
        <pt x="388" y="-434" on="1"/>
        <pt x="355" y="-423" on="0"/>
        <pt x="328" y="-410" on="1"/>
        <pt x="328" y="-297" on="1"/>
        <pt x="356" y="-308" on="0"/>
        <pt x="387" y="-317" on="1"/>
        <pt x="413" y="-325" on="0"/>
        <pt x="477" y="-337" on="0"/>
        <pt x="509" y="-337" on="1"/>
        <pt x="546" y="-337" on="0"/>
        <pt x="567" y="-334" on="1"/>
        <pt x="578" y="-332" on="0"/>
        <pt x="588" y="-330" on="1"/>
        <pt x="589" y="-323" on="0"/>
        <pt x="591" y="-315" on="1"/>
        <pt x="593" y="-308" on="0"/>
        <pt x="595" y="-293" on="0"/>
        <pt x="595" y="-285" on="1"/>
        <pt x="595" y="-268" on="0"/>
        <pt x="581" y="-241" on="0"/>
        <pt x="547" y="-220" on="0"/>
        <pt x="491" y="-203" on="0"/>
        <pt x="448" y="-196" on="1"/>
        <pt x="402" y="-124" on="1"/>
        <pt x="442" y="-15" on="1"/>
        <pt x="288" y="5" on="0"/>
        <pt x="191" y="87" on="1"/>
        <pt x="62" y="196" on="0"/>
        <pt x="62" y="399" on="1"/>
      </contour>
    </TTGlyph>
    <TTGlyph name="ccircumflex" xMin="62" yMin="-22" xMax="945" yMax="1680">
      <component glyphName="c" x="0" y="0" flags="0x204"/>
      <component glyphName="circumflex" x="56" y="0" flags="0x4"/>
    </TTGlyph>
    <TTGlyph name="cdotaccent" xMin="62" yMin="-22" xMax="942" yMax="1562">
      <component glyphName="c" x="0" y="0" flags="0x204"/>
      <component glyphName="dotaccent" x="208" y="0" flags="0x4"/>
    </TTGlyph>
    <TTGlyph name="cedilla" xMin="200" yMin="-457" xMax="658" yMax="37">
      <contour>
        <pt x="505" y="37" on="1"/>
        <pt x="453" y="-95" on="1"/>
        <pt x="500" y="-104" on="0"/>
        <pt x="576" y="-132" on="0"/>
        <pt x="629" y="-175" on="0"/>
        <pt x="658" y="-234" on="0"/>
        <pt x="658" y="-275" on="1"/>
        <pt x="658" y="-315" on="0"/>
        <pt x="623" y="-382" on="0"/>
        <pt x="558" y="-430" on="0"/>
        <pt x="466" y="-457" on="0"/>
        <pt x="410" y="-457" on="1"/>
        <pt x="364" y="-457" on="0"/>
        <pt x="288" y="-443" on="0"/>
        <pt x="260" y="-434" on="1"/>
        <pt x="227" y="-423" on="0"/>
        <pt x="200" y="-410" on="1"/>
        <pt x="200" y="-297" on="1"/>
        <pt x="228" y="-308" on="0"/>
        <pt x="259" y="-317" on="1"/>
        <pt x="285" y="-325" on="0"/>
        <pt x="349" y="-337" on="0"/>
        <pt x="381" y="-337" on="1"/>
        <pt x="418" y="-337" on="0"/>
        <pt x="439" y="-334" on="1"/>
        <pt x="450" y="-332" on="0"/>
        <pt x="460" y="-330" on="1"/>
        <pt x="461" y="-323" on="0"/>
        <pt x="463" y="-315" on="1"/>
        <pt x="465" y="-308" on="0"/>
        <pt x="467" y="-293" on="0"/>
        <pt x="467" y="-285" on="1"/>
        <pt x="467" y="-268" on="0"/>
        <pt x="453" y="-241" on="0"/>
        <pt x="419" y="-220" on="0"/>
        <pt x="363" y="-203" on="0"/>
        <pt x="320" y="-196" on="1"/>
        <pt x="274" y="-124" on="1"/>
        <pt x="333" y="37" on="1"/>
      </contour>
    </TTGlyph>
    <TTGlyph name="cent" xMin="110" yMin="-245" xMax="990" yMax="1353">
      <contour>
        <pt x="110" y="492" on="1"/>
        <pt x="110" y="794" on="0"/>
        <pt x="251" y="950" on="1"/>
        <pt x="361" y="1071" on="0"/>
        <pt x="535" y="1099" on="1"/>
        <pt x="535" y="1353" on="1"/>
        <pt x="693" y="1353" on="1"/>
        <pt x="693" y="1105" on="1"/>
        <pt x="750" y="1102" on="0"/>
        <pt x="810" y="1090" on="1"/>
        <pt x="897" y="1074" on="0"/>
        <pt x="971" y="1044" on="1"/>
        <pt x="990" y="790" on="1"/>
        <pt x="820" y="767" on="1"/>
        <pt x="747" y="957" on="1"/>
        <pt x="719" y="962" on="0"/>
        <pt x="693" y="964" on="1"/>
        <pt x="693" y="118" on="1"/>
        <pt x="755" y="119" on="0"/>
        <pt x="835" y="141" on="1"/>
        <pt x="919" y="164" on="0"/>
        <pt x="982" y="191" on="1"/>
        <pt x="982" y="75" on="1"/>
        <pt x="906" y="31" on="0"/>
        <pt x="804" y="4" on="1"/>
        <pt x="749" y="-10" on="0"/>
        <pt x="693" y="-16" on="1"/>
        <pt x="693" y="-245" on="1"/>
        <pt x="535" y="-245" on="1"/>
        <pt x="535" y="-20" on="1"/>
        <pt x="350" y="-6" on="0"/>
        <pt x="239" y="87" on="1"/>
        <pt x="110" y="196" on="0"/>
        <pt x="110" y="399" on="1"/>
      </contour>
      <contour>
        <pt x="529" y="955" on="1"/>
        <pt x="483" y="944" on="0"/>
        <pt x="450" y="927" on="1"/>
        <pt x="430" y="860" on="0"/>
        <pt x="400" y="658" on="0"/>
        <pt x="400" y="552" on="1"/>
        <pt x="400" y="443" on="1"/>
        <pt x="400" y="283" on="0"/>
        <pt x="473" y="200" on="1"/>
        <pt x="500" y="171" on="0"/>
        <pt x="535" y="151" on="1"/>
        <pt x="535" y="956" on="1"/>
        <pt x="532" y="956" on="0"/>
      </contour>
    </TTGlyph>
    <TTGlyph name="circumflex" xMin="200" yMin="1265" xMax="889" yMax="1680">
      <contour>
        <pt x="889" y="1275" on="1"/>
        <pt x="714" y="1265" on="1"/>
        <pt x="526" y="1484" on="1"/>
        <pt x="345" y="1265" on="1"/>
        <pt x="200" y="1275" on="1"/>
        <pt x="200" y="1307" on="1"/>
        <pt x="423" y="1680" on="1"/>
        <pt x="666" y="1670" on="1"/>
        <pt x="889" y="1307" on="1"/>
      </contour>
    </TTGlyph>
    <TTGlyph name="circumflex.case" xMin="-88" yMin="1460" xMax="651" yMax="1794">
      <contour>
        <pt x="651" y="1470" on="1"/>
        <pt x="476" y="1460" on="1"/>
        <pt x="263" y="1631" on="1"/>
        <pt x="57" y="1460" on="1"/>
        <pt x="-88" y="1470" on="1"/>
        <pt x="-88" y="1502" on="1"/>
        <pt x="175" y="1794" on="1"/>
        <pt x="398" y="1784" on="1"/>
        <pt x="651" y="1502" on="1"/>
      </contour>
    </TTGlyph>
    <TTGlyph name="circumflexacute" xMin="121" yMin="1265" xMax="1068" yMax="1809">
      <contour>
        <pt x="810" y="1275" on="1"/>
        <pt x="635" y="1265" on="1"/>
        <pt x="447" y="1484" on="1"/>
        <pt x="266" y="1265" on="1"/>
        <pt x="121" y="1275" on="1"/>
        <pt x="121" y="1307" on="1"/>
        <pt x="344" y="1680" on="1"/>
        <pt x="587" y="1670" on="1"/>
        <pt x="810" y="1307" on="1"/>
      </contour>
      <contour>
        <pt x="727" y="1572" on="1"/>
        <pt x="856" y="1809" on="1"/>
        <pt x="1068" y="1799" on="1"/>
        <pt x="1068" y="1733" on="1"/>
        <pt x="852" y="1530" on="1"/>
        <pt x="727" y="1540" on="1"/>
      </contour>
    </TTGlyph>
    <TTGlyph name="circumflexacute.case" xMin="-88" yMin="1460" xMax="945" yMax="1916">
      <contour>
        <pt x="651" y="1470" on="1"/>
        <pt x="476" y="1460" on="1"/>
        <pt x="263" y="1631" on="1"/>
        <pt x="57" y="1460" on="1"/>
        <pt x="-88" y="1470" on="1"/>
        <pt x="-88" y="1502" on="1"/>
        <pt x="175" y="1794" on="1"/>
        <pt x="398" y="1784" on="1"/>
        <pt x="651" y="1502" on="1"/>
      </contour>
      <contour>
        <pt x="532" y="1734" on="1"/>
        <pt x="723" y="1916" on="1"/>
        <pt x="945" y="1906" on="1"/>
        <pt x="945" y="1840" on="1"/>
        <pt x="667" y="1691" on="1"/>
        <pt x="532" y="1702" on="1"/>
      </contour>
    </TTGlyph>
    <TTGlyph name="circumflexgrave" xMin="-168" yMin="1265" xMax="810" yMax="1809">
      <contour>
        <pt x="810" y="1275" on="1"/>
        <pt x="635" y="1265" on="1"/>
        <pt x="447" y="1484" on="1"/>
        <pt x="266" y="1265" on="1"/>
        <pt x="121" y="1275" on="1"/>
        <pt x="121" y="1307" on="1"/>
        <pt x="344" y="1680" on="1"/>
        <pt x="587" y="1670" on="1"/>
        <pt x="810" y="1307" on="1"/>
      </contour>
      <contour>
        <pt x="200" y="1540" on="1"/>
        <pt x="62" y="1530" on="1"/>
        <pt x="-168" y="1733" on="1"/>
        <pt x="-168" y="1799" on="1"/>
        <pt x="57" y="1809" on="1"/>
        <pt x="200" y="1572" on="1"/>
      </contour>
    </TTGlyph>
    <TTGlyph name="circumflexgrave.case" xMin="-380" yMin="1460" xMax="651" yMax="1916">
      <contour>
        <pt x="651" y="1470" on="1"/>
        <pt x="476" y="1460" on="1"/>
        <pt x="263" y="1631" on="1"/>
        <pt x="57" y="1460" on="1"/>
        <pt x="-88" y="1470" on="1"/>
        <pt x="-88" y="1502" on="1"/>
        <pt x="175" y="1794" on="1"/>
        <pt x="398" y="1784" on="1"/>
        <pt x="651" y="1502" on="1"/>
      </contour>
      <contour>
        <pt x="33" y="1702" on="1"/>
        <pt x="-102" y="1691" on="1"/>
        <pt x="-380" y="1840" on="1"/>
        <pt x="-380" y="1906" on="1"/>
        <pt x="-158" y="1916" on="1"/>
        <pt x="33" y="1734" on="1"/>
      </contour>
    </TTGlyph>
    <TTGlyph name="circumflexhookabove" xMin="121" yMin="1265" xMax="1055" yMax="1939">
      <contour>
        <pt x="810" y="1275" on="1"/>
        <pt x="635" y="1265" on="1"/>
        <pt x="447" y="1484" on="1"/>
        <pt x="266" y="1265" on="1"/>
        <pt x="121" y="1275" on="1"/>
        <pt x="121" y="1307" on="1"/>
        <pt x="344" y="1680" on="1"/>
        <pt x="587" y="1670" on="1"/>
        <pt x="810" y="1307" on="1"/>
      </contour>
      <contour>
        <pt x="931" y="1637" on="1"/>
        <pt x="891" y="1614" on="0"/>
        <pt x="859" y="1587" on="0"/>
        <pt x="859" y="1573" on="1"/>
        <pt x="859" y="1561" on="0"/>
        <pt x="864" y="1551" on="1"/>
        <pt x="866" y="1545" on="0"/>
        <pt x="869" y="1540" on="1"/>
        <pt x="767" y="1513" on="1"/>
        <pt x="757" y="1526" on="0"/>
        <pt x="749" y="1541" on="1"/>
        <pt x="742" y="1554" on="0"/>
        <pt x="732" y="1585" on="0"/>
        <pt x="732" y="1602" on="1"/>
        <pt x="732" y="1617" on="0"/>
        <pt x="738" y="1646" on="0"/>
        <pt x="756" y="1676" on="0"/>
        <pt x="787" y="1706" on="0"/>
        <pt x="812" y="1723" on="1"/>
        <pt x="853" y="1751" on="0"/>
        <pt x="879" y="1785" on="0"/>
        <pt x="879" y="1805" on="1"/>
        <pt x="879" y="1822" on="0"/>
        <pt x="858" y="1845" on="0"/>
        <pt x="833" y="1845" on="1"/>
        <pt x="819" y="1845" on="0"/>
        <pt x="796" y="1839" on="0"/>
        <pt x="787" y="1836" on="1"/>
        <pt x="776" y="1832" on="0"/>
        <pt x="768" y="1827" on="1"/>
        <pt x="744" y="1746" on="1"/>
        <pt x="636" y="1751" on="1"/>
        <pt x="636" y="1884" on="1"/>
        <pt x="665" y="1899" on="0"/>
        <pt x="700" y="1911" on="1"/>
        <pt x="730" y="1922" on="0"/>
        <pt x="810" y="1939" on="0"/>
        <pt x="857" y="1939" on="1"/>
        <pt x="951" y="1939" on="0"/>
        <pt x="1055" y="1869" on="0"/>
        <pt x="1055" y="1809" on="1"/>
        <pt x="1055" y="1776" on="0"/>
        <pt x="1038" y="1727" on="0"/>
        <pt x="1006" y="1687" on="0"/>
        <pt x="960" y="1653" on="0"/>
      </contour>
    </TTGlyph>
    <TTGlyph name="circumflexhookabove.case" xMin="-88" yMin="1460" xMax="889" yMax="2101">
      <contour>
        <pt x="651" y="1470" on="1"/>
        <pt x="476" y="1460" on="1"/>
        <pt x="263" y="1631" on="1"/>
        <pt x="57" y="1460" on="1"/>
        <pt x="-88" y="1470" on="1"/>
        <pt x="-88" y="1502" on="1"/>
        <pt x="175" y="1794" on="1"/>
        <pt x="398" y="1784" on="1"/>
        <pt x="651" y="1502" on="1"/>
      </contour>
      <contour>
        <pt x="765" y="1799" on="1"/>
        <pt x="725" y="1776" on="0"/>
        <pt x="693" y="1749" on="0"/>
        <pt x="693" y="1735" on="1"/>
        <pt x="693" y="1723" on="0"/>
        <pt x="698" y="1713" on="1"/>
        <pt x="700" y="1707" on="0"/>
        <pt x="703" y="1702" on="1"/>
        <pt x="601" y="1675" on="1"/>
        <pt x="591" y="1688" on="0"/>
        <pt x="583" y="1703" on="1"/>
        <pt x="576" y="1716" on="0"/>
        <pt x="566" y="1747" on="0"/>
        <pt x="566" y="1764" on="1"/>
        <pt x="566" y="1779" on="0"/>
        <pt x="572" y="1808" on="0"/>
        <pt x="590" y="1838" on="0"/>
        <pt x="621" y="1868" on="0"/>
        <pt x="646" y="1885" on="1"/>
        <pt x="687" y="1913" on="0"/>
        <pt x="713" y="1947" on="0"/>
        <pt x="713" y="1967" on="1"/>
        <pt x="713" y="1984" on="0"/>
        <pt x="692" y="2007" on="0"/>
        <pt x="667" y="2007" on="1"/>
        <pt x="653" y="2007" on="0"/>
        <pt x="630" y="2001" on="0"/>
        <pt x="621" y="1998" on="1"/>
        <pt x="610" y="1994" on="0"/>
        <pt x="602" y="1989" on="1"/>
        <pt x="578" y="1908" on="1"/>
        <pt x="470" y="1913" on="1"/>
        <pt x="470" y="2046" on="1"/>
        <pt x="499" y="2061" on="0"/>
        <pt x="534" y="2073" on="1"/>
        <pt x="564" y="2084" on="0"/>
        <pt x="644" y="2101" on="0"/>
        <pt x="691" y="2101" on="1"/>
        <pt x="785" y="2101" on="0"/>
        <pt x="889" y="2031" on="0"/>
        <pt x="889" y="1971" on="1"/>
        <pt x="889" y="1938" on="0"/>
        <pt x="872" y="1889" on="0"/>
        <pt x="840" y="1849" on="0"/>
        <pt x="794" y="1815" on="0"/>
      </contour>
    </TTGlyph>
    <TTGlyph name="circumflextilde" xMin="36" yMin="1265" xMax="877" yMax="2074">
      <contour>
        <pt x="36" y="1820" on="1"/>
        <pt x="36" y="1947" on="0"/>
        <pt x="159" y="2074" on="0"/>
        <pt x="266" y="2074" on="1"/>
        <pt x="323" y="2074" on="0"/>
        <pt x="440" y="2033" on="0"/>
        <pt x="546" y="1983" on="0"/>
        <pt x="637" y="1942" on="0"/>
        <pt x="667" y="1942" on="1"/>
        <pt x="701" y="1942" on="0"/>
        <pt x="740" y="2001" on="0"/>
        <pt x="740" y="2062" on="1"/>
        <pt x="877" y="2072" on="1"/>
        <pt x="877" y="2000" on="1"/>
        <pt x="877" y="1881" on="0"/>
        <pt x="765" y="1746" on="0"/>
        <pt x="659" y="1746" on="1"/>
        <pt x="608" y="1746" on="0"/>
        <pt x="487" y="1787" on="0"/>
        <pt x="371" y="1837" on="0"/>
        <pt x="271" y="1878" on="0"/>
        <pt x="242" y="1878" on="1"/>
        <pt x="206" y="1878" on="0"/>
        <pt x="165" y="1840" on="0"/>
        <pt x="165" y="1780" on="1"/>
        <pt x="36" y="1770" on="1"/>
      </contour>
      <contour>
        <pt x="810" y="1275" on="1"/>
        <pt x="635" y="1265" on="1"/>
        <pt x="447" y="1484" on="1"/>
        <pt x="266" y="1265" on="1"/>
        <pt x="121" y="1275" on="1"/>
        <pt x="121" y="1307" on="1"/>
        <pt x="344" y="1680" on="1"/>
        <pt x="587" y="1670" on="1"/>
        <pt x="810" y="1307" on="1"/>
      </contour>
    </TTGlyph>
    <TTGlyph name="circumflextilde.case" xMin="-190" yMin="1460" xMax="751" yMax="2186">
      <contour>
        <pt x="-190" y="1932" on="1"/>
        <pt x="-190" y="2059" on="0"/>
        <pt x="-56" y="2186" on="0"/>
        <pt x="60" y="2186" on="1"/>
        <pt x="126" y="2186" on="0"/>
        <pt x="260" y="2145" on="0"/>
        <pt x="383" y="2095" on="0"/>
        <pt x="486" y="2054" on="0"/>
        <pt x="521" y="2054" on="1"/>
        <pt x="564" y="2054" on="0"/>
        <pt x="614" y="2113" on="0"/>
        <pt x="614" y="2174" on="1"/>
        <pt x="751" y="2184" on="1"/>
        <pt x="751" y="2112" on="1"/>
        <pt x="751" y="1993" on="0"/>
        <pt x="628" y="1858" on="0"/>
        <pt x="513" y="1858" on="1"/>
        <pt x="455" y="1858" on="0"/>
        <pt x="317" y="1899" on="0"/>
        <pt x="184" y="1949" on="0"/>
        <pt x="70" y="1990" on="0"/>
        <pt x="36" y="1990" on="1"/>
        <pt x="13" y="1990" on="0"/>
        <pt x="-22" y="1982" on="0"/>
        <pt x="-48" y="1960" on="0"/>
        <pt x="-61" y="1922" on="0"/>
        <pt x="-61" y="1892" on="1"/>
        <pt x="-190" y="1882" on="1"/>
      </contour>
      <contour>
        <pt x="651" y="1470" on="1"/>
        <pt x="476" y="1460" on="1"/>
        <pt x="263" y="1631" on="1"/>
        <pt x="57" y="1460" on="1"/>
        <pt x="-88" y="1470" on="1"/>
        <pt x="-88" y="1502" on="1"/>
        <pt x="175" y="1794" on="1"/>
        <pt x="398" y="1784" on="1"/>
        <pt x="651" y="1502" on="1"/>
      </contour>
    </TTGlyph>
    <TTGlyph name="colon" xMin="100" yMin="-22" xMax="426" yMax="1016">
      <contour>
        <pt x="100" y="99" on="1"/>
        <pt x="100" y="140" on="0"/>
        <pt x="119" y="215" on="0"/>
        <pt x="152" y="272" on="0"/>
        <pt x="196" y="305" on="0"/>
        <pt x="221" y="305" on="1"/>
        <pt x="264" y="305" on="0"/>
        <pt x="339" y="286" on="0"/>
        <pt x="394" y="252" on="0"/>
        <pt x="426" y="207" on="0"/>
        <pt x="426" y="182" on="1"/>
        <pt x="426" y="141" on="0"/>
        <pt x="407" y="68" on="0"/>
        <pt x="374" y="11" on="0"/>
        <pt x="329" y="-22" on="0"/>
        <pt x="304" y="-22" on="1"/>
        <pt x="261" y="-22" on="0"/>
        <pt x="187" y="-3" on="0"/>
        <pt x="132" y="30" on="0"/>
        <pt x="100" y="74" on="0"/>
      </contour>
      <contour>
        <pt x="100" y="810" on="1"/>
        <pt x="100" y="851" on="0"/>
        <pt x="119" y="926" on="0"/>
        <pt x="152" y="983" on="0"/>
        <pt x="196" y="1016" on="0"/>
        <pt x="221" y="1016" on="1"/>
        <pt x="264" y="1016" on="0"/>
        <pt x="339" y="997" on="0"/>
        <pt x="394" y="963" on="0"/>
        <pt x="426" y="918" on="0"/>
        <pt x="426" y="893" on="1"/>
        <pt x="426" y="852" on="0"/>
        <pt x="407" y="779" on="0"/>
        <pt x="374" y="722" on="0"/>
        <pt x="329" y="689" on="0"/>
        <pt x="304" y="689" on="1"/>
        <pt x="261" y="689" on="0"/>
        <pt x="187" y="708" on="0"/>
        <pt x="132" y="741" on="0"/>
        <pt x="100" y="785" on="0"/>
      </contour>
    </TTGlyph>
    <TTGlyph name="colonmonetary" xMin="70" yMin="-133" xMax="1179" yMax="1510">
      <contour>
        <pt x="507" y="-6" on="1"/>
        <pt x="449" y="3" on="0"/>
        <pt x="393" y="23" on="1"/>
        <pt x="346" y="-133" on="1"/>
        <pt x="191" y="-133" on="1"/>
        <pt x="191" y="-113" on="1"/>
        <pt x="253" y="95" on="1"/>
        <pt x="169" y="157" on="0"/>
        <pt x="70" y="362" on="0"/>
        <pt x="70" y="515" on="1"/>
        <pt x="70" y="604" on="1"/>
        <pt x="70" y="948" on="0"/>
        <pt x="352" y="1335" on="0"/>
        <pt x="635" y="1368" on="1"/>
        <pt x="678" y="1510" on="1"/>
        <pt x="833" y="1510" on="1"/>
        <pt x="833" y="1490" on="1"/>
        <pt x="798" y="1374" on="1"/>
        <pt x="830" y="1372" on="0"/>
        <pt x="890" y="1368" on="0"/>
        <pt x="918" y="1365" on="1"/>
        <pt x="962" y="1510" on="1"/>
        <pt x="1117" y="1510" on="1"/>
        <pt x="1117" y="1490" on="1"/>
        <pt x="1071" y="1338" on="1"/>
        <pt x="1091" y="1333" on="0"/>
        <pt x="1124" y="1325" on="0"/>
        <pt x="1135" y="1322" on="1"/>
        <pt x="1148" y="1318" on="0"/>
        <pt x="1158" y="1316" on="1"/>
        <pt x="1179" y="1026" on="1"/>
        <pt x="1034" y="1004" on="1"/>
        <pt x="1007" y="1124" on="1"/>
        <pt x="709" y="130" on="1"/>
        <pt x="740" y="127" on="0"/>
        <pt x="773" y="127" on="1"/>
        <pt x="854" y="127" on="0"/>
        <pt x="998" y="159" on="0"/>
        <pt x="1053" y="179" on="1"/>
        <pt x="1117" y="202" on="0"/>
        <pt x="1172" y="231" on="1"/>
        <pt x="1172" y="105" on="1"/>
        <pt x="1114" y="69" on="0"/>
        <pt x="1040" y="41" on="1"/>
        <pt x="977" y="17" on="0"/>
        <pt x="802" y="-22" on="0"/>
        <pt x="696" y="-22" on="1"/>
        <pt x="688" y="-22" on="0"/>
        <pt x="671" y="-22" on="0"/>
        <pt x="663" y="-21" on="1"/>
        <pt x="630" y="-133" on="1"/>
        <pt x="475" y="-133" on="1"/>
        <pt x="475" y="-113" on="1"/>
      </contour>
      <contour>
        <pt x="460" y="247" on="1"/>
        <pt x="481" y="222" on="0"/>
        <pt x="531" y="184" on="0"/>
        <pt x="560" y="170" on="1"/>
        <pt x="874" y="1217" on="1"/>
        <pt x="846" y="1220" on="0"/>
        <pt x="786" y="1225" on="0"/>
        <pt x="754" y="1226" on="1"/>
      </contour>
      <contour>
        <pt x="370" y="550" on="1"/>
        <pt x="370" y="534" on="0"/>
        <pt x="371" y="505" on="0"/>
        <pt x="372" y="491" on="1"/>
        <pt x="588" y="1209" on="1"/>
        <pt x="551" y="1200" on="0"/>
        <pt x="492" y="1179" on="0"/>
        <pt x="472" y="1170" on="1"/>
        <pt x="447" y="1159" on="0"/>
        <pt x="429" y="1148" on="1"/>
        <pt x="412" y="1089" on="0"/>
        <pt x="399" y="1016" on="1"/>
        <pt x="388" y="953" on="0"/>
        <pt x="370" y="783" on="0"/>
        <pt x="370" y="683" on="1"/>
      </contour>
    </TTGlyph>
    <TTGlyph name="comma" xMin="100" yMin="-436" xMax="456" yMax="305">
      <contour>
        <pt x="100" y="98" on="1"/>
        <pt x="100" y="140" on="0"/>
        <pt x="120" y="215" on="0"/>
        <pt x="153" y="272" on="0"/>
        <pt x="197" y="305" on="0"/>
        <pt x="222" y="305" on="1"/>
        <pt x="245" y="305" on="0"/>
        <pt x="295" y="298" on="0"/>
        <pt x="343" y="283" on="0"/>
        <pt x="385" y="258" on="0"/>
        <pt x="402" y="241" on="1"/>
        <pt x="412" y="230" on="0"/>
        <pt x="432" y="199" on="0"/>
        <pt x="447" y="154" on="0"/>
        <pt x="456" y="92" on="0"/>
        <pt x="456" y="50" on="1"/>
        <pt x="456" y="-10" on="0"/>
        <pt x="438" y="-123" on="0"/>
        <pt x="383" y="-239" on="0"/>
        <pt x="282" y="-364" on="0"/>
        <pt x="199" y="-436" on="1"/>
        <pt x="117" y="-340" on="1"/>
        <pt x="168" y="-297" on="0"/>
        <pt x="238" y="-222" on="0"/>
        <pt x="280" y="-155" on="0"/>
        <pt x="298" y="-98" on="0"/>
        <pt x="298" y="-73" on="1"/>
        <pt x="298" y="-49" on="0"/>
        <pt x="261" y="-23" on="0"/>
        <pt x="232" y="-16" on="1"/>
        <pt x="173" y="0" on="0"/>
        <pt x="100" y="60" on="0"/>
      </contour>
    </TTGlyph>
    <TTGlyph name="commaaccent" xMin="70" yMin="-511" xMax="236" yMax="-128">
      <contour>
        <pt x="70" y="-128" on="1"/>
        <pt x="236" y="-128" on="1"/>
        <pt x="236" y="-170" on="1"/>
        <pt x="173" y="-511" on="1"/>
        <pt x="70" y="-511" on="1"/>
      </contour>
    </TTGlyph>
    <TTGlyph name="copyright" xMin="60" yMin="335" xMax="1287" yMax="1562">
      <contour>
        <pt x="359" y="953" on="1"/>
        <pt x="359" y="1123" on="0"/>
        <pt x="536" y="1305" on="0"/>
        <pt x="697" y="1305" on="1"/>
        <pt x="743" y="1305" on="0"/>
        <pt x="815" y="1293" on="0"/>
        <pt x="841" y="1286" on="1"/>
        <pt x="871" y="1277" on="0"/>
        <pt x="893" y="1267" on="1"/>
        <pt x="905" y="1064" on="1"/>
        <pt x="807" y="1050" on="1"/>
        <pt x="763" y="1187" on="1"/>
        <pt x="756" y="1190" on="0"/>
        <pt x="746" y="1193" on="1"/>
        <pt x="738" y="1195" on="0"/>
        <pt x="713" y="1199" on="0"/>
        <pt x="696" y="1199" on="1"/>
        <pt x="674" y="1199" on="0"/>
        <pt x="639" y="1193" on="0"/>
        <pt x="627" y="1190" on="1"/>
        <pt x="613" y="1186" on="0"/>
        <pt x="602" y="1181" on="1"/>
        <pt x="595" y="1157" on="0"/>
        <pt x="590" y="1124" on="1"/>
        <pt x="585" y="1096" on="0"/>
        <pt x="579" y="1018" on="0"/>
        <pt x="579" y="968" on="1"/>
        <pt x="579" y="915" on="1"/>
        <pt x="579" y="857" on="0"/>
        <pt x="599" y="776" on="0"/>
        <pt x="635" y="725" on="0"/>
        <pt x="683" y="702" on="0"/>
        <pt x="711" y="702" on="1"/>
        <pt x="749" y="702" on="0"/>
        <pt x="818" y="716" on="0"/>
        <pt x="844" y="725" on="1"/>
        <pt x="875" y="735" on="0"/>
        <pt x="901" y="748" on="1"/>
        <pt x="901" y="654" on="1"/>
        <pt x="873" y="637" on="0"/>
        <pt x="839" y="624" on="1"/>
        <pt x="810" y="613" on="0"/>
        <pt x="729" y="595" on="0"/>
        <pt x="679" y="595" on="1"/>
        <pt x="611" y="595" on="0"/>
        <pt x="494" y="636" on="0"/>
        <pt x="408" y="712" on="0"/>
        <pt x="359" y="821" on="0"/>
        <pt x="359" y="890" on="1"/>
      </contour>
      <contour>
        <pt x="237" y="949" on="1"/>
        <pt x="237" y="858" on="0"/>
        <pt x="305" y="699" on="0"/>
        <pt x="424" y="580" on="0"/>
        <pt x="583" y="512" on="0"/>
        <pt x="674" y="512" on="1"/>
        <pt x="764" y="512" on="0"/>
        <pt x="923" y="580" on="0"/>
        <pt x="1042" y="699" on="0"/>
        <pt x="1110" y="858" on="0"/>
        <pt x="1110" y="949" on="1"/>
        <pt x="1110" y="1039" on="0"/>
        <pt x="1042" y="1198" on="0"/>
        <pt x="923" y="1317" on="0"/>
        <pt x="764" y="1385" on="0"/>
        <pt x="674" y="1385" on="1"/>
        <pt x="583" y="1385" on="0"/>
        <pt x="424" y="1317" on="0"/>
        <pt x="305" y="1198" on="0"/>
        <pt x="237" y="1039" on="0"/>
      </contour>
      <contour>
        <pt x="60" y="949" on="1"/>
        <pt x="60" y="1076" on="0"/>
        <pt x="157" y="1300" on="0"/>
        <pt x="323" y="1466" on="0"/>
        <pt x="547" y="1562" on="0"/>
        <pt x="674" y="1562" on="1"/>
        <pt x="801" y="1562" on="0"/>
        <pt x="1025" y="1466" on="0"/>
        <pt x="1191" y="1300" on="0"/>
        <pt x="1287" y="1076" on="0"/>
        <pt x="1287" y="949" on="1"/>
        <pt x="1287" y="822" on="0"/>
        <pt x="1191" y="598" on="0"/>
        <pt x="1025" y="432" on="0"/>
        <pt x="801" y="335" on="0"/>
        <pt x="674" y="335" on="1"/>
        <pt x="589" y="335" on="0"/>
        <pt x="432" y="379" on="0"/>
        <pt x="296" y="459" on="0"/>
        <pt x="184" y="571" on="0"/>
        <pt x="104" y="707" on="0"/>
        <pt x="60" y="864" on="0"/>
      </contour>
    </TTGlyph>
    <TTGlyph name="currency" xMin="130" yMin="45" xMax="1108" yMax="1112">
      <contour>
        <pt x="132" y="175" on="1"/>
        <pt x="292" y="367" on="1"/>
        <pt x="257" y="414" on="0"/>
        <pt x="219" y="525" on="0"/>
        <pt x="219" y="588" on="1"/>
        <pt x="219" y="646" on="0"/>
        <pt x="253" y="753" on="0"/>
        <pt x="285" y="798" on="1"/>
        <pt x="130" y="983" on="1"/>
        <pt x="284" y="1112" on="1"/>
        <pt x="439" y="928" on="1"/>
        <pt x="480" y="948" on="0"/>
        <pt x="570" y="969" on="0"/>
        <pt x="620" y="969" on="1"/>
        <pt x="668" y="969" on="0"/>
        <pt x="758" y="948" on="0"/>
        <pt x="799" y="928" on="1"/>
        <pt x="953" y="1112" on="1"/>
        <pt x="1108" y="981" on="1"/>
        <pt x="954" y="798" on="1"/>
        <pt x="986" y="752" on="0"/>
        <pt x="1021" y="646" on="0"/>
        <pt x="1021" y="588" on="1"/>
        <pt x="1021" y="525" on="0"/>
        <pt x="981" y="412" on="0"/>
        <pt x="946" y="365" on="1"/>
        <pt x="1107" y="174" on="1"/>
        <pt x="953" y="46" on="1"/>
        <pt x="788" y="242" on="1"/>
        <pt x="710" y="207" on="0"/>
        <pt x="620" y="207" on="1"/>
        <pt x="575" y="207" on="0"/>
        <pt x="490" y="225" on="0"/>
        <pt x="452" y="242" on="1"/>
        <pt x="287" y="45" on="1"/>
      </contour>
      <contour>
        <pt x="445" y="588" on="1"/>
        <pt x="445" y="542" on="0"/>
        <pt x="473" y="472" on="0"/>
        <pt x="520" y="425" on="0"/>
        <pt x="584" y="401" on="0"/>
        <pt x="620" y="401" on="1"/>
        <pt x="656" y="401" on="0"/>
        <pt x="719" y="425" on="0"/>
        <pt x="767" y="472" on="0"/>
        <pt x="794" y="542" on="0"/>
        <pt x="794" y="588" on="1"/>
        <pt x="794" y="634" on="0"/>
        <pt x="767" y="704" on="0"/>
        <pt x="719" y="751" on="0"/>
        <pt x="656" y="775" on="0"/>
        <pt x="620" y="775" on="1"/>
        <pt x="584" y="775" on="0"/>
        <pt x="520" y="751" on="0"/>
        <pt x="473" y="704" on="0"/>
        <pt x="445" y="634" on="0"/>
      </contour>
    </TTGlyph>
    <TTGlyph name="d" xMin="66" yMin="-22" xMax="1210" yMax="1562">
      <contour>
        <pt x="1067" y="152" on="1"/>
        <pt x="1210" y="118" on="1"/>
        <pt x="1190" y="0" on="1"/>
        <pt x="855" y="-22" on="1"/>
        <pt x="798" y="136" on="1"/>
        <pt x="742" y="65" on="0"/>
        <pt x="561" y="-22" on="0"/>
        <pt x="461" y="-22" on="1"/>
        <pt x="267" y="-22" on="0"/>
        <pt x="66" y="196" on="0"/>
        <pt x="66" y="413" on="1"/>
        <pt x="66" y="506" on="1"/>
        <pt x="66" y="788" on="0"/>
        <pt x="348" y="1107" on="0"/>
        <pt x="604" y="1107" on="1"/>
        <pt x="642" y="1107" on="0"/>
        <pt x="734" y="1096" on="0"/>
        <pt x="777" y="1088" on="1"/>
        <pt x="777" y="1388" on="1"/>
        <pt x="634" y="1422" on="1"/>
        <pt x="654" y="1540" on="1"/>
        <pt x="1067" y="1562" on="1"/>
      </contour>
      <contour>
        <pt x="356" y="423" on="1"/>
        <pt x="356" y="273" on="0"/>
        <pt x="451" y="118" on="0"/>
        <pt x="543" y="118" on="1"/>
        <pt x="602" y="118" on="0"/>
        <pt x="727" y="189" on="0"/>
        <pt x="777" y="245" on="1"/>
        <pt x="777" y="942" on="1"/>
        <pt x="741" y="951" on="0"/>
        <pt x="636" y="967" on="0"/>
        <pt x="584" y="967" on="1"/>
        <pt x="527" y="967" on="0"/>
        <pt x="428" y="940" on="0"/>
        <pt x="396" y="920" on="1"/>
        <pt x="379" y="851" on="0"/>
        <pt x="356" y="660" on="0"/>
        <pt x="356" y="553" on="1"/>
      </contour>
    </TTGlyph>
    <TTGlyph name="dagger" xMin="60" yMin="-22" xMax="1043" yMax="1562">
      <contour>
        <pt x="80" y="1140" on="1"/>
        <pt x="447" y="1100" on="1"/>
        <pt x="407" y="1540" on="1"/>
        <pt x="695" y="1562" on="1"/>
        <pt x="655" y="1100" on="1"/>
        <pt x="1043" y="1140" on="1"/>
        <pt x="1023" y="861" on="1"/>
        <pt x="655" y="901" on="1"/>
        <pt x="695" y="0" on="1"/>
        <pt x="407" y="-22" on="1"/>
        <pt x="447" y="901" on="1"/>
        <pt x="60" y="861" on="1"/>
      </contour>
    </TTGlyph>
    <TTGlyph name="daggerdbl" xMin="60" yMin="-22" xMax="1044" yMax="1562">
      <contour>
        <pt x="1023" y="400" on="1"/>
        <pt x="656" y="440" on="1"/>
        <pt x="696" y="0" on="1"/>
        <pt x="408" y="-22" on="1"/>
        <pt x="448" y="440" on="1"/>
        <pt x="60" y="400" on="1"/>
        <pt x="80" y="679" on="1"/>
        <pt x="448" y="639" on="1"/>
        <pt x="408" y="774" on="1"/>
        <pt x="448" y="901" on="1"/>
        <pt x="61" y="861" on="1"/>
        <pt x="81" y="1140" on="1"/>
        <pt x="448" y="1100" on="1"/>
        <pt x="408" y="1540" on="1"/>
        <pt x="696" y="1562" on="1"/>
        <pt x="656" y="1100" on="1"/>
        <pt x="1044" y="1140" on="1"/>
        <pt x="1024" y="861" on="1"/>
        <pt x="656" y="901" on="1"/>
        <pt x="696" y="774" on="1"/>
        <pt x="656" y="639" on="1"/>
        <pt x="1043" y="679" on="1"/>
      </contour>
    </TTGlyph>
    <TTGlyph name="dcaron" xMin="66" yMin="-22" xMax="1404" yMax="1562">
      <component glyphName="d" x="0" y="0" flags="0x204"/>
      <component glyphName="caron.alt" x="1148" y="0" flags="0x4"/>
    </TTGlyph>
    <TTGlyph name="dcroat" xMin="66" yMin="-22" xMax="1231" yMax="1562">
      <contour>
        <pt x="1067" y="152" on="1"/>
        <pt x="1210" y="118" on="1"/>
        <pt x="1190" y="0" on="1"/>
        <pt x="855" y="-22" on="1"/>
        <pt x="798" y="136" on="1"/>
        <pt x="742" y="65" on="0"/>
        <pt x="561" y="-22" on="0"/>
        <pt x="461" y="-22" on="1"/>
        <pt x="267" y="-22" on="0"/>
        <pt x="66" y="196" on="0"/>
        <pt x="66" y="413" on="1"/>
        <pt x="66" y="506" on="1"/>
        <pt x="66" y="788" on="0"/>
        <pt x="348" y="1107" on="0"/>
        <pt x="604" y="1107" on="1"/>
        <pt x="642" y="1107" on="0"/>
        <pt x="734" y="1096" on="0"/>
        <pt x="777" y="1088" on="1"/>
        <pt x="777" y="1193" on="1"/>
        <pt x="427" y="1193" on="1"/>
        <pt x="427" y="1323" on="1"/>
        <pt x="777" y="1323" on="1"/>
        <pt x="777" y="1388" on="1"/>
        <pt x="634" y="1422" on="1"/>
        <pt x="654" y="1540" on="1"/>
        <pt x="1067" y="1562" on="1"/>
        <pt x="1067" y="1323" on="1"/>
        <pt x="1231" y="1323" on="1"/>
        <pt x="1231" y="1193" on="1"/>
        <pt x="1067" y="1193" on="1"/>
      </contour>
      <contour>
        <pt x="356" y="423" on="1"/>
        <pt x="356" y="273" on="0"/>
        <pt x="451" y="118" on="0"/>
        <pt x="543" y="118" on="1"/>
        <pt x="602" y="118" on="0"/>
        <pt x="727" y="189" on="0"/>
        <pt x="777" y="245" on="1"/>
        <pt x="777" y="942" on="1"/>
        <pt x="741" y="951" on="0"/>
        <pt x="636" y="967" on="0"/>
        <pt x="584" y="967" on="1"/>
        <pt x="527" y="967" on="0"/>
        <pt x="428" y="940" on="0"/>
        <pt x="396" y="920" on="1"/>
        <pt x="379" y="851" on="0"/>
        <pt x="356" y="660" on="0"/>
        <pt x="356" y="553" on="1"/>
      </contour>
    </TTGlyph>
    <TTGlyph name="degree" xMin="80" yMin="1048" xMax="614" yMax="1562">
      <contour>
        <pt x="80" y="1305" on="1"/>
        <pt x="80" y="1358" on="0"/>
        <pt x="122" y="1452" on="0"/>
        <pt x="194" y="1522" on="0"/>
        <pt x="291" y="1562" on="0"/>
        <pt x="347" y="1562" on="1"/>
        <pt x="402" y="1562" on="0"/>
        <pt x="500" y="1522" on="0"/>
        <pt x="572" y="1452" on="0"/>
        <pt x="614" y="1358" on="0"/>
        <pt x="614" y="1305" on="1"/>
        <pt x="614" y="1252" on="0"/>
        <pt x="572" y="1158" on="0"/>
        <pt x="500" y="1088" on="0"/>
        <pt x="402" y="1048" on="0"/>
        <pt x="347" y="1048" on="1"/>
        <pt x="291" y="1048" on="0"/>
        <pt x="194" y="1088" on="0"/>
        <pt x="122" y="1158" on="0"/>
        <pt x="80" y="1252" on="0"/>
      </contour>
      <contour>
        <pt x="235" y="1305" on="1"/>
        <pt x="235" y="1247" on="0"/>
        <pt x="299" y="1187" on="0"/>
        <pt x="347" y="1187" on="1"/>
        <pt x="395" y="1187" on="0"/>
        <pt x="459" y="1247" on="0"/>
        <pt x="459" y="1305" on="1"/>
        <pt x="459" y="1363" on="0"/>
        <pt x="395" y="1423" on="0"/>
        <pt x="347" y="1423" on="1"/>
        <pt x="299" y="1423" on="0"/>
        <pt x="235" y="1363" on="0"/>
      </contour>
    </TTGlyph>
    <TTGlyph name="dieresis" xMin="150" yMin="1282" xMax="885" yMax="1540">
      <contour>
        <pt x="150" y="1389" on="1"/>
        <pt x="150" y="1420" on="0"/>
        <pt x="167" y="1475" on="0"/>
        <pt x="196" y="1516" on="0"/>
        <pt x="235" y="1540" on="0"/>
        <pt x="256" y="1540" on="1"/>
        <pt x="287" y="1540" on="0"/>
        <pt x="342" y="1523" on="0"/>
        <pt x="382" y="1493" on="0"/>
        <pt x="405" y="1454" on="0"/>
        <pt x="405" y="1432" on="1"/>
        <pt x="405" y="1402" on="0"/>
        <pt x="388" y="1348" on="0"/>
        <pt x="360" y="1306" on="0"/>
        <pt x="321" y="1282" on="0"/>
        <pt x="300" y="1282" on="1"/>
        <pt x="268" y="1282" on="0"/>
        <pt x="214" y="1299" on="0"/>
        <pt x="173" y="1329" on="0"/>
        <pt x="150" y="1368" on="0"/>
      </contour>
      <contour>
        <pt x="630" y="1389" on="1"/>
        <pt x="630" y="1420" on="0"/>
        <pt x="647" y="1475" on="0"/>
        <pt x="675" y="1516" on="0"/>
        <pt x="714" y="1540" on="0"/>
        <pt x="735" y="1540" on="1"/>
        <pt x="766" y="1540" on="0"/>
        <pt x="821" y="1523" on="0"/>
        <pt x="862" y="1493" on="0"/>
        <pt x="885" y="1454" on="0"/>
        <pt x="885" y="1432" on="1"/>
        <pt x="885" y="1402" on="0"/>
        <pt x="868" y="1348" on="0"/>
        <pt x="839" y="1306" on="0"/>
        <pt x="800" y="1282" on="0"/>
        <pt x="778" y="1282" on="1"/>
        <pt x="746" y="1282" on="0"/>
        <pt x="692" y="1299" on="0"/>
        <pt x="653" y="1329" on="0"/>
        <pt x="630" y="1368" on="0"/>
      </contour>
    </TTGlyph>
    <TTGlyph name="dieresis.case" xMin="-123" yMin="1470" xMax="674" yMax="1728">
      <contour>
        <pt x="-123" y="1577" on="1"/>
        <pt x="-123" y="1608" on="0"/>
        <pt x="-106" y="1663" on="0"/>
        <pt x="-77" y="1704" on="0"/>
        <pt x="-38" y="1728" on="0"/>
        <pt x="-17" y="1728" on="1"/>
        <pt x="14" y="1728" on="0"/>
        <pt x="69" y="1711" on="0"/>
        <pt x="109" y="1682" on="0"/>
        <pt x="132" y="1642" on="0"/>
        <pt x="132" y="1620" on="1"/>
        <pt x="132" y="1590" on="0"/>
        <pt x="115" y="1536" on="0"/>
        <pt x="87" y="1494" on="0"/>
        <pt x="48" y="1470" on="0"/>
        <pt x="27" y="1470" on="1"/>
        <pt x="-5" y="1470" on="0"/>
        <pt x="-59" y="1487" on="0"/>
        <pt x="-100" y="1517" on="0"/>
        <pt x="-123" y="1556" on="0"/>
      </contour>
      <contour>
        <pt x="419" y="1577" on="1"/>
        <pt x="419" y="1608" on="0"/>
        <pt x="436" y="1663" on="0"/>
        <pt x="464" y="1704" on="0"/>
        <pt x="503" y="1728" on="0"/>
        <pt x="524" y="1728" on="1"/>
        <pt x="555" y="1728" on="0"/>
        <pt x="610" y="1711" on="0"/>
        <pt x="651" y="1682" on="0"/>
        <pt x="674" y="1642" on="0"/>
        <pt x="674" y="1620" on="1"/>
        <pt x="674" y="1590" on="0"/>
        <pt x="657" y="1536" on="0"/>
        <pt x="628" y="1494" on="0"/>
        <pt x="589" y="1470" on="0"/>
        <pt x="567" y="1470" on="1"/>
        <pt x="535" y="1470" on="0"/>
        <pt x="481" y="1487" on="0"/>
        <pt x="442" y="1517" on="0"/>
        <pt x="419" y="1556" on="0"/>
      </contour>
    </TTGlyph>
    <TTGlyph name="dieresisacute" xMin="-8" yMin="1282" xMax="727" yMax="2007">
      <contour>
        <pt x="-8" y="1389" on="1"/>
        <pt x="-8" y="1420" on="0"/>
        <pt x="9" y="1475" on="0"/>
        <pt x="38" y="1516" on="0"/>
        <pt x="77" y="1540" on="0"/>
        <pt x="98" y="1540" on="1"/>
        <pt x="129" y="1540" on="0"/>
        <pt x="184" y="1523" on="0"/>
        <pt x="224" y="1493" on="0"/>
        <pt x="247" y="1454" on="0"/>
        <pt x="247" y="1432" on="1"/>
        <pt x="247" y="1402" on="0"/>
        <pt x="230" y="1348" on="0"/>
        <pt x="202" y="1306" on="0"/>
        <pt x="163" y="1282" on="0"/>
        <pt x="142" y="1282" on="1"/>
        <pt x="110" y="1282" on="0"/>
        <pt x="56" y="1299" on="0"/>
        <pt x="15" y="1329" on="0"/>
        <pt x="-8" y="1368" on="0"/>
      </contour>
      <contour>
        <pt x="472" y="1389" on="1"/>
        <pt x="472" y="1420" on="0"/>
        <pt x="489" y="1475" on="0"/>
        <pt x="517" y="1516" on="0"/>
        <pt x="556" y="1540" on="0"/>
        <pt x="577" y="1540" on="1"/>
        <pt x="608" y="1540" on="0"/>
        <pt x="663" y="1523" on="0"/>
        <pt x="704" y="1493" on="0"/>
        <pt x="727" y="1454" on="0"/>
        <pt x="727" y="1432" on="1"/>
        <pt x="727" y="1402" on="0"/>
        <pt x="710" y="1348" on="0"/>
        <pt x="681" y="1306" on="0"/>
        <pt x="642" y="1282" on="0"/>
        <pt x="620" y="1282" on="1"/>
        <pt x="588" y="1282" on="0"/>
        <pt x="534" y="1299" on="0"/>
        <pt x="495" y="1329" on="0"/>
        <pt x="472" y="1368" on="0"/>
      </contour>
      <contour>
        <pt x="255" y="1644" on="1"/>
        <pt x="438" y="2007" on="1"/>
        <pt x="710" y="1997" on="1"/>
        <pt x="710" y="1931" on="1"/>
        <pt x="410" y="1602" on="1"/>
        <pt x="255" y="1612" on="1"/>
      </contour>
    </TTGlyph>
    <TTGlyph name="dieresisacute.case" xMin="-123" yMin="1470" xMax="688" yMax="2069">
      <contour>
        <pt x="-123" y="1577" on="1"/>
        <pt x="-123" y="1608" on="0"/>
        <pt x="-106" y="1663" on="0"/>
        <pt x="-77" y="1704" on="0"/>
        <pt x="-38" y="1728" on="0"/>
        <pt x="-17" y="1728" on="1"/>
        <pt x="14" y="1728" on="0"/>
        <pt x="69" y="1711" on="0"/>
        <pt x="109" y="1682" on="0"/>
        <pt x="132" y="1642" on="0"/>
        <pt x="132" y="1620" on="1"/>
        <pt x="132" y="1590" on="0"/>
        <pt x="115" y="1536" on="0"/>
        <pt x="87" y="1494" on="0"/>
        <pt x="48" y="1470" on="0"/>
        <pt x="27" y="1470" on="1"/>
        <pt x="-5" y="1470" on="0"/>
        <pt x="-59" y="1487" on="0"/>
        <pt x="-100" y="1517" on="0"/>
        <pt x="-123" y="1556" on="0"/>
      </contour>
      <contour>
        <pt x="419" y="1577" on="1"/>
        <pt x="419" y="1608" on="0"/>
        <pt x="436" y="1663" on="0"/>
        <pt x="464" y="1704" on="0"/>
        <pt x="503" y="1728" on="0"/>
        <pt x="524" y="1728" on="1"/>
        <pt x="555" y="1728" on="0"/>
        <pt x="610" y="1711" on="0"/>
        <pt x="651" y="1682" on="0"/>
        <pt x="674" y="1642" on="0"/>
        <pt x="674" y="1620" on="1"/>
        <pt x="674" y="1590" on="0"/>
        <pt x="657" y="1536" on="0"/>
        <pt x="628" y="1494" on="0"/>
        <pt x="589" y="1470" on="0"/>
        <pt x="567" y="1470" on="1"/>
        <pt x="535" y="1470" on="0"/>
        <pt x="481" y="1487" on="0"/>
        <pt x="442" y="1517" on="0"/>
        <pt x="419" y="1556" on="0"/>
      </contour>
      <contour>
        <pt x="128" y="1788" on="1"/>
        <pt x="406" y="2069" on="1"/>
        <pt x="688" y="2059" on="1"/>
        <pt x="688" y="1993" on="1"/>
        <pt x="293" y="1745" on="1"/>
        <pt x="128" y="1756" on="1"/>
      </contour>
    </TTGlyph>
    <TTGlyph name="dieresiscaron" xMin="-8" yMin="1282" xMax="727" yMax="2007">
      <contour>
        <pt x="15" y="1997" on="1"/>
        <pt x="190" y="2007" on="1"/>
        <pt x="377" y="1787" on="1"/>
        <pt x="559" y="2007" on="1"/>
        <pt x="704" y="1997" on="1"/>
        <pt x="704" y="1965" on="1"/>
        <pt x="481" y="1592" on="1"/>
        <pt x="238" y="1602" on="1"/>
        <pt x="15" y="1965" on="1"/>
      </contour>
      <contour>
        <pt x="472" y="1389" on="1"/>
        <pt x="472" y="1420" on="0"/>
        <pt x="489" y="1475" on="0"/>
        <pt x="517" y="1516" on="0"/>
        <pt x="556" y="1540" on="0"/>
        <pt x="577" y="1540" on="1"/>
        <pt x="608" y="1540" on="0"/>
        <pt x="663" y="1523" on="0"/>
        <pt x="704" y="1493" on="0"/>
        <pt x="727" y="1454" on="0"/>
        <pt x="727" y="1432" on="1"/>
        <pt x="727" y="1402" on="0"/>
        <pt x="710" y="1348" on="0"/>
        <pt x="681" y="1306" on="0"/>
        <pt x="642" y="1282" on="0"/>
        <pt x="620" y="1282" on="1"/>
        <pt x="588" y="1282" on="0"/>
        <pt x="534" y="1299" on="0"/>
        <pt x="495" y="1329" on="0"/>
        <pt x="472" y="1368" on="0"/>
      </contour>
      <contour>
        <pt x="-8" y="1389" on="1"/>
        <pt x="-8" y="1420" on="0"/>
        <pt x="9" y="1475" on="0"/>
        <pt x="38" y="1516" on="0"/>
        <pt x="77" y="1540" on="0"/>
        <pt x="98" y="1540" on="1"/>
        <pt x="129" y="1540" on="0"/>
        <pt x="184" y="1523" on="0"/>
        <pt x="224" y="1493" on="0"/>
        <pt x="247" y="1454" on="0"/>
        <pt x="247" y="1432" on="1"/>
        <pt x="247" y="1402" on="0"/>
        <pt x="230" y="1348" on="0"/>
        <pt x="202" y="1306" on="0"/>
        <pt x="163" y="1282" on="0"/>
        <pt x="142" y="1282" on="1"/>
        <pt x="110" y="1282" on="0"/>
        <pt x="56" y="1299" on="0"/>
        <pt x="15" y="1329" on="0"/>
        <pt x="-8" y="1368" on="0"/>
      </contour>
    </TTGlyph>
    <TTGlyph name="dieresiscaron.case" xMin="-123" yMin="1470" xMax="674" yMax="2079">
      <contour>
        <pt x="-91" y="2069" on="1"/>
        <pt x="84" y="2079" on="1"/>
        <pt x="297" y="1907" on="1"/>
        <pt x="503" y="2079" on="1"/>
        <pt x="648" y="2069" on="1"/>
        <pt x="648" y="2037" on="1"/>
        <pt x="385" y="1745" on="1"/>
        <pt x="162" y="1755" on="1"/>
        <pt x="-91" y="2037" on="1"/>
      </contour>
      <contour>
        <pt x="419" y="1577" on="1"/>
        <pt x="419" y="1608" on="0"/>
        <pt x="436" y="1663" on="0"/>
        <pt x="464" y="1704" on="0"/>
        <pt x="503" y="1728" on="0"/>
        <pt x="524" y="1728" on="1"/>
        <pt x="555" y="1728" on="0"/>
        <pt x="610" y="1711" on="0"/>
        <pt x="651" y="1682" on="0"/>
        <pt x="674" y="1642" on="0"/>
        <pt x="674" y="1620" on="1"/>
        <pt x="674" y="1590" on="0"/>
        <pt x="657" y="1536" on="0"/>
        <pt x="628" y="1494" on="0"/>
        <pt x="589" y="1470" on="0"/>
        <pt x="567" y="1470" on="1"/>
        <pt x="535" y="1470" on="0"/>
        <pt x="481" y="1487" on="0"/>
        <pt x="442" y="1517" on="0"/>
        <pt x="419" y="1556" on="0"/>
      </contour>
      <contour>
        <pt x="-123" y="1577" on="1"/>
        <pt x="-123" y="1608" on="0"/>
        <pt x="-106" y="1663" on="0"/>
        <pt x="-77" y="1704" on="0"/>
        <pt x="-38" y="1728" on="0"/>
        <pt x="-17" y="1728" on="1"/>
        <pt x="14" y="1728" on="0"/>
        <pt x="69" y="1711" on="0"/>
        <pt x="109" y="1682" on="0"/>
        <pt x="132" y="1642" on="0"/>
        <pt x="132" y="1620" on="1"/>
        <pt x="132" y="1590" on="0"/>
        <pt x="115" y="1536" on="0"/>
        <pt x="87" y="1494" on="0"/>
        <pt x="48" y="1470" on="0"/>
        <pt x="27" y="1470" on="1"/>
        <pt x="-5" y="1470" on="0"/>
        <pt x="-59" y="1487" on="0"/>
        <pt x="-100" y="1517" on="0"/>
        <pt x="-123" y="1556" on="0"/>
      </contour>
    </TTGlyph>
    <TTGlyph name="dieresisgrave" xMin="-22" yMin="1282" xMax="727" yMax="2007">
      <contour>
        <pt x="-8" y="1389" on="1"/>
        <pt x="-8" y="1420" on="0"/>
        <pt x="9" y="1475" on="0"/>
        <pt x="38" y="1516" on="0"/>
        <pt x="77" y="1540" on="0"/>
        <pt x="98" y="1540" on="1"/>
        <pt x="129" y="1540" on="0"/>
        <pt x="184" y="1523" on="0"/>
        <pt x="224" y="1493" on="0"/>
        <pt x="247" y="1454" on="0"/>
        <pt x="247" y="1432" on="1"/>
        <pt x="247" y="1402" on="0"/>
        <pt x="230" y="1348" on="0"/>
        <pt x="202" y="1306" on="0"/>
        <pt x="163" y="1282" on="0"/>
        <pt x="142" y="1282" on="1"/>
        <pt x="110" y="1282" on="0"/>
        <pt x="56" y="1299" on="0"/>
        <pt x="15" y="1329" on="0"/>
        <pt x="-8" y="1368" on="0"/>
      </contour>
      <contour>
        <pt x="472" y="1389" on="1"/>
        <pt x="472" y="1420" on="0"/>
        <pt x="489" y="1475" on="0"/>
        <pt x="517" y="1516" on="0"/>
        <pt x="556" y="1540" on="0"/>
        <pt x="577" y="1540" on="1"/>
        <pt x="608" y="1540" on="0"/>
        <pt x="663" y="1523" on="0"/>
        <pt x="704" y="1493" on="0"/>
        <pt x="727" y="1454" on="0"/>
        <pt x="727" y="1432" on="1"/>
        <pt x="727" y="1402" on="0"/>
        <pt x="710" y="1348" on="0"/>
        <pt x="681" y="1306" on="0"/>
        <pt x="642" y="1282" on="0"/>
        <pt x="620" y="1282" on="1"/>
        <pt x="588" y="1282" on="0"/>
        <pt x="534" y="1299" on="0"/>
        <pt x="495" y="1329" on="0"/>
        <pt x="472" y="1368" on="0"/>
      </contour>
      <contour>
        <pt x="466" y="1612" on="1"/>
        <pt x="298" y="1602" on="1"/>
        <pt x="-22" y="1931" on="1"/>
        <pt x="-22" y="1997" on="1"/>
        <pt x="263" y="2007" on="1"/>
        <pt x="466" y="1644" on="1"/>
      </contour>
    </TTGlyph>
    <TTGlyph name="dieresisgrave.case" xMin="-123" yMin="1470" xMax="674" yMax="2069">
      <contour>
        <pt x="-123" y="1577" on="1"/>
        <pt x="-123" y="1608" on="0"/>
        <pt x="-106" y="1663" on="0"/>
        <pt x="-77" y="1704" on="0"/>
        <pt x="-38" y="1728" on="0"/>
        <pt x="-17" y="1728" on="1"/>
        <pt x="14" y="1728" on="0"/>
        <pt x="69" y="1711" on="0"/>
        <pt x="109" y="1682" on="0"/>
        <pt x="132" y="1642" on="0"/>
        <pt x="132" y="1620" on="1"/>
        <pt x="132" y="1590" on="0"/>
        <pt x="115" y="1536" on="0"/>
        <pt x="87" y="1494" on="0"/>
        <pt x="48" y="1470" on="0"/>
        <pt x="27" y="1470" on="1"/>
        <pt x="-5" y="1470" on="0"/>
        <pt x="-59" y="1487" on="0"/>
        <pt x="-100" y="1517" on="0"/>
        <pt x="-123" y="1556" on="0"/>
      </contour>
      <contour>
        <pt x="419" y="1577" on="1"/>
        <pt x="419" y="1608" on="0"/>
        <pt x="436" y="1663" on="0"/>
        <pt x="464" y="1704" on="0"/>
        <pt x="503" y="1728" on="0"/>
        <pt x="524" y="1728" on="1"/>
        <pt x="555" y="1728" on="0"/>
        <pt x="610" y="1711" on="0"/>
        <pt x="651" y="1682" on="0"/>
        <pt x="674" y="1642" on="0"/>
        <pt x="674" y="1620" on="1"/>
        <pt x="674" y="1590" on="0"/>
        <pt x="657" y="1536" on="0"/>
        <pt x="628" y="1494" on="0"/>
        <pt x="589" y="1470" on="0"/>
        <pt x="567" y="1470" on="1"/>
        <pt x="535" y="1470" on="0"/>
        <pt x="481" y="1487" on="0"/>
        <pt x="442" y="1517" on="0"/>
        <pt x="419" y="1556" on="0"/>
      </contour>
      <contour>
        <pt x="451" y="1756" on="1"/>
        <pt x="286" y="1745" on="1"/>
        <pt x="-109" y="1993" on="1"/>
        <pt x="-109" y="2059" on="1"/>
        <pt x="173" y="2069" on="1"/>
        <pt x="451" y="1788" on="1"/>
      </contour>
    </TTGlyph>
    <TTGlyph name="dieresismacron" xMin="-28" yMin="1282" xMax="742" yMax="1780">
      <contour>
        <pt x="-8" y="1389" on="1"/>
        <pt x="-8" y="1420" on="0"/>
        <pt x="9" y="1475" on="0"/>
        <pt x="38" y="1516" on="0"/>
        <pt x="77" y="1540" on="0"/>
        <pt x="98" y="1540" on="1"/>
        <pt x="129" y="1540" on="0"/>
        <pt x="184" y="1523" on="0"/>
        <pt x="224" y="1493" on="0"/>
        <pt x="247" y="1454" on="0"/>
        <pt x="247" y="1432" on="1"/>
        <pt x="247" y="1402" on="0"/>
        <pt x="230" y="1348" on="0"/>
        <pt x="202" y="1306" on="0"/>
        <pt x="163" y="1282" on="0"/>
        <pt x="142" y="1282" on="1"/>
        <pt x="110" y="1282" on="0"/>
        <pt x="56" y="1299" on="0"/>
        <pt x="15" y="1329" on="0"/>
        <pt x="-8" y="1368" on="0"/>
      </contour>
      <contour>
        <pt x="472" y="1389" on="1"/>
        <pt x="472" y="1420" on="0"/>
        <pt x="489" y="1475" on="0"/>
        <pt x="517" y="1516" on="0"/>
        <pt x="556" y="1540" on="0"/>
        <pt x="577" y="1540" on="1"/>
        <pt x="608" y="1540" on="0"/>
        <pt x="663" y="1523" on="0"/>
        <pt x="704" y="1493" on="0"/>
        <pt x="727" y="1454" on="0"/>
        <pt x="727" y="1432" on="1"/>
        <pt x="727" y="1402" on="0"/>
        <pt x="710" y="1348" on="0"/>
        <pt x="681" y="1306" on="0"/>
        <pt x="642" y="1282" on="0"/>
        <pt x="620" y="1282" on="1"/>
        <pt x="588" y="1282" on="0"/>
        <pt x="534" y="1299" on="0"/>
        <pt x="495" y="1329" on="0"/>
        <pt x="472" y="1368" on="0"/>
      </contour>
      <contour>
        <pt x="-8" y="1780" on="1"/>
        <pt x="742" y="1780" on="1"/>
        <pt x="722" y="1620" on="1"/>
        <pt x="-28" y="1620" on="1"/>
      </contour>
    </TTGlyph>
    <TTGlyph name="dieresismacron.case" xMin="-123" yMin="1470" xMax="707" yMax="1942">
      <contour>
        <pt x="-123" y="1577" on="1"/>
        <pt x="-123" y="1608" on="0"/>
        <pt x="-106" y="1663" on="0"/>
        <pt x="-77" y="1704" on="0"/>
        <pt x="-38" y="1728" on="0"/>
        <pt x="-17" y="1728" on="1"/>
        <pt x="14" y="1728" on="0"/>
        <pt x="69" y="1711" on="0"/>
        <pt x="109" y="1682" on="0"/>
        <pt x="132" y="1642" on="0"/>
        <pt x="132" y="1620" on="1"/>
        <pt x="132" y="1590" on="0"/>
        <pt x="115" y="1536" on="0"/>
        <pt x="87" y="1494" on="0"/>
        <pt x="48" y="1470" on="0"/>
        <pt x="27" y="1470" on="1"/>
        <pt x="-5" y="1470" on="0"/>
        <pt x="-59" y="1487" on="0"/>
        <pt x="-100" y="1517" on="0"/>
        <pt x="-123" y="1556" on="0"/>
      </contour>
      <contour>
        <pt x="419" y="1577" on="1"/>
        <pt x="419" y="1608" on="0"/>
        <pt x="436" y="1663" on="0"/>
        <pt x="464" y="1704" on="0"/>
        <pt x="503" y="1728" on="0"/>
        <pt x="524" y="1728" on="1"/>
        <pt x="555" y="1728" on="0"/>
        <pt x="610" y="1711" on="0"/>
        <pt x="651" y="1682" on="0"/>
        <pt x="674" y="1642" on="0"/>
        <pt x="674" y="1620" on="1"/>
        <pt x="674" y="1590" on="0"/>
        <pt x="657" y="1536" on="0"/>
        <pt x="628" y="1494" on="0"/>
        <pt x="589" y="1470" on="0"/>
        <pt x="567" y="1470" on="1"/>
        <pt x="535" y="1470" on="0"/>
        <pt x="481" y="1487" on="0"/>
        <pt x="442" y="1517" on="0"/>
        <pt x="419" y="1556" on="0"/>
      </contour>
      <contour>
        <pt x="-103" y="1942" on="1"/>
        <pt x="707" y="1942" on="1"/>
        <pt x="687" y="1782" on="1"/>
        <pt x="-123" y="1782" on="1"/>
      </contour>
    </TTGlyph>
</ttFont>
